<!-- Generated by IcoMoon.io -->
<svg version="1.1" xmlns="http://www.w3.org/2000/svg" width="32" height="32" viewBox="0 0 32 32">
<title>alert</title>
<path fill="#000" d="M13.209 21.959c0 0.006-0.001 0.012-0.001 0.018 0 1.492 1.21 2.702 2.701 2.702s2.702-1.209 2.702-2.702c0-0.006-0-0.012-0-0.018h-5.402z"></path>
<path fill="#000" d="M21.96 19.3l-1.706-2.505v-3.126c0-2.108-1.501-3.865-3.493-4.261v-0.963c0-0.471-0.382-0.852-0.852-0.852s-0.852 0.381-0.852 0.852v0.963c-1.992 0.396-3.493 2.153-3.493 4.261v3.126l-1.706 2.505c-0.18 0.264-0.199 0.606-0.049 0.888s0.442 0.459 0.761 0.459h10.676c0.319 0 0.612-0.176 0.762-0.459s0.13-0.623-0.049-0.887z"></path>
<path fill="#030104" d="M15.998 32c-0.001 0-0.001 0-0.001 0-8.703-0.001-15.879-7.081-15.995-15.785-0.118-8.822 6.963-16.095 15.784-16.214 0.073-0.001 0.145-0.001 0.218-0.001 8.703 0 15.878 7.081 15.995 15.785 0.118 8.822-6.963 16.095-15.784 16.214-0.072 0.001-0.143 0.001-0.216 0.001zM16.004 1.627l-0.196 0.001c-7.924 0.106-14.285 6.64-14.179 14.565 0.105 7.818 6.55 14.179 14.368 14.18l0.195-0.001c7.924-0.107 14.285-6.64 14.179-14.565-0.105-7.818-6.55-14.179-14.367-14.179z"></path>
</svg>
