<!-- Generated by IcoMoon.io -->
<svg version="1.1" xmlns="http://www.w3.org/2000/svg" width="23" height="32" viewBox="0 0 23 32">
<title>arrow-up</title>
<path d="M23.363 11.682c0 0.469-0.178 0.938-0.537 1.296-0.716 0.716-1.877 0.716-2.593 0l-8.551-8.553-8.553 8.553c-0.717 0.716-1.877 0.716-2.593 0s-0.717-1.877 0-2.593l9.848-9.849c0.344-0.344 0.81-0.537 1.297-0.537 0.485 0 0.952 0.193 1.295 0.537l9.848 9.849c0.359 0.359 0.537 0.827 0.537 1.296z"></path>
<path d="M13.515 5.387v24.779c0 1.012-0.821 1.834-1.834 1.834s-1.834-0.821-1.834-1.834v-24.779c0-1.012 0.821-1.834 1.834-1.834s1.834 0.821 1.834 1.834z"></path>
</svg>
