<!-- Generated by IcoMoon.io -->
<svg version="1.1" xmlns="http://www.w3.org/2000/svg" width="44" height="32" viewBox="0 0 44 32">
<title>arrow-right</title>
<path d="M27.829 32c-0.643 0-1.285-0.244-1.776-0.736-0.981-0.981-0.981-2.57 0-3.551l11.714-11.713-11.714-11.713c-0.981-0.982-0.981-2.57 0-3.551 0.981-0.982 2.57-0.982 3.551 0l13.49 13.489c0.471 0.471 0.736 1.11 0.736 1.776s-0.265 1.305-0.736 1.776l-13.49 13.489c-0.491 0.492-1.133 0.736-1.776 0.736z"></path>
<path d="M36.451 18.511h-33.94c-1.388 0-2.511-1.125-2.511-2.511s1.124-2.511 2.511-2.511h33.94c1.386 0 2.511 1.125 2.511 2.511 0 1.388-1.125 2.511-2.511 2.511z"></path>
</svg>
