<!-- Generated by IcoMoon.io -->
<svg version="1.1" xmlns="http://www.w3.org/2000/svg" width="23" height="32" viewBox="0 0 23 32">
<title>arrow-down</title>
<path d="M0 20.318c0-0.469 0.178-0.938 0.537-1.296 0.716-0.716 1.877-0.716 2.593 0l8.551 8.553 8.553-8.553c0.716-0.716 1.877-0.716 2.593 0s0.716 1.877 0 2.593l-9.848 9.849c-0.344 0.344-0.81 0.537-1.297 0.537-0.485 0-0.952-0.193-1.295-0.537l-9.849-9.849c-0.358-0.358-0.536-0.827-0.536-1.296z"></path>
<path d="M9.848 26.614v-24.78c0-1.012 0.821-1.834 1.834-1.834s1.834 0.821 1.834 1.834v24.78c0 1.012-0.821 1.834-1.834 1.834s-1.834-0.821-1.834-1.834z"></path>
</svg>
