<!-- Generated by IcoMoon.io -->
<svg version="1.1" xmlns="http://www.w3.org/2000/svg" width="32" height="32" viewBox="0 0 32 32">
<title>bubble-pourcent</title>
<path d="M12.355 11.968c-0.579-0.581-1.51-0.581-2.083 0-0.579 0.579-0.579 1.51 0 2.083s1.512 0.573 2.085 0c0.577-0.579 0.577-1.512-0.002-2.083zM19.652 17.952c-0.579 0.573-0.573 1.51 0 2.083 0.575 0.579 1.512 0.579 2.085 0 0.579-0.573 0.579-1.51 0-2.083s-1.51-0.573-2.085 0zM27.323 4.684c-6.25-6.244-16.387-6.244-22.637 0-6.012 6.017-6.24 15.631-0.673 21.916l0.16 0.133c-0.605 1.305-1.643 2.915-3.296 3.728-0.546 0.264-0.42 1.077 0.179 1.171 1.805 0.278 4.395-0.035 6.806-1.86l0.033 0.028c6.133 3.606 14.158 2.776 19.422-2.491 6.25-6.244 6.25-16.376 0.007-22.626zM7.761 13.006c0-1.958 1.598-3.556 3.556-3.556s3.556 1.598 3.556 3.556-1.598 3.554-3.556 3.554c-1.965 0-3.549-1.591-3.556-3.554zM12.003 22.185c-0.306 0.365-0.852 0.417-1.217 0.114-0.365-0.308-0.42-0.855-0.114-1.22l9.334-11.238c0.306-0.367 0.852-0.42 1.22-0.114 0.365 0.306 0.417 0.852 0.114 1.217l-9.336 11.24zM20.692 22.55c-1.958 0-3.556-1.598-3.556-3.554 0-1.958 1.598-3.556 3.556-3.556s3.556 1.598 3.556 3.556c0 1.956-1.593 3.554-3.556 3.554z"></path>
</svg>
