<!-- Generated by IcoMoon.io -->
<svg version="1.1" xmlns="http://www.w3.org/2000/svg" width="45" height="32" viewBox="0 0 45 32">
<title>card-portal</title>
<path d="M39.726 31.999h-34.581c-2.837 0-5.145-2.308-5.145-5.145v-21.71c0-2.837 2.308-5.145 5.145-5.145h34.581c2.837 0 5.145 2.308 5.145 5.145v21.71c-0.001 2.836-2.308 5.144-5.145 5.144zM5.145 2.731c-1.331 0-2.413 1.083-2.413 2.413v21.71c0 1.33 1.082 2.414 2.413 2.414h34.581c1.33 0 2.413-1.083 2.413-2.414v-21.71c0-1.33-1.083-2.413-2.413-2.413h-34.581z"></path>
<path d="M26.131 9.906v0c0-0.789 0.638-1.428 1.428-1.428h8.978c0.788 0 1.428 0.639 1.428 1.428s-0.639 1.428-1.428 1.428h-8.978c-0.789-0.001-1.428-0.64-1.428-1.428z"></path>
<path d="M26.131 14.458v0c0-0.789 0.638-1.428 1.428-1.428h4.484c0.789 0 1.429 0.639 1.429 1.428s-0.639 1.428-1.429 1.428h-4.484c-0.789 0-1.428-0.64-1.428-1.428z"></path>
<path d="M19.017 10.453c0 2.163-1.754 3.916-3.916 3.916s-3.917-1.754-3.917-3.916c0-2.163 1.754-3.916 3.917-3.916s3.916 1.753 3.916 3.916z"></path>
<path d="M21.558 22.035c0 2.031-2.891 3.612-6.457 3.612s-6.458-1.947-6.458-3.612c0-3.566 2.891-6.458 6.458-6.458s6.457 2.891 6.457 6.458z"></path>
</svg>
