<!-- Generated by IcoMoon.io -->
<svg version="1.1" xmlns="http://www.w3.org/2000/svg" width="32" height="32" viewBox="0 0 32 32">
<title>cercle-fr</title>
<path fill="#030104" d="M15.996 32c-8.703-0.001-15.878-7.082-15.995-15.785-0.117-8.822 6.963-16.095 15.785-16.214l0.218-0.001c8.704 0 15.879 7.081 15.995 15.785 0.117 8.822-6.964 16.095-15.785 16.213l-0.217 0.002zM16.003 2.192l-0.188 0.001c-7.613 0.102-13.724 6.379-13.622 13.993 0.101 7.511 6.293 13.621 13.803 13.622l0.188-0.002c7.613-0.102 13.723-6.379 13.622-13.992-0.1-7.511-6.293-13.622-13.803-13.622z"></path>
<path fill="#000" d="M16.655 16.575h-4.469v4.616h-2.328v-11.298h7.356v1.885h-5.028v2.917h4.469v1.878z"></path>
<path fill="#000" d="M22.933 14.899c-0.305-0.042-0.574-0.062-0.807-0.062-0.848 0-1.404 0.287-1.668 0.861v5.493h-2.243v-8.395h2.118l0.062 1.001c0.45-0.771 1.073-1.156 1.87-1.156 0.248 0 0.481 0.034 0.698 0.101l-0.030 2.157z"></path>
</svg>
