<!-- Generated by IcoMoon.io -->
<svg version="1.1" xmlns="http://www.w3.org/2000/svg" width="32" height="32" viewBox="0 0 32 32">
<title>cercle-en</title>
<path fill="#030104" d="M15.996 32c-8.703-0.001-15.878-7.082-15.995-15.785-0.117-8.822 6.963-16.095 15.785-16.214l0.218-0.001c8.704 0 15.879 7.081 15.995 15.785 0.117 8.822-6.964 16.095-15.785 16.213l-0.217 0.002zM16.003 2.192l-0.188 0.001c-7.613 0.102-13.724 6.379-13.622 13.993 0.101 7.511 6.293 13.621 13.803 13.622l0.188-0.002c7.613-0.102 13.723-6.379 13.622-13.992-0.1-7.511-6.293-13.622-13.803-13.622z"></path>
<path fill="#000" d="M14.887 15.747h-4.469v3.026h5.245v1.87h-7.573v-11.297h7.557v1.885h-5.23v2.693h4.469v1.823z"></path>
<path fill="#000" d="M18.945 12.248l0.070 0.97c0.6-0.75 1.404-1.125 2.413-1.125 0.889 0 1.552 0.261 1.986 0.784s0.656 1.304 0.667 2.343v5.424h-2.242v-5.369c0-0.476-0.103-0.821-0.31-1.036s-0.551-0.322-1.032-0.322c-0.631 0-1.105 0.269-1.42 0.807v5.92h-2.242v-8.395h2.111z"></path>
</svg>
