<!-- Generated by IcoMoon.io -->
<svg version="1.1" xmlns="http://www.w3.org/2000/svg" width="36" height="32" viewBox="0 0 36 32">
<title>check</title>
<path d="M12.987 28.489l19.657-27.886c0.804-0.804 2.106-0.803 2.91 0 0.801 0.802 0.802 2.105 0 2.909l-19.659 27.886c-0.802 0.803-2.105 0.803-2.909 0-0.803-0.802-0.803-2.105 0-2.909z"></path>
<path d="M12.987 31.397l-12.385-12.385c-0.804-0.803-0.803-2.106 0-2.91 0.802-0.802 2.105-0.803 2.909 0l12.385 12.386c0.803 0.801 0.803 2.105 0 2.908-0.802 0.804-2.105 0.804-2.909 0.001z"></path>
</svg>
