<!-- Generated by IcoMoon.io -->
<svg version="1.1" xmlns="http://www.w3.org/2000/svg" width="32" height="32" viewBox="0 0 32 32">
<title>circle</title>
<path d="M22.546 15.994c0 3.619-2.933 6.552-6.552 6.552s-6.552-2.933-6.552-6.552c0-3.619 2.933-6.552 6.552-6.552s6.552 2.933 6.552 6.552z"></path>
<path d="M15.994 32c-8.817 0-15.994-7.176-15.994-16.006 0-8.817 7.176-15.994 15.994-15.994s15.994 7.176 15.994 15.994c0 8.83-7.176 16.006-15.994 16.006zM15.994 1.225c-8.144 0-14.769 6.625-14.769 14.769 0 8.156 6.638 14.781 14.781 14.781s14.769-6.638 14.769-14.781c-0.012-8.144-6.638-14.769-14.781-14.769z"></path>
</svg>
