<!-- Generated by IcoMoon.io -->
<svg version="1.1" xmlns="http://www.w3.org/2000/svg" width="32" height="32" viewBox="0 0 32 32">
<title>close</title>
<path d="M29.702 32c-0.589 0-1.175-0.223-1.624-0.673l-27.406-27.403c-0.897-0.898-0.897-2.352 0-3.25 0.898-0.897 2.352-0.897 3.25 0l27.406 27.405c0.896 0.897 0.896 2.352 0 3.249-0.45 0.45-1.037 0.673-1.626 0.673z"></path>
<path d="M2.298 32c-0.588 0-1.175-0.223-1.624-0.673-0.897-0.897-0.897-2.352 0-3.249l27.403-27.405c0.898-0.897 2.352-0.897 3.25 0 0.897 0.898 0.897 2.352 0 3.25l-27.405 27.405c-0.45 0.449-1.036 0.672-1.624 0.672z"></path>
</svg>
