<!-- Generated by IcoMoon.io -->
<svg version="1.1" xmlns="http://www.w3.org/2000/svg" width="33" height="32" viewBox="0 0 33 32">
<title>diagnostic</title>
<path d="M26.583 11.049h-4.305v4.951h-4.951v4.305h4.951v4.951h4.305v-4.951h4.951v-4.305h-4.951z"></path>
<path d="M15.175 13.847h4.951v-4.951h8.61v4.951h2.497c0.895-1.435 1.414-3.062 1.414-4.845 0-4.971-4.029-9.002-8.999-9.002-3.020 0-5.692 1.487-7.324 3.77-1.632-2.283-4.304-3.771-7.324-3.771-4.97 0-8.999 4.030-8.999 9.001 0 2.161 0.761 4.144 2.030 5.695l14.293 17.304 3.803-4.604v-4.939h-4.951v-8.61z"></path>
</svg>
