<!-- Generated by IcoMoon.io -->
<svg version="1.1" xmlns="http://www.w3.org/2000/svg" width="23" height="32" viewBox="0 0 23 32">
<title>green</title>
<path d="M15.101 20.287c-1.272-0.736-2.587-0.824-3.64-0.702l2.034-3.525c0.402 1.009 1.115 2.134 2.389 2.87 3.009 1.737 6.193 0.334 6.326 0.275l0.801-0.362-0.118-0.873c-0.021-0.137-0.501-3.419-3.485-5.142-1.27-0.738-2.587-0.826-3.638-0.705l1.232-2.134c1.133-0.212 3.194-0.86 4.334-2.837 1.748-3.030 0.366-6.216 0.307-6.349l-0.357-0.801-0.869 0.124c-0.139 0.019-3.413 0.519-5.148 3.525-1.215 2.105-0.686 4.315-0.355 5.283l-1.167 2.021c-0.423-0.97-1.155-2.065-2.425-2.801-2.988-1.724-6.069-0.5-6.199-0.446l-0.814 0.332 0.086 0.875c0.015 0.147 0.391 3.607 3.4 5.346 1.272 0.734 2.605 0.791 3.68 0.633l-2.036 3.522c-0.421-0.971-1.154-2.065-2.425-2.799-2.988-1.724-6.069-0.5-6.197-0.446l-0.816 0.332 0.086 0.877c0.015 0.147 0.391 3.606 3.4 5.343 1.272 0.736 2.605 0.793 3.68 0.635l-4.894 8.477 2.023 1.167 4.894-8.477c0.4 1.009 1.114 2.134 2.387 2.868 3.011 1.739 6.195 0.334 6.328 0.275l0.801-0.362-0.118-0.871c-0.021-0.139-0.5-3.421-3.485-5.144z"></path>
</svg>
