<!-- Generated by IcoMoon.io -->
<svg version="1.1" xmlns="http://www.w3.org/2000/svg" width="32" height="32" viewBox="0 0 32 32">
<title>innovation</title>
<path d="M30.166 0.488c-1.739-1.007-3.962-0.408-4.965 1.337-0.671 1.165-0.614 2.54 0.005 3.63l-5.457 7.006c-0.84-0.405-1.778-0.636-2.77-0.636-0.19 0-0.378 0.012-0.565 0.028l-1.252-3.98c1.051-0.888 1.563-2.332 1.177-3.751-0.527-1.945-2.525-3.094-4.463-2.566-1.938 0.529-3.081 2.536-2.554 4.482 0.41 1.515 1.714 2.534 3.184 2.667l1.256 3.99c-1.92 1.119-3.216 3.198-3.216 5.587 0 0.249 0.016 0.488 0.043 0.728l-4.255 1.465c-1.035-1.16-2.728-1.579-4.212-0.895-1.826 0.842-2.627 3.008-1.788 4.843 0.836 1.833 2.996 2.637 4.82 1.795 1.263-0.581 2.019-1.803 2.097-3.104l4.246-1.463c1.131 1.854 3.159 3.094 5.482 3.094 1.101 0 2.133-0.277 3.037-0.767l2.33 2.721c-0.602 1.195-0.54 2.676 0.311 3.825 1.199 1.618 3.475 1.955 5.086 0.753 1.613-1.204 1.948-3.49 0.751-5.109-0.954-1.289-2.589-1.747-4.031-1.282l-2.341-2.735c0.806-1.078 1.291-2.413 1.291-3.868 0-1.559-0.552-2.991-1.467-4.108l5.463-7.015c1.552 0.421 3.25-0.222 4.092-1.687 1.003-1.746 0.405-3.98-1.334-4.987z"></path>
</svg>
