<!-- Generated by IcoMoon.io -->
<svg version="1.1" xmlns="http://www.w3.org/2000/svg" width="32" height="32" viewBox="0 0 32 32">
<title>instagram</title>
<path d="M31.159 5.519c-0.41-1.053-0.956-1.944-1.845-2.834s-1.783-1.435-2.835-1.845c-1.016-0.396-2.181-0.666-3.884-0.744-1.705-0.080-2.251-0.097-6.595-0.097s-4.888 0.017-6.595 0.097c-1.703 0.078-2.867 0.348-3.884 0.744-1.053 0.408-1.944 0.956-2.835 1.845-0.889 0.888-1.435 1.781-1.845 2.834-0.394 1.018-0.664 2.181-0.744 3.884-0.078 1.705-0.095 2.251-0.095 6.595 0 4.346 0.017 4.89 0.095 6.597 0.080 1.701 0.35 2.867 0.744 3.884 0.41 1.051 0.956 1.942 1.845 2.834 0.889 0.889 1.783 1.435 2.835 1.845 1.016 0.396 2.181 0.666 3.884 0.744 1.707 0.078 2.251 0.097 6.595 0.097s4.89-0.019 6.595-0.097c1.703-0.078 2.868-0.348 3.884-0.744 1.053-0.41 1.946-0.956 2.835-1.845 0.889-0.891 1.435-1.783 1.845-2.834 0.394-1.018 0.666-2.183 0.744-3.884 0.078-1.707 0.095-2.251 0.095-6.597 0-4.344-0.017-4.89-0.095-6.595-0.078-1.703-0.348-2.867-0.744-3.884zM29.023 22.464c-0.070 1.561-0.33 2.408-0.55 2.971-0.289 0.748-0.637 1.28-1.196 1.839s-1.093 0.907-1.839 1.196c-0.563 0.218-1.412 0.48-2.969 0.55-1.688 0.078-2.195 0.095-6.467 0.095s-4.778-0.017-6.465-0.095c-1.559-0.070-2.408-0.332-2.971-0.55-0.748-0.289-1.28-0.637-1.839-1.196-0.561-0.559-0.907-1.093-1.196-1.839-0.219-0.563-0.48-1.412-0.552-2.971-0.076-1.686-0.093-2.193-0.093-6.465s0.017-4.778 0.093-6.465c0.070-1.559 0.33-2.406 0.55-2.969 0.289-0.748 0.635-1.28 1.196-1.839 0.559-0.561 1.093-0.909 1.839-1.198 0.563-0.219 1.412-0.482 2.971-0.552 1.688-0.078 2.193-0.093 6.465-0.093s4.778 0.017 6.467 0.093c1.559 0.070 2.406 0.33 2.969 0.552 0.748 0.289 1.28 0.637 1.839 1.196s0.907 1.093 1.196 1.839c0.219 0.563 0.48 1.412 0.55 2.969 0.078 1.688 0.095 2.193 0.095 6.465s-0.016 4.781-0.093 6.467z"></path>
<path d="M15.999 7.784c-4.539 0-8.215 3.678-8.215 8.215s3.678 8.217 8.215 8.217c4.537 0 8.217-3.68 8.217-8.217s-3.678-8.215-8.217-8.215zM15.999 21.334c-2.946 0-5.333-2.387-5.333-5.335 0-2.946 2.387-5.333 5.333-5.333s5.333 2.387 5.333 5.333c0 2.946-2.387 5.335-5.333 5.335z"></path>
<path d="M24.54 5.539c-1.060 0-1.919 0.86-1.919 1.921s0.858 1.919 1.919 1.919c1.058 0 1.919-0.858 1.919-1.919s-0.86-1.921-1.919-1.921z"></path>
</svg>
