<!-- Generated by IcoMoon.io -->
<svg version="1.1" xmlns="http://www.w3.org/2000/svg" width="33" height="32" viewBox="0 0 33 32">
<title>linkedin</title>
<path d="M33.477 32v-12.378c0-6.635-3.544-9.716-8.264-9.716-3.808 0-5.512 2.090-6.468 3.563v0.069h-0.046c0.019-0.019 0.035-0.046 0.049-0.069v-3.056h-7.176c0.093 2.023 0 21.587 0 21.587h7.174v-12.059c0-0.644 0.046-1.285 0.238-1.748 0.521-1.287 1.701-2.627 3.683-2.627 2.597 0 3.637 1.984 3.637 4.885v11.549h7.174z"></path>
<path d="M4.056 0c-2.452 0-4.056 1.616-4.056 3.732 0 2.072 1.556 3.732 3.963 3.732h0.049c2.502 0 4.058-1.662 4.058-3.732-0.044-2.116-1.558-3.732-4.014-3.732z"></path>
<path d="M0.421 10.413h7.179v21.587h-7.179v-21.587z"></path>
</svg>
