<!-- Generated by IcoMoon.io -->
<svg version="1.1" xmlns="http://www.w3.org/2000/svg" width="32" height="32" viewBox="0 0 32 32">
<title>login</title>
<path fill="#030104" d="M15.996 32c-8.704 0-15.878-7.081-15.995-15.784-0.118-8.822 6.962-16.096 15.784-16.215l0.218-0.001c8.704 0 15.878 7.081 15.995 15.785 0.117 8.822-6.964 16.095-15.784 16.213l-0.218 0.002zM16.004 2.445l-0.185 0.001c-7.474 0.101-13.472 6.263-13.372 13.737 0.099 7.374 6.177 13.372 13.55 13.372l0.185-0.002c7.473-0.099 13.472-6.262 13.372-13.736-0.099-7.374-6.177-13.372-13.55-13.372z"></path>
<path fill="#000" d="M16 9.249c1.616 0 2.852 1.236 2.852 2.852s-1.236 2.852-2.852 2.852-2.852-1.235-2.852-2.852c0-1.616 1.236-2.852 2.852-2.852zM16 22.75c-2.377 0-4.468-1.237-5.705-3.042 0-1.902 3.803-2.948 5.705-2.948s5.705 1.046 5.705 2.948c-1.236 1.805-3.327 3.042-5.705 3.042z"></path>
</svg>
