<!-- Generated by IcoMoon.io -->
<svg version="1.1" xmlns="http://www.w3.org/2000/svg" width="32" height="32" viewBox="0 0 32 32">
<title>phone</title>
<path d="M10.707 17.768c-2.752-2.886-3.175-4.773-3.2-5.367 0-0.272 0.215-0.619 0.645-1.042s0.898-0.823 1.405-1.201c0.507-0.376 0.974-0.792 1.404-1.246 0.431-0.452 0.645-0.831 0.645-1.132 0-0.211-0.053-0.427-0.158-0.645s-4.124-6.831-4.259-6.966c-0.304-0.304-1.479-0.162-2.073 0.158-4.788 2.586-5.185 6.066-5.11 7.454 0.073 1.302 0.834 7.686 6.586 14.101l3.594 3.459c8.129 6.946 13.659 6.658 14.040 6.658 1.388 0 5.639-0.76 7.452-5.108 0.26-0.623 0.502-1.721 0.16-2.073-0.128-0.13-6.748-4.004-6.968-4.11s-0.434-0.158-0.645-0.158c-0.302 0-0.68 0.215-1.134 0.645-0.453 0.431-1.874 2.378-2.298 2.809-0.422 0.43-0.77 0.644-1.042 0.644-0.134 0-0.305-0.037-0.509-0.112-0.173-0.064-1.713-0.856-4.832-3.421l-3.706-3.346z"></path>
</svg>
