<!-- Generated by IcoMoon.io -->
<svg version="1.1" xmlns="http://www.w3.org/2000/svg" width="32" height="32" viewBox="0 0 32 32">
<title>repair</title>
<path d="M13.711 12.797l-12.986 12.986c-0.483 0.483-0.725 1.062-0.725 1.735 0 0.687 0.242 1.259 0.725 1.717l2.021 2.060c0.496 0.47 1.074 0.705 1.735 0.705 0.674 0 1.246-0.235 1.716-0.705l13.005-13.006c-1.245-0.496-2.348-1.224-3.308-2.184s-1.687-2.063-2.183-3.309zM6.56 27.156c-0.242 0.241-0.528 0.362-0.858 0.362s-0.617-0.121-0.858-0.362c-0.242-0.242-0.362-0.528-0.362-0.858s0.121-0.616 0.362-0.858c0.242-0.241 0.527-0.362 0.858-0.362s0.617 0.121 0.858 0.362c0.241 0.242 0.362 0.528 0.362 0.858s-0.121 0.617-0.362 0.858z"></path>
<path d="M31.8 8.849c-0.108-0.127-0.257-0.191-0.448-0.191-0.114 0-0.562 0.226-1.344 0.677s-1.643 0.966-2.584 1.545c-0.941 0.579-1.443 0.887-1.507 0.925l-3.681-2.041v-4.272l5.587-3.223c0.203-0.14 0.305-0.318 0.305-0.534s-0.102-0.394-0.305-0.534c-0.56-0.382-1.243-0.677-2.050-0.887s-1.58-0.315-2.317-0.315c-2.352 0-4.364 0.836-6.035 2.508s-2.508 3.684-2.508 6.035c0 2.352 0.836 4.364 2.508 6.036s3.683 2.508 6.035 2.508c1.793 0 3.436-0.531 4.93-1.592s2.539-2.444 3.137-4.148c0.292-0.852 0.438-1.526 0.438-2.021 0-0.19-0.054-0.349-0.162-0.476z"></path>
</svg>
