<!-- Generated by IcoMoon.io -->
<svg version="1.1" xmlns="http://www.w3.org/2000/svg" width="39" height="32" viewBox="0 0 39 32">
<title>sales</title>
<path d="M18.19 16.708h2.684v1.392h-2.684v-1.392z"></path>
<path d="M36.742 16.708h-13.548v3.713h-7.326v-3.713h-15.869v15.292h39.063v-15.292z"></path>
<path d="M18.19 12.996h2.684v1.392h-2.684v-1.392z"></path>
<path d="M25.617 5.724v-1.869c0-2.126-1.729-3.855-3.855-3.855h-4.461c-2.126 0-3.855 1.729-3.855 3.855v1.869h-13.446v8.663l15.869-0v-3.713h7.326v3.713h15.869v-8.663h-13.446zM23.297 5.724h-7.531v-1.869h0c0-0.846 0.688-1.535 1.535-1.535h4.461c0.846 0 1.534 0.688 1.534 1.535v1.869z"></path>
</svg>
