<!-- Generated by IcoMoon.io -->
<svg version="1.1" xmlns="http://www.w3.org/2000/svg" width="32" height="32" viewBox="0 0 32 32">
<title>search</title>
<path d="M31.458 31.458v0c-0.724 0.723-1.895 0.723-2.618 0l-8.482-8.482c-0.723-0.723-0.723-1.894 0-2.618s1.895-0.723 2.619 0l8.481 8.482c0.722 0.723 0.722 1.894 0 2.618z"></path>
<path d="M13.020 26.041c-7.18 0-13.020-5.841-13.020-13.020s5.84-13.020 13.020-13.020 13.020 5.84 13.020 13.020c0 7.179-5.84 13.020-13.020 13.020zM13.020 3.541c-5.227 0-9.479 4.252-9.479 9.479s4.252 9.479 9.479 9.479 9.48-4.252 9.48-9.479c0-5.228-4.253-9.479-9.48-9.479z"></path>
</svg>
