<!-- Generated by IcoMoon.io -->
<svg version="1.1" xmlns="http://www.w3.org/2000/svg" width="32" height="32" viewBox="0 0 32 32">
<title>share</title>
<path d="M6.864 22.864c-3.784 0-6.864-3.079-6.864-6.864s3.080-6.864 6.864-6.864 6.864 3.079 6.864 6.864c0 3.785-3.079 6.864-6.864 6.864zM6.864 11.492c-2.486 0-4.509 2.023-4.509 4.509s2.023 4.509 4.509 4.509c2.486 0 4.509-2.023 4.509-4.509s-2.023-4.509-4.509-4.509z"></path>
<path d="M25.234 13.728c-3.785 0-6.864-3.079-6.864-6.864s3.080-6.864 6.864-6.864c3.784 0 6.864 3.079 6.864 6.864s-3.080 6.864-6.864 6.864zM25.234 2.355c-2.487 0-4.509 2.023-4.509 4.509s2.022 4.509 4.509 4.509c2.486 0 4.508-2.023 4.508-4.509s-2.022-4.509-4.508-4.509z"></path>
<path d="M19.557 8.195l1.033 2.117-8.222 4.014-1.033-2.117 8.222-4.014z"></path>
<path d="M25.234 32.001c-3.785 0-6.864-3.081-6.864-6.864 0-3.785 3.080-6.864 6.864-6.864s6.864 3.079 6.864 6.864c0 3.784-3.080 6.864-6.864 6.864zM25.234 20.628c-2.487 0-4.509 2.023-4.509 4.509s2.022 4.509 4.509 4.509c2.486 0 4.508-2.023 4.508-4.509s-2.022-4.509-4.508-4.509z"></path>
<path d="M12.369 17.674l8.221 4.017-1.033 2.115-8.221-4.017 1.033-2.115z"></path>
</svg>
