<!-- Generated by IcoMoon.io -->
<svg version="1.1" xmlns="http://www.w3.org/2000/svg" width="51" height="32" viewBox="0 0 51 32">
<title>social</title>
<path d="M34.709 13.714c3.934 0 6.942-2.971 6.942-6.855 0-3.887-3.008-6.858-6.942-6.858s-6.942 2.971-6.942 6.858c0 3.884 3.008 6.855 6.942 6.855zM16.197 13.714c3.934 0 6.942-2.971 6.942-6.855 0-3.887-3.008-6.858-6.942-6.858s-6.942 2.971-6.942 6.858c0 3.884 3.008 6.855 6.942 6.855zM16.197 18.283c-5.322 0-16.197 2.746-16.197 8.003v5.714h32.395v-5.714c0-5.257-10.875-8.003-16.197-8.003zM34.709 18.283c-0.694 0-1.388 0-2.314 0.228 2.777 1.83 4.628 4.575 4.628 7.775v5.714h13.884v-5.714c0-5.257-10.875-8.003-16.197-8.003z"></path>
</svg>
