<!-- Generated by IcoMoon.io -->
<svg version="1.1" xmlns="http://www.w3.org/2000/svg" width="32" height="32" viewBox="0 0 32 32">
<title>support</title>
<path d="M15.793 23.94l-0.072-0.002c-1.11-0.033-1.891-0.85-1.861-1.943 0.031-1.074 0.832-1.854 1.905-1.854l0.064 0.001c1.14 0.034 1.914 0.843 1.882 1.967-0.032 1.077-0.819 1.83-1.918 1.83zM20.46 14.679c-0.261 0.371-0.834 0.831-1.557 1.394l-0.797 0.549c-0.437 0.34-0.7 0.659-0.799 0.973-0.079 0.249-0.117 0.313-0.123 0.817l-0.002 0.128h-3.039l0.009-0.257c0.037-1.058 0.063-1.68 0.501-2.192 0.687-0.808 2.204-1.784 2.268-1.825 0.218-0.163 0.4-0.35 0.537-0.548 0.319-0.44 0.46-0.786 0.46-1.127 0-0.472-0.139-0.909-0.416-1.297-0.266-0.375-0.773-0.565-1.505-0.565-0.725 0-1.222 0.23-1.52 0.702-0.306 0.486-0.46 0.996-0.46 1.517v0.13h-3.134l0.006-0.135c0.081-1.92 0.766-3.302 2.036-4.109 0.798-0.513 1.79-0.773 2.949-0.773 1.515 0 2.796 0.368 3.803 1.094 1.021 0.737 1.539 1.839 1.539 3.278 0 0.804-0.254 1.56-0.755 2.247z"></path>
<path d="M15.996 32c-8.704 0-15.878-7.081-15.995-15.784-0.118-8.822 6.962-16.096 15.784-16.215l0.218-0.001c8.704 0 15.878 7.081 15.995 15.785 0.117 8.822-6.964 16.095-15.784 16.213l-0.218 0.002zM16.004 2.445l-0.185 0.001c-7.474 0.101-13.472 6.263-13.372 13.737 0.099 7.374 6.177 13.372 13.55 13.372l0.185-0.002c7.473-0.099 13.472-6.262 13.372-13.736-0.099-7.374-6.177-13.372-13.55-13.372z"></path>
</svg>
