<!-- Generated by IcoMoon.io -->
<svg version="1.1" xmlns="http://www.w3.org/2000/svg" width="48" height="32" viewBox="0 0 48 32">
<title>supplier-portal</title>
<path d="M41.257 27.598c0 2.431-1.971 4.402-4.402 4.402s-4.402-1.97-4.402-4.402c0-2.432 1.97-4.402 4.402-4.402s4.402 1.97 4.402 4.402z"></path>
<path d="M15.507 27.598c0 2.431-1.971 4.402-4.402 4.402s-4.402-1.97-4.402-4.402c0-2.432 1.97-4.402 4.402-4.402s4.402 1.97 4.402 4.402z"></path>
<path d="M44.536 7.647h-12.172v-7.647h-32.364v27.598h4.409c0-3.693 3.004-6.696 6.697-6.696s6.696 3.003 6.696 6.696h12.356c0-3.693 3.005-6.696 6.697-6.696s6.697 3.003 6.697 6.696h4.427v-12.652l-3.442-7.299zM36.76 14.946v-4.697h6.62l1.83 4.697h-8.45z"></path>
</svg>
