<svg aria-hidden="true" style="position: absolute; width: 0; height: 0; overflow: hidden;" version="1.1" xmlns="http://www.w3.org/2000/svg" xmlns:xlink="http://www.w3.org/1999/xlink">
<defs>
<symbol id="icon-circle" viewBox="0 0 32 32">
<title>circle</title>
<path d="M22.546 15.994c0 3.619-2.933 6.552-6.552 6.552s-6.552-2.933-6.552-6.552c0-3.619 2.933-6.552 6.552-6.552s6.552 2.933 6.552 6.552z"></path>
<path d="M15.994 32c-8.817 0-15.994-7.176-15.994-16.006 0-8.817 7.176-15.994 15.994-15.994s15.994 7.176 15.994 15.994c0 8.83-7.176 16.006-15.994 16.006zM15.994 1.225c-8.144 0-14.769 6.625-14.769 14.769 0 8.156 6.638 14.781 14.781 14.781s14.769-6.638 14.769-14.781c-0.012-8.144-6.638-14.769-14.781-14.769z"></path>
</symbol>
<symbol id="icon-plus" viewBox="0 0 32 32">
<title>plus</title>
<path d="M0 15.994c0-8.837 7.156-15.994 15.994-15.994s15.994 7.156 15.994 15.994-7.144 16.006-15.994 16.006-15.994-7.156-15.994-16.006z"></path>
<path d="M9.487 15.039h13.039v1.91h-13.039v-1.91z"></path>
<path d="M15.039 9.487h1.91v13.039h-1.91v-13.039z"></path>
</symbol>
<symbol id="icon-sales" viewBox="0 0 39 32">
<title>sales</title>
<path d="M18.19 16.708h2.684v1.392h-2.684v-1.392z"></path>
<path d="M36.742 16.708h-13.548v3.713h-7.326v-3.713h-15.869v15.292h39.063v-15.292z"></path>
<path d="M18.19 12.996h2.684v1.392h-2.684v-1.392z"></path>
<path d="M25.617 5.724v-1.869c0-2.126-1.729-3.855-3.855-3.855h-4.461c-2.126 0-3.855 1.729-3.855 3.855v1.869h-13.446v8.663l15.869-0v-3.713h7.326v3.713h15.869v-8.663h-13.446zM23.297 5.724h-7.531v-1.869h0c0-0.846 0.688-1.535 1.535-1.535h4.461c0.846 0 1.534 0.688 1.534 1.535v1.869z"></path>
</symbol>
<symbol id="icon-location" viewBox="0 0 23 32">
<title>location</title>
<path d="M23.185 11.593c0-6.403-5.19-11.593-11.592-11.593s-11.592 5.19-11.592 11.593c0 1.965 0.49 3.816 1.352 5.437l-0.009 0.010 10.249 14.96 10.249-14.96-0.010-0.010c0.863-1.621 1.353-3.472 1.353-5.437zM11.592 17.39c-3.002 0-5.436-2.434-5.436-5.437s2.434-5.436 5.436-5.436c3.001 0 5.436 2.434 5.436 5.436s-2.434 5.437-5.436 5.437z"></path>
</symbol>
<symbol id="icon-login" viewBox="0 0 32 32">
<title>login</title>
<path d="M15.996 32c-8.704 0-15.878-7.081-15.995-15.784-0.118-8.822 6.962-16.096 15.784-16.215l0.218-0.001c8.704 0 15.878 7.081 15.995 15.785 0.117 8.822-6.964 16.095-15.784 16.213l-0.218 0.002zM16.004 2.445l-0.185 0.001c-7.474 0.101-13.472 6.263-13.372 13.737 0.099 7.374 6.177 13.372 13.55 13.372l0.185-0.002c7.473-0.099 13.472-6.262 13.372-13.736-0.099-7.374-6.177-13.372-13.55-13.372z"></path>
<path d="M16 9.249c1.616 0 2.852 1.236 2.852 2.852s-1.236 2.852-2.852 2.852-2.852-1.235-2.852-2.852c0-1.616 1.236-2.852 2.852-2.852zM16 22.75c-2.377 0-4.468-1.237-5.705-3.042 0-1.902 3.803-2.948 5.705-2.948s5.705 1.046 5.705 2.948c-1.236 1.805-3.327 3.042-5.705 3.042z"></path>
</symbol>
<symbol id="icon-montreal" viewBox="0 0 12 32">
<title>montreal</title>
<path d="M11.823 17.148l-1.295-0.71-9.051 12.967v-29.406h-1.477v32h1.477v-0.029z"></path>
</symbol>
<symbol id="icon-moscow" viewBox="0 0 13 32">
<title>moscow</title>
<path d="M12.003 0v29.632l-10.718-12.748-1.033 1.081 11.751 13.979v0.056h1.477v-32z"></path>
</symbol>
<symbol id="icon-pagi-arrow-next" viewBox="0 0 19 32">
<title>pagi-arrow-next</title>
<path d="M2.511 32c-0.643 0-1.284-0.244-1.776-0.735-0.979-0.981-0.979-2.57 0-3.551l11.716-11.715-11.718-11.713c-0.979-0.981-0.979-2.57 0-3.549 0.981-0.983 2.573-0.983 3.553 0l13.489 13.488c0.47 0.47 0.737 1.11 0.737 1.775 0 0.666-0.266 1.306-0.737 1.776l-13.489 13.489c-0.489 0.491-1.132 0.735-1.775 0.735z"></path>
</symbol>
<symbol id="icon-pagi-arrow-prev" viewBox="0 0 19 32">
<title>pagi-arrow-prev</title>
<path d="M16.001 0c0.645 0 1.286 0.244 1.778 0.735 0.979 0.981 0.979 2.57 0 3.551l-11.718 11.716 11.716 11.713c0.979 0.981 0.979 2.568 0 3.549-0.981 0.983-2.573 0.983-3.553 0l-13.489-13.488c-0.47-0.47-0.737-1.112-0.737-1.776 0-0.666 0.266-1.306 0.737-1.776l13.489-13.488c0.491-0.491 1.132-0.737 1.776-0.737z"></path>
</symbol>
<symbol id="icon-parts" viewBox="0 0 49 32">
<title>parts</title>
<path d="M16.633 0v3.215h1.441v2.185h-4.664l-2.709 2.402h-4.27v7.985h-3.215v-4.103h-3.215v11.422h3.215v-4.104h3.215v7.985h6.979l5.653 5.012h19.008v-24.197h-4.268l-2.709-2.402h-4.48v-2.185h1.441v-3.215z"></path>
<path d="M47.596 10.3l-0.468-0.783h-5.843v20.665h5.843l0.468-0.783c0.174-0.291 1.702-3.037 1.702-9.55s-1.528-9.258-1.702-9.55z"></path>
</symbol>
<symbol id="icon-phone" viewBox="0 0 32 32">
<title>phone</title>
<path d="M10.707 17.768c-2.752-2.886-3.175-4.773-3.2-5.367 0-0.272 0.215-0.619 0.645-1.042s0.898-0.823 1.405-1.201c0.507-0.376 0.974-0.792 1.404-1.246 0.431-0.452 0.645-0.831 0.645-1.132 0-0.211-0.053-0.427-0.158-0.645s-4.124-6.831-4.259-6.966c-0.304-0.304-1.479-0.162-2.073 0.158-4.788 2.586-5.185 6.066-5.11 7.454 0.073 1.302 0.834 7.686 6.586 14.101l3.594 3.459c8.129 6.946 13.659 6.658 14.040 6.658 1.388 0 5.639-0.76 7.452-5.108 0.26-0.623 0.502-1.721 0.16-2.073-0.128-0.13-6.748-4.004-6.968-4.11s-0.434-0.158-0.645-0.158c-0.302 0-0.68 0.215-1.134 0.645-0.453 0.431-1.874 2.378-2.298 2.809-0.422 0.43-0.77 0.644-1.042 0.644-0.134 0-0.305-0.037-0.509-0.112-0.173-0.064-1.713-0.856-4.832-3.421l-3.706-3.346z"></path>
</symbol>
<symbol id="icon-plane" viewBox="0 0 33 32">
<title>plane</title>
<path d="M33.346 15.999c0-1.348-1.166-2.526-2.5-2.526h-9.172l-8.336-13.473h-3.334l4.169 13.473h-9.172l-2.5-3.367h-2.502l1.667 5.895-1.667 5.895h2.502l2.5-3.369h9.172l-4.169 13.475h3.336l8.336-13.475h9.172c1.332 0 2.498-1.182 2.498-2.528z"></path>
</symbol>
<symbol id="icon-repair" viewBox="0 0 32 32">
<title>repair</title>
<path d="M13.711 12.797l-12.986 12.986c-0.483 0.483-0.725 1.062-0.725 1.735 0 0.687 0.242 1.259 0.725 1.717l2.021 2.060c0.496 0.47 1.074 0.705 1.735 0.705 0.674 0 1.246-0.235 1.716-0.705l13.005-13.006c-1.245-0.496-2.348-1.224-3.308-2.184s-1.687-2.063-2.183-3.309zM6.56 27.156c-0.242 0.241-0.528 0.362-0.858 0.362s-0.617-0.121-0.858-0.362c-0.242-0.242-0.362-0.528-0.362-0.858s0.121-0.616 0.362-0.858c0.242-0.241 0.527-0.362 0.858-0.362s0.617 0.121 0.858 0.362c0.241 0.242 0.362 0.528 0.362 0.858s-0.121 0.617-0.362 0.858z"></path>
<path d="M31.8 8.849c-0.108-0.127-0.257-0.191-0.448-0.191-0.114 0-0.562 0.226-1.344 0.677s-1.643 0.966-2.584 1.545c-0.941 0.579-1.443 0.887-1.507 0.925l-3.681-2.041v-4.272l5.587-3.223c0.203-0.14 0.305-0.318 0.305-0.534s-0.102-0.394-0.305-0.534c-0.56-0.382-1.243-0.677-2.050-0.887s-1.58-0.315-2.317-0.315c-2.352 0-4.364 0.836-6.035 2.508s-2.508 3.684-2.508 6.035c0 2.352 0.836 4.364 2.508 6.036s3.683 2.508 6.035 2.508c1.793 0 3.436-0.531 4.93-1.592s2.539-2.444 3.137-4.148c0.292-0.852 0.438-1.526 0.438-2.021 0-0.19-0.054-0.349-0.162-0.476z"></path>
</symbol>
<symbol id="icon-search" viewBox="0 0 32 32">
<title>search</title>
<path d="M31.458 31.458v0c-0.724 0.723-1.895 0.723-2.618 0l-8.482-8.482c-0.723-0.723-0.723-1.894 0-2.618s1.895-0.723 2.619 0l8.481 8.482c0.722 0.723 0.722 1.894 0 2.618z"></path>
<path d="M13.020 26.041c-7.18 0-13.020-5.841-13.020-13.020s5.84-13.020 13.020-13.020 13.020 5.84 13.020 13.020c0 7.179-5.84 13.020-13.020 13.020zM13.020 3.541c-5.227 0-9.479 4.252-9.479 9.479s4.252 9.479 9.479 9.479 9.48-4.252 9.48-9.479c0-5.228-4.253-9.479-9.48-9.479z"></path>
</symbol>
<symbol id="icon-share" viewBox="0 0 32 32">
<title>share</title>
<path d="M6.864 22.864c-3.784 0-6.864-3.079-6.864-6.864s3.080-6.864 6.864-6.864 6.864 3.079 6.864 6.864c0 3.785-3.079 6.864-6.864 6.864zM6.864 11.492c-2.486 0-4.509 2.023-4.509 4.509s2.023 4.509 4.509 4.509c2.486 0 4.509-2.023 4.509-4.509s-2.023-4.509-4.509-4.509z"></path>
<path d="M25.234 13.728c-3.785 0-6.864-3.079-6.864-6.864s3.080-6.864 6.864-6.864c3.784 0 6.864 3.079 6.864 6.864s-3.080 6.864-6.864 6.864zM25.234 2.355c-2.487 0-4.509 2.023-4.509 4.509s2.022 4.509 4.509 4.509c2.486 0 4.508-2.023 4.508-4.509s-2.022-4.509-4.508-4.509z"></path>
<path d="M19.557 8.195l1.033 2.117-8.222 4.014-1.033-2.117 8.222-4.014z"></path>
<path d="M25.234 32.001c-3.785 0-6.864-3.081-6.864-6.864 0-3.785 3.080-6.864 6.864-6.864s6.864 3.079 6.864 6.864c0 3.784-3.080 6.864-6.864 6.864zM25.234 20.628c-2.487 0-4.509 2.023-4.509 4.509s2.022 4.509 4.509 4.509c2.486 0 4.508-2.023 4.508-4.509s-2.022-4.509-4.508-4.509z"></path>
<path d="M12.369 17.674l8.221 4.017-1.033 2.115-8.221-4.017 1.033-2.115z"></path>
</symbol>
<symbol id="icon-social" viewBox="0 0 51 32">
<title>social</title>
<path d="M34.709 13.714c3.934 0 6.942-2.971 6.942-6.855 0-3.887-3.008-6.858-6.942-6.858s-6.942 2.971-6.942 6.858c0 3.884 3.008 6.855 6.942 6.855zM16.197 13.714c3.934 0 6.942-2.971 6.942-6.855 0-3.887-3.008-6.858-6.942-6.858s-6.942 2.971-6.942 6.858c0 3.884 3.008 6.855 6.942 6.855zM16.197 18.283c-5.322 0-16.197 2.746-16.197 8.003v5.714h32.395v-5.714c0-5.257-10.875-8.003-16.197-8.003zM34.709 18.283c-0.694 0-1.388 0-2.314 0.228 2.777 1.83 4.628 4.575 4.628 7.775v5.714h13.884v-5.714c0-5.257-10.875-8.003-16.197-8.003z"></path>
</symbol>
<symbol id="icon-supplier-portal" viewBox="0 0 48 32">
<title>supplier-portal</title>
<path d="M41.257 27.598c0 2.431-1.971 4.402-4.402 4.402s-4.402-1.97-4.402-4.402c0-2.432 1.97-4.402 4.402-4.402s4.402 1.97 4.402 4.402z"></path>
<path d="M15.507 27.598c0 2.431-1.971 4.402-4.402 4.402s-4.402-1.97-4.402-4.402c0-2.432 1.97-4.402 4.402-4.402s4.402 1.97 4.402 4.402z"></path>
<path d="M44.536 7.647h-12.172v-7.647h-32.364v27.598h4.409c0-3.693 3.004-6.696 6.697-6.696s6.696 3.003 6.696 6.696h12.356c0-3.693 3.005-6.696 6.697-6.696s6.697 3.003 6.697 6.696h4.427v-12.652l-3.442-7.299zM36.76 14.946v-4.697h6.62l1.83 4.697h-8.45z"></path>
</symbol>
<symbol id="icon-support" viewBox="0 0 32 32">
<title>support</title>
<path d="M15.793 23.94l-0.072-0.002c-1.11-0.033-1.891-0.85-1.861-1.943 0.031-1.074 0.832-1.854 1.905-1.854l0.064 0.001c1.14 0.034 1.914 0.843 1.882 1.967-0.032 1.077-0.819 1.83-1.918 1.83zM20.46 14.679c-0.261 0.371-0.834 0.831-1.557 1.394l-0.797 0.549c-0.437 0.34-0.7 0.659-0.799 0.973-0.079 0.249-0.117 0.313-0.123 0.817l-0.002 0.128h-3.039l0.009-0.257c0.037-1.058 0.063-1.68 0.501-2.192 0.687-0.808 2.204-1.784 2.268-1.825 0.218-0.163 0.4-0.35 0.537-0.548 0.319-0.44 0.46-0.786 0.46-1.127 0-0.472-0.139-0.909-0.416-1.297-0.266-0.375-0.773-0.565-1.505-0.565-0.725 0-1.222 0.23-1.52 0.702-0.306 0.486-0.46 0.996-0.46 1.517v0.13h-3.134l0.006-0.135c0.081-1.92 0.766-3.302 2.036-4.109 0.798-0.513 1.79-0.773 2.949-0.773 1.515 0 2.796 0.368 3.803 1.094 1.021 0.737 1.539 1.839 1.539 3.278 0 0.804-0.254 1.56-0.755 2.247z"></path>
<path d="M15.996 32c-8.704 0-15.878-7.081-15.995-15.784-0.118-8.822 6.962-16.096 15.784-16.215l0.218-0.001c8.704 0 15.878 7.081 15.995 15.785 0.117 8.822-6.964 16.095-15.784 16.213l-0.218 0.002zM16.004 2.445l-0.185 0.001c-7.474 0.101-13.472 6.263-13.372 13.737 0.099 7.374 6.177 13.372 13.55 13.372l0.185-0.002c7.473-0.099 13.472-6.262 13.372-13.736-0.099-7.374-6.177-13.372-13.55-13.372z"></path>
</symbol>
<symbol id="icon-twitter" viewBox="0 0 39 32">
<title>twitter</title>
<path d="M0 28.371c3.575 2.291 7.821 3.629 12.386 3.629 14.857 0 22.983-12.308 22.983-22.986 0-0.349-0.008-0.698-0.021-1.047 1.576-1.138 2.944-2.56 4.028-4.181-1.449 0.643-3.006 1.078-4.641 1.273 1.668-1.001 2.951-2.583 3.554-4.47-1.559 0.925-3.287 1.599-5.13 1.962-1.474-1.57-3.574-2.551-5.897-2.551-4.461 0-8.080 3.617-8.080 8.078 0 0.634 0.072 1.25 0.209 1.84-6.714-0.336-12.666-3.552-16.651-8.441-0.694 1.195-1.092 2.582-1.092 4.062 0 2.803 1.425 5.277 3.591 6.724-1.323-0.040-2.569-0.407-3.657-1.011v0.102c0 3.914 2.785 7.179 6.479 7.922-0.677 0.184-1.393 0.286-2.128 0.286-0.521 0-1.028-0.053-1.521-0.147 1.029 3.21 4.011 5.545 7.546 5.612-2.763 2.165-6.245 3.458-10.033 3.458-0.651-0.001-1.293-0.040-1.925-0.114z"></path>
</symbol>
<symbol id="icon-warranty" viewBox="0 0 20 32">
<title>warranty</title>
<path d="M20.135 9.709l-1.639-1.417c-0.189-0.163-0.261-0.424-0.176-0.659l0.712-2.043c0.124-0.353-0.098-0.725-0.457-0.796l-2.135-0.411c-0.241-0.046-0.437-0.235-0.483-0.483l-0.405-2.128c-0.072-0.366-0.444-0.581-0.796-0.457l-2.043 0.712c-0.235 0.078-0.496 0.013-0.659-0.176l-1.423-1.639c-0.241-0.281-0.679-0.281-0.92 0l-1.417 1.639c-0.163 0.189-0.424 0.261-0.659 0.176l-2.043-0.712c-0.352-0.124-0.725 0.098-0.796 0.457l-0.411 2.128c-0.046 0.242-0.235 0.437-0.483 0.483l-2.128 0.411c-0.366 0.072-0.581 0.444-0.457 0.796l0.712 2.043c0.078 0.235 0.013 0.496-0.176 0.659l-1.639 1.417c-0.281 0.242-0.281 0.679 0 0.921l1.639 1.417c0.189 0.163 0.261 0.424 0.176 0.659l-0.712 2.043c-0.124 0.353 0.098 0.725 0.457 0.796l2.128 0.411c0.241 0.046 0.437 0.235 0.483 0.483l0.411 2.128c0.072 0.366 0.444 0.581 0.796 0.457l2.043-0.712c0.235-0.078 0.496-0.013 0.659 0.176l1.417 1.639c0.241 0.281 0.679 0.281 0.92 0l1.417-1.639c0.163-0.189 0.424-0.261 0.659-0.176l2.043 0.712c0.352 0.124 0.725-0.098 0.796-0.457l0.411-2.128c0.046-0.242 0.235-0.437 0.483-0.483l2.128-0.411c0.366-0.072 0.581-0.444 0.457-0.796l-0.712-2.043c-0.078-0.235-0.013-0.496 0.176-0.659l1.639-1.417c0.287-0.242 0.287-0.679 0.007-0.921zM14.599 9.677l-2.004 1.691 0.627 2.546c0.117 0.477-0.405 0.855-0.822 0.601l-2.226-1.391-2.226 1.384c-0.418 0.261-0.94-0.117-0.823-0.601l0.627-2.546-2.004-1.691c-0.379-0.32-0.176-0.934 0.313-0.966l2.611-0.189 0.986-2.429c0.183-0.457 0.829-0.457 1.018 0l0.986 2.429 2.611 0.189c0.503 0.039 0.698 0.653 0.326 0.973z"></path>
<path d="M12.934 20.481l-0.809 0.94c-0.49 0.568-1.201 0.894-1.952 0.894s-1.462-0.326-1.952-0.894l-0.809-0.94-1.175 0.405c-0.222 0.078-0.45 0.124-0.685 0.137v7.625c0 0.509 0.268 0.986 0.705 1.247l3.16 1.9c0.463 0.274 1.038 0.274 1.502 0l3.16-1.9c0.437-0.261 0.705-0.738 0.705-1.247v-7.625c-0.235-0.013-0.464-0.059-0.685-0.137l-1.162-0.405z"></path>
</symbol>
<symbol id="icon-youtube" viewBox="0 0 26 32">
<title>youtube</title>
<path d="M7.422 4.698l-1.27-4.698h-1.888c0.378 1.108 0.772 2.224 1.15 3.334 0.574 1.666 0.932 2.924 1.094 3.784v4.844h1.792v-4.844l2.156-7.118h-1.812l-1.222 4.698z"></path>
<path d="M16.571 3.048v7.050c0 0.628 0.056 1.056 0.144 1.326 0.16 0.452 0.52 0.664 1.042 0.664 0.588 0 1.202-0.358 1.846-1.096v0.972h1.616v-8.915h-1.616v6.814c-0.36 0.506-0.7 0.758-1.022 0.758-0.216 0-0.344-0.128-0.378-0.378-0.020-0.052-0.020-0.25-0.020-0.63v-6.564h-1.612z"></path>
<path d="M12.857 12.085c0.808 0 1.436-0.304 1.884-0.912 0.338-0.448 0.502-1.152 0.502-2.098v-3.122c0-0.952-0.164-1.648-0.502-2.1-0.448-0.608-1.076-0.914-1.884-0.914-0.806 0-1.436 0.304-1.88 0.914-0.346 0.45-0.508 1.146-0.508 2.1v3.124c0 0.946 0.162 1.65 0.506 2.098 0.446 0.606 1.076 0.91 1.882 0.91zM12.085 5.63c0-0.826 0.25-1.236 0.772-1.236 0.52 0 0.77 0.41 0.77 1.236v3.75c0 0.826-0.25 1.238-0.77 1.238-0.522 0-0.772-0.414-0.772-1.238v-3.75z"></path>
<path d="M22.879 22.239c0-0.816-0.266-1.226-0.794-1.226-0.536 0-0.8 0.41-0.8 1.226v0.814h1.596v-0.814z"></path>
<path d="M16.849 25.982v-3.766c0-0.794-0.236-1.206-0.696-1.206-0.264 0-0.532 0.126-0.796 0.39v5.378c0.266 0.266 0.534 0.39 0.796 0.39 0.46 0.004 0.696-0.386 0.696-1.186z"></path>
<path d="M0.466 16.527c-0.462 2.008-0.466 4.19-0.466 6.256 0 2.062 0 4.25 0.46 6.254 0.324 1.404 1.474 2.444 2.858 2.6 3.28 0.366 6.6 0.368 9.905 0.366 3.306 0.002 6.624 0 9.905-0.366 1.384-0.156 2.536-1.196 2.858-2.6 0.462-2.004 0.464-4.192 0.464-6.254 0-2.064 0.002-4.248-0.458-6.254-0.322-1.404-1.47-2.442-2.858-2.596-3.28-0.368-6.602-0.368-9.905-0.368s-6.626 0-9.905 0.368c-1.386 0.152-2.536 1.19-2.858 2.594zM19.691 22.557c0-0.944 0.154-1.632 0.494-2.078 0.46-0.604 1.1-0.904 1.914-0.904 0.802 0 1.438 0.3 1.886 0.904 0.334 0.446 0.494 1.134 0.494 2.078v1.828h-3.196v1.562c0 0.818 0.266 1.226 0.814 1.226 0.392 0 0.624-0.214 0.714-0.642 0.016-0.088 0.036-0.442 0.036-1.082h1.63v0.232c0 0.514-0.020 0.87-0.036 1.032-0.054 0.354-0.178 0.674-0.372 0.958-0.444 0.64-1.1 0.956-1.934 0.956-0.838 0-1.474-0.3-1.936-0.902-0.34-0.442-0.514-1.138-0.514-2.074v-3.094zM13.757 16.665h1.598v3.868c0.518-0.636 1.064-0.958 1.652-0.958 0.636 0 1.064 0.334 1.28 0.996 0.106 0.354 0.16 0.938 0.16 1.774v3.514c0 0.814-0.054 1.404-0.16 1.778-0.214 0.656-0.642 0.99-1.28 0.99-0.57 0-1.118-0.314-1.652-0.974v0.854h-1.598v-11.841zM7.777 19.683h1.598v6.496c0 0.374 0 0.568 0.014 0.622 0.040 0.248 0.16 0.376 0.374 0.376 0.322 0 0.66-0.248 1.012-0.75v-6.744h1.6v8.821h-1.6v-0.96c-0.634 0.726-1.238 1.082-1.826 1.082-0.516 0-0.872-0.208-1.030-0.654-0.086-0.27-0.14-0.69-0.14-1.312v-6.978zM7.544 18.333h-1.916v10.171h-1.778v-10.171h-1.88v-1.668h5.576v1.668z"></path>
</symbol>
<symbol id="icon-alert" viewBox="0 0 32 32">
<title>alert</title>
<path d="M13.209 21.959c0 0.006-0.001 0.012-0.001 0.018 0 1.492 1.21 2.702 2.701 2.702s2.702-1.209 2.702-2.702c0-0.006-0-0.012-0-0.018h-5.402z"></path>
<path d="M21.96 19.3l-1.706-2.505v-3.126c0-2.108-1.501-3.865-3.493-4.261v-0.963c0-0.471-0.382-0.852-0.852-0.852s-0.852 0.381-0.852 0.852v0.963c-1.992 0.396-3.493 2.153-3.493 4.261v3.126l-1.706 2.505c-0.18 0.264-0.199 0.606-0.049 0.888s0.442 0.459 0.761 0.459h10.676c0.319 0 0.612-0.176 0.762-0.459s0.13-0.623-0.049-0.887z"></path>
<path d="M15.998 32c-0.001 0-0.001 0-0.001 0-8.703-0.001-15.879-7.081-15.995-15.785-0.118-8.822 6.963-16.095 15.784-16.214 0.073-0.001 0.145-0.001 0.218-0.001 8.703 0 15.878 7.081 15.995 15.785 0.118 8.822-6.963 16.095-15.784 16.214-0.072 0.001-0.143 0.001-0.216 0.001zM16.004 1.627l-0.196 0.001c-7.924 0.106-14.285 6.64-14.179 14.565 0.105 7.818 6.55 14.179 14.368 14.18l0.195-0.001c7.924-0.107 14.285-6.64 14.179-14.565-0.105-7.818-6.55-14.179-14.367-14.179z"></path>
</symbol>
<symbol id="icon-arrow-down" viewBox="0 0 23 32">
<title>arrow-down</title>
<path d="M0 20.318c0-0.469 0.178-0.938 0.537-1.296 0.716-0.716 1.877-0.716 2.593 0l8.551 8.553 8.553-8.553c0.716-0.716 1.877-0.716 2.593 0s0.716 1.877 0 2.593l-9.848 9.849c-0.344 0.344-0.81 0.537-1.297 0.537-0.485 0-0.952-0.193-1.295-0.537l-9.849-9.849c-0.358-0.358-0.536-0.827-0.536-1.296z"></path>
<path d="M9.848 26.614v-24.78c0-1.012 0.821-1.834 1.834-1.834s1.834 0.821 1.834 1.834v24.78c0 1.012-0.821 1.834-1.834 1.834s-1.834-0.821-1.834-1.834z"></path>
</symbol>
<symbol id="icon-arrow-dropdown" viewBox="0 0 51 32">
<title>arrow-dropdown</title>
<path d="M25.311 32l-25.311-25.653 6.434-6.347 18.962 19.219 19.219-18.962 6.347 6.434z"></path>
</symbol>
<symbol id="icon-arrow-left" viewBox="0 0 44 32">
<title>arrow-left</title>
<path d="M16.001 0c0.643 0 1.285 0.244 1.776 0.736 0.981 0.981 0.981 2.57 0 3.551l-11.714 11.713 11.714 11.713c0.981 0.981 0.981 2.57 0 3.551s-2.57 0.982-3.551 0l-13.49-13.489c-0.471-0.471-0.736-1.11-0.736-1.776s0.265-1.305 0.736-1.776l13.49-13.489c0.492-0.491 1.133-0.736 1.776-0.736z"></path>
<path d="M7.378 13.49h33.94c1.386 0 2.511 1.125 2.511 2.511s-1.125 2.511-2.511 2.511h-33.94c-1.386 0-2.511-1.125-2.511-2.511 0-1.388 1.125-2.511 2.511-2.511z"></path>
</symbol>
<symbol id="icon-arrow-play" viewBox="0 0 29 32">
<title>arrow-play</title>
<path d="M27.937 13.927l-24.407-13.623c-1.582-0.885-3.53 0.261-3.53 2.073v27.245c0 1.813 1.948 2.958 3.53 2.074l24.407-13.622c1.622-0.905 1.622-3.242 0-4.147z"></path>
</symbol>
<symbol id="icon-arrow-right" viewBox="0 0 44 32">
<title>arrow-right</title>
<path d="M27.829 32c-0.643 0-1.285-0.244-1.776-0.736-0.981-0.981-0.981-2.57 0-3.551l11.714-11.713-11.714-11.713c-0.981-0.982-0.981-2.57 0-3.551 0.981-0.982 2.57-0.982 3.551 0l13.49 13.489c0.471 0.471 0.736 1.11 0.736 1.776s-0.265 1.305-0.736 1.776l-13.49 13.489c-0.491 0.492-1.133 0.736-1.776 0.736z"></path>
<path d="M36.451 18.511h-33.94c-1.388 0-2.511-1.125-2.511-2.511s1.124-2.511 2.511-2.511h33.94c1.386 0 2.511 1.125 2.511 2.511 0 1.388-1.125 2.511-2.511 2.511z"></path>
</symbol>
<symbol id="icon-arrow-up" viewBox="0 0 23 32">
<title>arrow-up</title>
<path d="M23.363 11.682c0 0.469-0.178 0.938-0.537 1.296-0.716 0.716-1.877 0.716-2.593 0l-8.551-8.553-8.553 8.553c-0.717 0.716-1.877 0.716-2.593 0s-0.717-1.877 0-2.593l9.848-9.849c0.344-0.344 0.81-0.537 1.297-0.537 0.485 0 0.952 0.193 1.295 0.537l9.848 9.849c0.359 0.359 0.537 0.827 0.537 1.296z"></path>
<path d="M13.515 5.387v24.779c0 1.012-0.821 1.834-1.834 1.834s-1.834-0.821-1.834-1.834v-24.779c0-1.012 0.821-1.834 1.834-1.834s1.834 0.821 1.834 1.834z"></path>
</symbol>
<symbol id="icon-bangkok" viewBox="0 0 29 32">
<title>bangkok</title>
<path d="M2.088 15.234l10.129-14.513-1.314-0.721-10.111 14.486-0.042-0.024-0.287 0.497-0.082 0.117 0.011 0.006-0.391 0.678 28.129 16.24 0.75-1.298z"></path>
</symbol>
<symbol id="icon-berlin" viewBox="0 0 12 32">
<title>berlin</title>
<path d="M11.15 0.63l-1.132-0.63-10.019 14.56 1.252 0.696 9.366-13.611v30.355h1.448v-31.37z"></path>
</symbol>
<symbol id="icon-bubble-pourcent" viewBox="0 0 32 32">
<title>bubble-pourcent</title>
<path d="M12.355 11.968c-0.579-0.581-1.51-0.581-2.083 0-0.579 0.579-0.579 1.51 0 2.083s1.512 0.573 2.085 0c0.577-0.579 0.577-1.512-0.002-2.083zM19.652 17.952c-0.579 0.573-0.573 1.51 0 2.083 0.575 0.579 1.512 0.579 2.085 0 0.579-0.573 0.579-1.51 0-2.083s-1.51-0.573-2.085 0zM27.323 4.684c-6.25-6.244-16.387-6.244-22.637 0-6.012 6.017-6.24 15.631-0.673 21.916l0.16 0.133c-0.605 1.305-1.643 2.915-3.296 3.728-0.546 0.264-0.42 1.077 0.179 1.171 1.805 0.278 4.395-0.035 6.806-1.86l0.033 0.028c6.133 3.606 14.158 2.776 19.422-2.491 6.25-6.244 6.25-16.376 0.007-22.626zM7.761 13.006c0-1.958 1.598-3.556 3.556-3.556s3.556 1.598 3.556 3.556-1.598 3.554-3.556 3.554c-1.965 0-3.549-1.591-3.556-3.554zM12.003 22.185c-0.306 0.365-0.852 0.417-1.217 0.114-0.365-0.308-0.42-0.855-0.114-1.22l9.334-11.238c0.306-0.367 0.852-0.42 1.22-0.114 0.365 0.306 0.417 0.852 0.114 1.217l-9.336 11.24zM20.692 22.55c-1.958 0-3.556-1.598-3.556-3.554 0-1.958 1.598-3.556 3.556-3.556s3.556 1.598 3.556 3.556c0 1.956-1.593 3.554-3.556 3.554z"></path>
</symbol>
<symbol id="icon-card-portal" viewBox="0 0 45 32">
<title>card-portal</title>
<path d="M39.726 31.999h-34.581c-2.837 0-5.145-2.308-5.145-5.145v-21.71c0-2.837 2.308-5.145 5.145-5.145h34.581c2.837 0 5.145 2.308 5.145 5.145v21.71c-0.001 2.836-2.308 5.144-5.145 5.144zM5.145 2.731c-1.331 0-2.413 1.083-2.413 2.413v21.71c0 1.33 1.082 2.414 2.413 2.414h34.581c1.33 0 2.413-1.083 2.413-2.414v-21.71c0-1.33-1.083-2.413-2.413-2.413h-34.581z"></path>
<path d="M26.131 9.906v0c0-0.789 0.638-1.428 1.428-1.428h8.978c0.788 0 1.428 0.639 1.428 1.428s-0.639 1.428-1.428 1.428h-8.978c-0.789-0.001-1.428-0.64-1.428-1.428z"></path>
<path d="M26.131 14.458v0c0-0.789 0.638-1.428 1.428-1.428h4.484c0.789 0 1.429 0.639 1.429 1.428s-0.639 1.428-1.429 1.428h-4.484c-0.789 0-1.428-0.64-1.428-1.428z"></path>
<path d="M19.017 10.453c0 2.163-1.754 3.916-3.916 3.916s-3.917-1.754-3.917-3.916c0-2.163 1.754-3.916 3.917-3.916s3.916 1.753 3.916 3.916z"></path>
<path d="M21.558 22.035c0 2.031-2.891 3.612-6.457 3.612s-6.458-1.947-6.458-3.612c0-3.566 2.891-6.458 6.458-6.458s6.457 2.891 6.457 6.458z"></path>
</symbol>
<symbol id="icon-cercle-en" viewBox="0 0 32 32">
<title>cercle-en</title>
<path d="M15.996 32c-8.703-0.001-15.878-7.082-15.995-15.785-0.117-8.822 6.963-16.095 15.785-16.214l0.218-0.001c8.704 0 15.879 7.081 15.995 15.785 0.117 8.822-6.964 16.095-15.785 16.213l-0.217 0.002zM16.003 2.192l-0.188 0.001c-7.613 0.102-13.724 6.379-13.622 13.993 0.101 7.511 6.293 13.621 13.803 13.622l0.188-0.002c7.613-0.102 13.723-6.379 13.622-13.992-0.1-7.511-6.293-13.622-13.803-13.622z"></path>
<path d="M14.887 15.747h-4.469v3.026h5.245v1.87h-7.573v-11.297h7.557v1.885h-5.23v2.693h4.469v1.823z"></path>
<path d="M18.945 12.248l0.070 0.97c0.6-0.75 1.404-1.125 2.413-1.125 0.889 0 1.552 0.261 1.986 0.784s0.656 1.304 0.667 2.343v5.424h-2.242v-5.369c0-0.476-0.103-0.821-0.31-1.036s-0.551-0.322-1.032-0.322c-0.631 0-1.105 0.269-1.42 0.807v5.92h-2.242v-8.395h2.111z"></path>
</symbol>
<symbol id="icon-cercle-fr" viewBox="0 0 32 32">
<title>cercle-fr</title>
<path d="M15.996 32c-8.703-0.001-15.878-7.082-15.995-15.785-0.117-8.822 6.963-16.095 15.785-16.214l0.218-0.001c8.704 0 15.879 7.081 15.995 15.785 0.117 8.822-6.964 16.095-15.785 16.213l-0.217 0.002zM16.003 2.192l-0.188 0.001c-7.613 0.102-13.724 6.379-13.622 13.993 0.101 7.511 6.293 13.621 13.803 13.622l0.188-0.002c7.613-0.102 13.723-6.379 13.622-13.992-0.1-7.511-6.293-13.622-13.803-13.622z"></path>
<path d="M16.655 16.575h-4.469v4.616h-2.328v-11.298h7.356v1.885h-5.028v2.917h4.469v1.878z"></path>
<path d="M22.933 14.899c-0.305-0.042-0.574-0.062-0.807-0.062-0.848 0-1.404 0.287-1.668 0.861v5.493h-2.243v-8.395h2.118l0.062 1.001c0.45-0.771 1.073-1.156 1.87-1.156 0.248 0 0.481 0.034 0.698 0.101l-0.030 2.157z"></path>
</symbol>
<symbol id="icon-check" viewBox="0 0 36 32">
<title>check</title>
<path d="M12.987 28.489l19.657-27.886c0.804-0.804 2.106-0.803 2.91 0 0.801 0.802 0.802 2.105 0 2.909l-19.659 27.886c-0.802 0.803-2.105 0.803-2.909 0-0.803-0.802-0.803-2.105 0-2.909z"></path>
<path d="M12.987 31.397l-12.385-12.385c-0.804-0.803-0.803-2.106 0-2.91 0.802-0.802 2.105-0.803 2.909 0l12.385 12.386c0.803 0.801 0.803 2.105 0 2.908-0.802 0.804-2.105 0.804-2.909 0.001z"></path>
</symbol>
<symbol id="icon-close" viewBox="0 0 32 32">
<title>close</title>
<path d="M29.702 32c-0.589 0-1.175-0.223-1.624-0.673l-27.406-27.403c-0.897-0.898-0.897-2.352 0-3.25 0.898-0.897 2.352-0.897 3.25 0l27.406 27.405c0.896 0.897 0.896 2.352 0 3.249-0.45 0.45-1.037 0.673-1.626 0.673z"></path>
<path d="M2.298 32c-0.588 0-1.175-0.223-1.624-0.673-0.897-0.897-0.897-2.352 0-3.249l27.403-27.405c0.898-0.897 2.352-0.897 3.25 0 0.897 0.898 0.897 2.352 0 3.25l-27.405 27.405c-0.45 0.449-1.036 0.672-1.624 0.672z"></path>
</symbol>
<symbol id="icon-diagnostic" viewBox="0 0 33 32">
<title>diagnostic</title>
<path d="M26.583 11.049h-4.305v4.951h-4.951v4.305h4.951v4.951h4.305v-4.951h4.951v-4.305h-4.951z"></path>
<path d="M15.175 13.847h4.951v-4.951h8.61v4.951h2.497c0.895-1.435 1.414-3.062 1.414-4.845 0-4.971-4.029-9.002-8.999-9.002-3.020 0-5.692 1.487-7.324 3.77-1.632-2.283-4.304-3.771-7.324-3.771-4.97 0-8.999 4.030-8.999 9.001 0 2.161 0.761 4.144 2.030 5.695l14.293 17.304 3.803-4.604v-4.939h-4.951v-8.61z"></path>
</symbol>
<symbol id="icon-exchanges" viewBox="0 0 37 32">
<title>exchanges</title>
<path d="M17.141 17c0.613-1.453 1.133-2.593 1.56-3.42 0.32-0.613 0.62-1.13 0.9-1.55s0.62-0.83 1.020-1.23c0.4-0.4 0.86-0.7 1.38-0.9s1.1-0.3 1.74-0.3h5.82v3.84c0 0.173 0.063 0.323 0.19 0.45s0.277 0.19 0.45 0.19c0.187 0 0.34-0.060 0.46-0.18l6.4-6.4c0.12-0.12 0.18-0.273 0.18-0.46s-0.060-0.34-0.18-0.461l-6.38-6.38c-0.16-0.133-0.32-0.2-0.48-0.2-0.187 0-0.34 0.060-0.46 0.18s-0.179 0.273-0.179 0.46v3.84h-5.82c-0.907 0-1.76 0.11-2.56 0.33s-1.51 0.5-2.13 0.84c-0.62 0.34-1.22 0.797-1.8 1.37s-1.073 1.127-1.48 1.66c-0.407 0.533-0.833 1.2-1.28 2s-0.807 1.5-1.080 2.1c-0.273 0.6-0.603 1.34-0.99 2.22-0.613 1.453-1.133 2.593-1.56 3.42-0.32 0.613-0.62 1.13-0.9 1.55s-0.62 0.83-1.020 1.23c-0.4 0.4-0.86 0.7-1.38 0.9s-1.1 0.3-1.74 0.3h-5.181c-0.187 0-0.34 0.060-0.46 0.18s-0.18 0.273-0.18 0.46v3.84c0 0.187 0.060 0.34 0.18 0.46s0.274 0.18 0.46 0.18h5.181c0.907 0 1.76-0.11 2.56-0.33s1.51-0.5 2.13-0.84c0.62-0.34 1.22-0.797 1.8-1.37s1.073-1.127 1.48-1.66c0.406-0.533 0.833-1.2 1.28-2s0.807-1.5 1.080-2.1c0.273-0.6 0.603-1.34 0.99-2.22z"></path>
<path d="M0.64 9.6h4.48c0.587 0 1.13 0.097 1.63 0.29s0.92 0.427 1.26 0.7c0.34 0.273 0.68 0.65 1.020 1.13s0.61 0.904 0.81 1.27c0.2 0.367 0.447 0.85 0.74 1.45 1.027-2.413 1.94-4.233 2.74-5.46-2.133-3-4.867-4.5-8.2-4.5h-4.48c-0.187 0-0.34 0.060-0.46 0.18s-0.18 0.273-0.18 0.46v3.84c0 0.187 0.060 0.34 0.18 0.46s0.274 0.18 0.46 0.18z"></path>
<path d="M30.682 18.121c-0.16-0.133-0.32-0.199-0.48-0.199-0.187 0-0.34 0.060-0.46 0.18s-0.18 0.273-0.18 0.46v3.84h-5.12c-0.587 0-1.13-0.097-1.63-0.29s-0.92-0.426-1.26-0.7c-0.34-0.273-0.68-0.65-1.020-1.13s-0.61-0.904-0.81-1.27c-0.2-0.366-0.446-0.85-0.74-1.45-1.027 2.4-1.933 4.22-2.72 5.46 0.36 0.52 0.733 0.983 1.12 1.39s0.753 0.763 1.1 1.070c0.347 0.306 0.74 0.574 1.18 0.8s0.827 0.417 1.16 0.57c0.334 0.153 0.754 0.277 1.26 0.37s0.933 0.163 1.28 0.21c0.347 0.047 0.82 0.080 1.42 0.1s1.087 0.026 1.459 0.020c0.374-0.007 0.914-0.014 1.621-0.020s1.274-0.010 1.7-0.010v3.84c0 0.173 0.063 0.323 0.19 0.45s0.277 0.19 0.45 0.19c0.187 0 0.34-0.060 0.46-0.18l6.4-6.4c0.12-0.12 0.18-0.273 0.18-0.46s-0.060-0.34-0.18-0.46l-6.379-6.38z"></path>
</symbol>
<symbol id="icon-facebook" viewBox="0 0 17 32">
<title>facebook</title>
<path d="M13.607 5.314l3.010-0.002v-5.088c-0.519-0.070-2.307-0.225-4.391-0.225-4.342 0-7.314 2.652-7.314 7.521v4.196h-4.912v5.687h4.912v14.596h5.871v-14.596h4.899l0.735-5.687h-5.634v-3.633c0.002-1.648 0.464-2.77 2.823-2.77z"></path>
</symbol>
<symbol id="icon-green" viewBox="0 0 23 32">
<title>green</title>
<path d="M15.101 20.287c-1.272-0.736-2.587-0.824-3.64-0.702l2.034-3.525c0.402 1.009 1.115 2.134 2.389 2.87 3.009 1.737 6.193 0.334 6.326 0.275l0.801-0.362-0.118-0.873c-0.021-0.137-0.501-3.419-3.485-5.142-1.27-0.738-2.587-0.826-3.638-0.705l1.232-2.134c1.133-0.212 3.194-0.86 4.334-2.837 1.748-3.030 0.366-6.216 0.307-6.349l-0.357-0.801-0.869 0.124c-0.139 0.019-3.413 0.519-5.148 3.525-1.215 2.105-0.686 4.315-0.355 5.283l-1.167 2.021c-0.423-0.97-1.155-2.065-2.425-2.801-2.988-1.724-6.069-0.5-6.199-0.446l-0.814 0.332 0.086 0.875c0.015 0.147 0.391 3.607 3.4 5.346 1.272 0.734 2.605 0.791 3.68 0.633l-2.036 3.522c-0.421-0.971-1.154-2.065-2.425-2.799-2.988-1.724-6.069-0.5-6.197-0.446l-0.816 0.332 0.086 0.877c0.015 0.147 0.391 3.606 3.4 5.343 1.272 0.736 2.605 0.793 3.68 0.635l-4.894 8.477 2.023 1.167 4.894-8.477c0.4 1.009 1.114 2.134 2.387 2.868 3.011 1.739 6.195 0.334 6.328 0.275l0.801-0.362-0.118-0.871c-0.021-0.139-0.5-3.421-3.485-5.144z"></path>
</symbol>
<symbol id="icon-innovation" viewBox="0 0 32 32">
<title>innovation</title>
<path d="M30.166 0.488c-1.739-1.007-3.962-0.408-4.965 1.337-0.671 1.165-0.614 2.54 0.005 3.63l-5.457 7.006c-0.84-0.405-1.778-0.636-2.77-0.636-0.19 0-0.378 0.012-0.565 0.028l-1.252-3.98c1.051-0.888 1.563-2.332 1.177-3.751-0.527-1.945-2.525-3.094-4.463-2.566-1.938 0.529-3.081 2.536-2.554 4.482 0.41 1.515 1.714 2.534 3.184 2.667l1.256 3.99c-1.92 1.119-3.216 3.198-3.216 5.587 0 0.249 0.016 0.488 0.043 0.728l-4.255 1.465c-1.035-1.16-2.728-1.579-4.212-0.895-1.826 0.842-2.627 3.008-1.788 4.843 0.836 1.833 2.996 2.637 4.82 1.795 1.263-0.581 2.019-1.803 2.097-3.104l4.246-1.463c1.131 1.854 3.159 3.094 5.482 3.094 1.101 0 2.133-0.277 3.037-0.767l2.33 2.721c-0.602 1.195-0.54 2.676 0.311 3.825 1.199 1.618 3.475 1.955 5.086 0.753 1.613-1.204 1.948-3.49 0.751-5.109-0.954-1.289-2.589-1.747-4.031-1.282l-2.341-2.735c0.806-1.078 1.291-2.413 1.291-3.868 0-1.559-0.552-2.991-1.467-4.108l5.463-7.015c1.552 0.421 3.25-0.222 4.092-1.687 1.003-1.746 0.405-3.98-1.334-4.987z"></path>
</symbol>
<symbol id="icon-instagram" viewBox="0 0 32 32">
<title>instagram</title>
<path d="M31.159 5.519c-0.41-1.053-0.956-1.944-1.845-2.834s-1.783-1.435-2.835-1.845c-1.016-0.396-2.181-0.666-3.884-0.744-1.705-0.080-2.251-0.097-6.595-0.097s-4.888 0.017-6.595 0.097c-1.703 0.078-2.867 0.348-3.884 0.744-1.053 0.408-1.944 0.956-2.835 1.845-0.889 0.888-1.435 1.781-1.845 2.834-0.394 1.018-0.664 2.181-0.744 3.884-0.078 1.705-0.095 2.251-0.095 6.595 0 4.346 0.017 4.89 0.095 6.597 0.080 1.701 0.35 2.867 0.744 3.884 0.41 1.051 0.956 1.942 1.845 2.834 0.889 0.889 1.783 1.435 2.835 1.845 1.016 0.396 2.181 0.666 3.884 0.744 1.707 0.078 2.251 0.097 6.595 0.097s4.89-0.019 6.595-0.097c1.703-0.078 2.868-0.348 3.884-0.744 1.053-0.41 1.946-0.956 2.835-1.845 0.889-0.891 1.435-1.783 1.845-2.834 0.394-1.018 0.666-2.183 0.744-3.884 0.078-1.707 0.095-2.251 0.095-6.597 0-4.344-0.017-4.89-0.095-6.595-0.078-1.703-0.348-2.867-0.744-3.884zM29.023 22.464c-0.070 1.561-0.33 2.408-0.55 2.971-0.289 0.748-0.637 1.28-1.196 1.839s-1.093 0.907-1.839 1.196c-0.563 0.218-1.412 0.48-2.969 0.55-1.688 0.078-2.195 0.095-6.467 0.095s-4.778-0.017-6.465-0.095c-1.559-0.070-2.408-0.332-2.971-0.55-0.748-0.289-1.28-0.637-1.839-1.196-0.561-0.559-0.907-1.093-1.196-1.839-0.219-0.563-0.48-1.412-0.552-2.971-0.076-1.686-0.093-2.193-0.093-6.465s0.017-4.778 0.093-6.465c0.070-1.559 0.33-2.406 0.55-2.969 0.289-0.748 0.635-1.28 1.196-1.839 0.559-0.561 1.093-0.909 1.839-1.198 0.563-0.219 1.412-0.482 2.971-0.552 1.688-0.078 2.193-0.093 6.465-0.093s4.778 0.017 6.467 0.093c1.559 0.070 2.406 0.33 2.969 0.552 0.748 0.289 1.28 0.637 1.839 1.196s0.907 1.093 1.196 1.839c0.219 0.563 0.48 1.412 0.55 2.969 0.078 1.688 0.095 2.193 0.095 6.465s-0.016 4.781-0.093 6.467z"></path>
<path d="M15.999 7.784c-4.539 0-8.215 3.678-8.215 8.215s3.678 8.217 8.215 8.217c4.537 0 8.217-3.68 8.217-8.217s-3.678-8.215-8.217-8.215zM15.999 21.334c-2.946 0-5.333-2.387-5.333-5.335 0-2.946 2.387-5.333 5.333-5.333s5.333 2.387 5.333 5.333c0 2.946-2.387 5.335-5.333 5.335z"></path>
<path d="M24.54 5.539c-1.060 0-1.919 0.86-1.919 1.921s0.858 1.919 1.919 1.919c1.058 0 1.919-0.858 1.919-1.919s-0.86-1.921-1.919-1.921z"></path>
</symbol>
<symbol id="icon-like" viewBox="0 0 37 32">
<title>like</title>
<path d="M18.456 6.994c-4.78-11.097-18.366-8.507-18.456 4.372-0.049 7.072 6.47 9.717 10.81 12.544 4.209 2.741 7.205 6.494 7.673 8.089 0.401-1.563 3.738-5.422 7.635-8.168 4.26-3.001 10.86-5.472 10.81-12.544-0.089-12.91-13.912-14.948-18.472-4.293z"></path>
</symbol>
<symbol id="icon-linkedin" viewBox="0 0 33 32">
<title>linkedin</title>
<path d="M33.477 32v-12.378c0-6.635-3.544-9.716-8.264-9.716-3.808 0-5.512 2.090-6.468 3.563v0.069h-0.046c0.019-0.019 0.035-0.046 0.049-0.069v-3.056h-7.176c0.093 2.023 0 21.587 0 21.587h7.174v-12.059c0-0.644 0.046-1.285 0.238-1.748 0.521-1.287 1.701-2.627 3.683-2.627 2.597 0 3.637 1.984 3.637 4.885v11.549h7.174z"></path>
<path d="M4.056 0c-2.452 0-4.056 1.616-4.056 3.732 0 2.072 1.556 3.732 3.963 3.732h0.049c2.502 0 4.058-1.662 4.058-3.732-0.044-2.116-1.558-3.732-4.014-3.732z"></path>
<path d="M0.421 10.413h7.179v21.587h-7.179v-21.587z"></path>
</symbol>
<symbol id="icon-plus2" viewBox="0 0 32 32">
<title>plus2</title>
<path d="M32 14.080h-14.080v-14.080h-3.84v14.080h-14.080v3.84h14.080v14.080h3.84v-14.080h14.080z"></path>
</symbol>
</defs>
</svg>
