<!-- Generated by IcoMoon.io -->
<svg version="1.1" xmlns="http://www.w3.org/2000/svg" width="39" height="32" viewBox="0 0 39 32">
<title>twitter</title>
<path d="M0 28.371c3.575 2.291 7.821 3.629 12.386 3.629 14.857 0 22.983-12.308 22.983-22.986 0-0.349-0.008-0.698-0.021-1.047 1.576-1.138 2.944-2.56 4.028-4.181-1.449 0.643-3.006 1.078-4.641 1.273 1.668-1.001 2.951-2.583 3.554-4.47-1.559 0.925-3.287 1.599-5.13 1.962-1.474-1.57-3.574-2.551-5.897-2.551-4.461 0-8.080 3.617-8.080 8.078 0 0.634 0.072 1.25 0.209 1.84-6.714-0.336-12.666-3.552-16.651-8.441-0.694 1.195-1.092 2.582-1.092 4.062 0 2.803 1.425 5.277 3.591 6.724-1.323-0.040-2.569-0.407-3.657-1.011v0.102c0 3.914 2.785 7.179 6.479 7.922-0.677 0.184-1.393 0.286-2.128 0.286-0.521 0-1.028-0.053-1.521-0.147 1.029 3.21 4.011 5.545 7.546 5.612-2.763 2.165-6.245 3.458-10.033 3.458-0.651-0.001-1.293-0.040-1.925-0.114z"></path>
</svg>
