<!-- Generated by IcoMoon.io -->
<svg version="1.1" xmlns="http://www.w3.org/2000/svg" width="20" height="32" viewBox="0 0 20 32">
<title>warranty</title>
<path d="M20.135 9.709l-1.639-1.417c-0.189-0.163-0.261-0.424-0.176-0.659l0.712-2.043c0.124-0.353-0.098-0.725-0.457-0.796l-2.135-0.411c-0.241-0.046-0.437-0.235-0.483-0.483l-0.405-2.128c-0.072-0.366-0.444-0.581-0.796-0.457l-2.043 0.712c-0.235 0.078-0.496 0.013-0.659-0.176l-1.423-1.639c-0.241-0.281-0.679-0.281-0.92 0l-1.417 1.639c-0.163 0.189-0.424 0.261-0.659 0.176l-2.043-0.712c-0.352-0.124-0.725 0.098-0.796 0.457l-0.411 2.128c-0.046 0.242-0.235 0.437-0.483 0.483l-2.128 0.411c-0.366 0.072-0.581 0.444-0.457 0.796l0.712 2.043c0.078 0.235 0.013 0.496-0.176 0.659l-1.639 1.417c-0.281 0.242-0.281 0.679 0 0.921l1.639 1.417c0.189 0.163 0.261 0.424 0.176 0.659l-0.712 2.043c-0.124 0.353 0.098 0.725 0.457 0.796l2.128 0.411c0.241 0.046 0.437 0.235 0.483 0.483l0.411 2.128c0.072 0.366 0.444 0.581 0.796 0.457l2.043-0.712c0.235-0.078 0.496-0.013 0.659 0.176l1.417 1.639c0.241 0.281 0.679 0.281 0.92 0l1.417-1.639c0.163-0.189 0.424-0.261 0.659-0.176l2.043 0.712c0.352 0.124 0.725-0.098 0.796-0.457l0.411-2.128c0.046-0.242 0.235-0.437 0.483-0.483l2.128-0.411c0.366-0.072 0.581-0.444 0.457-0.796l-0.712-2.043c-0.078-0.235-0.013-0.496 0.176-0.659l1.639-1.417c0.287-0.242 0.287-0.679 0.007-0.921zM14.599 9.677l-2.004 1.691 0.627 2.546c0.117 0.477-0.405 0.855-0.822 0.601l-2.226-1.391-2.226 1.384c-0.418 0.261-0.94-0.117-0.823-0.601l0.627-2.546-2.004-1.691c-0.379-0.32-0.176-0.934 0.313-0.966l2.611-0.189 0.986-2.429c0.183-0.457 0.829-0.457 1.018 0l0.986 2.429 2.611 0.189c0.503 0.039 0.698 0.653 0.326 0.973z"></path>
<path d="M12.934 20.481l-0.809 0.94c-0.49 0.568-1.201 0.894-1.952 0.894s-1.462-0.326-1.952-0.894l-0.809-0.94-1.175 0.405c-0.222 0.078-0.45 0.124-0.685 0.137v7.625c0 0.509 0.268 0.986 0.705 1.247l3.16 1.9c0.463 0.274 1.038 0.274 1.502 0l3.16-1.9c0.437-0.261 0.705-0.738 0.705-1.247v-7.625c-0.235-0.013-0.464-0.059-0.685-0.137l-1.162-0.405z"></path>
</svg>
