<!-- Generated by IcoMoon.io -->
<svg version="1.1" xmlns="http://www.w3.org/2000/svg" width="26" height="32" viewBox="0 0 26 32">
<title>youtube</title>
<path d="M7.422 4.698l-1.27-4.698h-1.888c0.378 1.108 0.772 2.224 1.15 3.334 0.574 1.666 0.932 2.924 1.094 3.784v4.844h1.792v-4.844l2.156-7.118h-1.812l-1.222 4.698z"></path>
<path d="M16.571 3.048v7.050c0 0.628 0.056 1.056 0.144 1.326 0.16 0.452 0.52 0.664 1.042 0.664 0.588 0 1.202-0.358 1.846-1.096v0.972h1.616v-8.915h-1.616v6.814c-0.36 0.506-0.7 0.758-1.022 0.758-0.216 0-0.344-0.128-0.378-0.378-0.020-0.052-0.020-0.25-0.020-0.63v-6.564h-1.612z"></path>
<path d="M12.857 12.085c0.808 0 1.436-0.304 1.884-0.912 0.338-0.448 0.502-1.152 0.502-2.098v-3.122c0-0.952-0.164-1.648-0.502-2.1-0.448-0.608-1.076-0.914-1.884-0.914-0.806 0-1.436 0.304-1.88 0.914-0.346 0.45-0.508 1.146-0.508 2.1v3.124c0 0.946 0.162 1.65 0.506 2.098 0.446 0.606 1.076 0.91 1.882 0.91zM12.085 5.63c0-0.826 0.25-1.236 0.772-1.236 0.52 0 0.77 0.41 0.77 1.236v3.75c0 0.826-0.25 1.238-0.77 1.238-0.522 0-0.772-0.414-0.772-1.238v-3.75z"></path>
<path d="M22.879 22.239c0-0.816-0.266-1.226-0.794-1.226-0.536 0-0.8 0.41-0.8 1.226v0.814h1.596v-0.814z"></path>
<path d="M16.849 25.982v-3.766c0-0.794-0.236-1.206-0.696-1.206-0.264 0-0.532 0.126-0.796 0.39v5.378c0.266 0.266 0.534 0.39 0.796 0.39 0.46 0.004 0.696-0.386 0.696-1.186z"></path>
<path d="M0.466 16.527c-0.462 2.008-0.466 4.19-0.466 6.256 0 2.062 0 4.25 0.46 6.254 0.324 1.404 1.474 2.444 2.858 2.6 3.28 0.366 6.6 0.368 9.905 0.366 3.306 0.002 6.624 0 9.905-0.366 1.384-0.156 2.536-1.196 2.858-2.6 0.462-2.004 0.464-4.192 0.464-6.254 0-2.064 0.002-4.248-0.458-6.254-0.322-1.404-1.47-2.442-2.858-2.596-3.28-0.368-6.602-0.368-9.905-0.368s-6.626 0-9.905 0.368c-1.386 0.152-2.536 1.19-2.858 2.594zM19.691 22.557c0-0.944 0.154-1.632 0.494-2.078 0.46-0.604 1.1-0.904 1.914-0.904 0.802 0 1.438 0.3 1.886 0.904 0.334 0.446 0.494 1.134 0.494 2.078v1.828h-3.196v1.562c0 0.818 0.266 1.226 0.814 1.226 0.392 0 0.624-0.214 0.714-0.642 0.016-0.088 0.036-0.442 0.036-1.082h1.63v0.232c0 0.514-0.020 0.87-0.036 1.032-0.054 0.354-0.178 0.674-0.372 0.958-0.444 0.64-1.1 0.956-1.934 0.956-0.838 0-1.474-0.3-1.936-0.902-0.34-0.442-0.514-1.138-0.514-2.074v-3.094zM13.757 16.665h1.598v3.868c0.518-0.636 1.064-0.958 1.652-0.958 0.636 0 1.064 0.334 1.28 0.996 0.106 0.354 0.16 0.938 0.16 1.774v3.514c0 0.814-0.054 1.404-0.16 1.778-0.214 0.656-0.642 0.99-1.28 0.99-0.57 0-1.118-0.314-1.652-0.974v0.854h-1.598v-11.841zM7.777 19.683h1.598v6.496c0 0.374 0 0.568 0.014 0.622 0.040 0.248 0.16 0.376 0.374 0.376 0.322 0 0.66-0.248 1.012-0.75v-6.744h1.6v8.821h-1.6v-0.96c-0.634 0.726-1.238 1.082-1.826 1.082-0.516 0-0.872-0.208-1.030-0.654-0.086-0.27-0.14-0.69-0.14-1.312v-6.978zM7.544 18.333h-1.916v10.171h-1.778v-10.171h-1.88v-1.668h5.576v1.668z"></path>
</svg>
