<svg id="Layer_1" data-name="Layer 1" xmlns="http://www.w3.org/2000/svg" viewBox="0 0 103.67 556.98"><defs><style>.cls-1,.cls-2{fill:#f7c11c}.cls-2{stroke:#f7c11c;stroke-miterlimit:10;stroke-width:4px}</style></defs><path class="cls-1" d="M49.83 135.95v51.9L0 137.95V86.04l49.83 49.91zM53.83 135.95v51.9l49.84-49.9V86.04l-49.84 49.91zM51.87 79.75l26.88-14.21-.03 38.98-26.89 26.88.04-51.65zM51.8 79.75L24.92 65.54l.03 38.98 26.88 26.88-.03-51.65z"/><path class="cls-1" d="M51.87 81.81l26.88 12.24-.03-37.01-26.89-26.88.04 51.65zM51.8 81.81L24.92 94.05l.03-37.01 26.88-26.88-.03 51.65zM49.83 194.26v51.91L0 196.26v-51.9l49.83 49.9zM53.83 194.26v51.91l49.84-49.91v-51.9l-49.84 49.9zM49.83 252.58v51.9L0 254.58v-51.9l49.83 49.9zM53.83 252.58v51.9l49.84-49.9v-51.9l-49.84 49.9zM49.83 310.9v51.9L0 312.9v-51.91l49.83 49.91zM53.83 310.9v51.9l49.84-49.9v-51.91L53.83 310.9zM49.83 369.21v51.91L0 371.21v-51.9l49.83 49.9zM53.83 369.21v51.91l49.84-49.91v-51.9l-49.84 49.9z"/><path class="cls-2" d="M51.83 556.98V432.75M51.83 102V0"/></svg>