<svg xmlns="http://www.w3.org/2000/svg" width="36" height="32" viewBox="0 0 36 32"><path fill="none" stroke-miterlimit="10" stroke-width="1.038" stroke="#000" d="M17.992 31.481h-.012a2.072 2.072 0 0 1-1.492-.632l-.001-.001L5.001 19.486c-.073-.062-.27-.249-.519-.508s-.591-.674-1.09-1.339a19.427 19.427 0 0 1-1.269-1.833l-.049-.086a13.156 13.156 0 0 1-1.012-2.384l-.026-.096a9.2 9.2 0 0 1-.519-2.852v-.012a9.721 9.721 0 0 1 2.599-7.269l-.005.006A9.634 9.634 0 0 1 10.318.52l-.027-.001c.95.008 1.858.175 2.704.474l-.058-.018c.93.322 1.736.733 2.474 1.237l-.035-.023c.706.477 1.318.923 1.826 1.349.27.218.529.446.789.685.249-.239.519-.467.789-.685a22.76 22.76 0 0 1 1.826-1.349A10.133 10.133 0 0 1 22.972.997l.072-.022a8.14 8.14 0 0 1 2.642-.457h.004a9.664 9.664 0 0 1 7.154 2.6l-.006-.005a9.715 9.715 0 0 1 2.624 7.291l.001-.028c0 3.03-1.515 6.122-4.493 9.172L19.484 30.962a2.064 2.064 0 0 1-1.499.518h.006z"/></svg>