<svg version="1.1" id="Layer_1" xmlns="http://www.w3.org/2000/svg" x="0" y="0" viewBox="0 0 490.88 452.07" xml:space="preserve"><style>.st0{fill:#f7c01c}</style><path d="M78.32 217.03c-.61-.72-1.22-1.52-1.9-2.24-5.27-5.58-2-13.24 2.3-15.8 2.46-1.47 5.14-1.03 6.75 1.11 1.07 1.43 1.41 3 .53 4.6-.94 1.7-2.43 2.67-4.47 2.9.04-.23.04-.36.09-.44.69-1.1.64-1.97-.16-2.51-.8-.54-1.99-.25-2.63.66-.99 1.42-1.24 3.03-.94 4.7.24 1.35 1.8 2.37 3.62 2.44 2.15.08 3.87-.85 5.25-2.44 2.05-2.37 2.95-5.28 3.67-8.25 1.49-6.16 2.01-12.45 2.44-18.75.29-4.26.74-8.51 1.08-12.77.28-3.46.54-6.93.77-10.39.45-6.95 2.4-13.51 5.08-19.88 4.38-10.39 10.52-19.56 18.82-27.22 4.8-4.43 10.29-7.84 15.98-10.98 5.64-3.11 11.41-5.97 16.95-9.25 8.88-5.25 16.17-12.23 22.38-20.39 3.83-5.04 7.25-10.34 10.43-15.81.11-.19.33-.36.19-.71-1.58 2.11-3.1 4.2-4.68 6.25-5.45 7.05-11.4 13.61-18.64 18.9-5.41 3.95-11.28 7.15-17.19 10.26-11.12 5.83-21.52 12.76-31.28 20.66-10.98 8.89-17.5 20.36-20.3 34.12-1.31 6.41-2.33 12.82-1.9 19.38.29 4.38.65 8.76.84 13.15.2 4.81-.03 9.59-1.43 14.24-.12.4-.14 1.04-.59 1.09-.56.06-.63-.63-.86-1.02-1.82-3.04-2.22-6.47-2.62-9.89-.92-7.83-1.53-15.68-1.19-23.56.67-15.74 5.05-30.22 15.12-42.63 4.8-5.92 10.66-10.69 16.83-15.09 8.34-5.94 17.36-10.69 26.48-15.25 7.89-3.94 15.56-8.22 22.41-13.83 5.84-4.79 11.2-10.03 15.27-16.47 1.48-2.35 2.53-4.9 3.54-7.47.88-2.23 1.74-4.47 3.03-6.51.3-.46.53-1 .65-1.54.22-.97-.22-1.72-1.04-2.23-.83-.52-1.56-.17-2.17.41-.99.93-1.35 2.23-1.95 3.4-4.29 8.37-8.69 16.69-15.53 23.35-4.74 4.61-10.27 8.16-15.96 11.43-13.31 7.66-26.8 15-40.36 22.2a54.745 54.745 0 0 1-7.69 3.36c-.47.16-.93.5-1.54.26.34-1.07 1.11-1.84 1.78-2.67 5.22-6.43 11.78-11.24 18.82-15.44 9.92-5.93 19.91-11.75 29.47-18.26 5.13-3.49 10.23-7.01 14.66-11.4 2.45-2.43 4.28-5.39 6.6-7.92 3.57-3.89 7.24-7.68 10.56-11.79.67-.83 1.41-.96 2.44-.64 2.24.7 4.08 1.95 5.75 3.57 2.21 2.14 4.44 4.27 6.94 6.08 2.77 2 5.96 2.76 9.25 2.94 6.85.38 13.4 2.13 19.91 4.08 5.15 1.54 10.41 2.47 15.78 2.74 3.8.19 7.32 1.39 10.48 3.45 4.56 2.98 9.62 4.21 14.94 4.7 5.16.47 10.11 1.95 15.12 3.16 3.91.95 7.83 1.5 11.85.53 1.62-.39 3.27-.08 4.83.52 2.25.85 4.54 1.57 6.92 1.92 1.27.19 1.41.88 1.24 1.94-.89 5.51-2.8 10.65-5.42 15.55-3.4 6.35-7.55 12.26-11.15 18.49-5.78 9.99-10.04 20.52-11.79 31.99-1.52 9.99-1.64 19.91 1.55 29.64 2.97 9.05 8.36 16.21 16.76 20.93.36.2.7.54 1.31.42-.91-1.29-1.79-2.51-2.64-3.75-4.72-6.84-8.73-14.05-11.51-21.92-5.01-14.19-3.83-27.89 3.1-41.17 3.58-6.87 8.09-13.14 12.41-19.53 3.78-5.6 7.48-11.26 10.23-17.47 1.97-4.45 3.39-9.06 3.99-13.89.15-1.17.75-1.63 1.82-1.85 2.12-.44 4.3-.34 6.43-.67 2.6-.39 4.19-1.8 4.77-4.37.77-3.43 1.04-6.87.29-10.34-.08-.38-.13-.77-.08-1.19.75 1.56 1.27 3.19 1.69 4.86.77 3.03.83 6.08.2 9.15-.33 1.59-1 3.08-2.32 3.94-3.09 2.02-3.17 4.94-2.96 8.14.44 6.68.6 13.39-1.76 19.8-2.14 5.82-2.41 11.75-1.93 17.84.59 7.49 2.8 14.4 7.01 20.65 3.63 5.39 8.53 9.26 14.3 12.11.97.48 2 .81 3.07 1.01 2.89.54 5.09-.36 6.67-2.85.59-.93 1.03-1.96 1.59-3.03.54.4.51.91.54 1.41.13 2.1-.25 4.13-.77 6.16-1.07 4.16-4.3 4.69-7.07 4.29-3.39-.49-6.26-2.08-8.82-4.31-2.17-1.89-4.12-4.03-6.43-5.77-.34-.26-.7-.5-1.12-.67 3.04 4.1 5.98 8.28 10.66 10.76 5.08 2.7 13.61 2.04 17.56-4.78.17-.28.27-.8.7-.69.42.1.34.6.32.94-.15 3.96-1.79 7.21-4.99 9.51-1.93 1.38-4.2 1.05-6.37.47-1.38-.37-2.73-.82-4.11-1.16 3.34 2.58 7.03 3.25 11.14 2.23 4.08-1.01 7.14-3.1 8.46-7.61.86 1.65.79 3.05.58 4.39-.84 5.26-6.44 9.24-11.71 8.5-3.68-.51-7.1-1.68-10.14-3.76-8.34-5.73-16.61-11.57-23.62-18.97-4.01-4.23-7.3-8.9-8.67-14.71-.85-3.63-.82-7.29-.26-10.96.04-.27.07-.54.14-1.13-1.46 2.03-2.22 3.99-2.3 6.18-.23 6.49 1.93 12.26 5.53 17.53 4.09 5.99 9.72 10.33 15.61 14.39 7.96 5.49 16.49 9.95 25.11 14.29 5.11 2.57 10.31 4.96 15.06 8.19 4.18 2.84 7.68 6.28 9.42 11.18 1.08 3.04 1.38 6.15.66 9.32-.07.32 0 .85-.46.88-.42.03-.48-.48-.62-.79-.35-.81-.74-1.61-.98-2.45-1.61-5.63-5.15-9.77-10.2-12.48-8.78-4.72-17.17-10.08-25.51-15.52-.29-.19-.6-.34-.93-.45 3.89 4.54 8.49 8.19 13.77 10.99 3.35 1.78 6.78 3.41 10.01 5.44 9.42 5.92 10.8 17.41 7.36 24.66-.9 1.9-2.11 3.58-3.68 4.99-.2.18-.39.5-.7.34-.32-.16-.14-.5-.1-.76.26-1.5.73-2.95 1.28-4.37 3.78-9.64-1.89-17.81-8.75-21.23-3.62-1.81-7.24-3.58-10.29-6.3-.53-.47-1.19-.8-1.83-1.14-.37-.2-.83-.61-1.2-.33-.4.29-.09.82.02 1.23.86 3.16 1.27 6.35.47 9.59-.44 1.78-1.18 3.49-1.5 5.3-.36 2.01-.14 3.92 1.17 5.57 1.37 1.72 4.24 1.7 5.56-.03.28-.37.7-.87.21-1.26-.42-.34-.65.27-.91.52-.55.52-1.09 1.3-1.88.49-.73-.74-.25-1.48.34-2.09 1.49-1.55 3.36-1.79 4.82-.64 1.72 1.36 2.18 4.03 1.03 5.99-1.83 3.12-5.74 4.39-9.09 2.9-2.77-1.23-4.73-3.38-6.33-5.87-2.06-3.22-3.24-6.82-3.78-10.54-1.42-9.8-6.55-17.44-13.52-24.1-5.08-4.85-10.69-9.03-16.39-13.09-3.55-2.53-6.94-5.27-10.59-7.68-.52-.34-1.07-.64-1.8-1.08.12 1.02.65 1.49 1.11 2.02 5.46 6.3 11.97 11.42 18.48 16.53 4.79 3.76 9.48 7.62 13.21 12.5 3.68 4.81 6.45 10.1 8.39 15.83 1.05 3.1 1.97 6.26 3.44 9.2 1.12 2.24 2.51 4.27 4.58 5.77 4.14 3.02 11.01 2.76 14.9-.59 2.09-1.8 2.74-4.38 1.75-6.96-.95-2.46-2.95-3.74-5.73-3.66-2.66.08-4.73 1.69-5.57 4.32-.39 1.23-.81 1.32-1.72.36-1.24-1.3-1.2-3.37.25-5.02 2.94-3.32 8.28-5.15 12.91-2.14 6.08 3.95 9.03 13.35 1.9 20.67-.69.71-1.48 1.34-2.28 1.94-.79.59-1.65 1.09-2.51 1.65.35.3.72.16 1.06.16 26.32.01 52.64.01 78.96.01 1.6 0 1.59 0 1.62-1.56.08-5.4.06-10.8-.27-16.19-1.14-18.58-4.74-36.67-11.04-54.2a191.2 191.2 0 0 0-27.88-51.35c-12.86-16.92-28.05-31.4-45.59-43.41-7.24-4.95-14.78-9.4-22.63-13.31-.18-.09-.36-.17-.53-.27-.34-.2-.82-.37-.59-.88.31-.65.76-.17 1.1-.01 3.31 1.61 6.55 3.34 9.75 5.17 14.38 8.21 27.52 18.08 39.39 29.64 26.98 26.28 45.04 57.67 53.97 94.28 2.17 8.9 3.63 17.92 4.49 27.05.76 8.05 1.09 16.11.85 24.19-.56 18.48-3.52 36.56-9.17 54.18-7.79 24.34-19.9 46.31-36.39 65.82-22.6 26.75-50.3 46.3-83.26 58.27a189.193 189.193 0 0 1-39.87 9.72c-7.06.93-14.14 1.45-21.25 1.7-6.25.22-12.47.06-18.69-.37-21.26-1.46-41.78-6.2-61.47-14.4-19.43-8.1-37.08-19.08-52.96-32.91-16.58-14.45-30.43-31.15-41.42-50.21-10.55-18.31-17.88-37.84-22.01-58.56a196.07 196.07 0 0 1-3.4-26.12c-.38-6.11-.55-12.22-.35-18.34.85-25.83 6.37-50.6 16.99-74.19 8.03-17.85 18.56-34.11 31.51-48.8 13.54-15.36 29.06-28.34 46.62-38.87a190.65 190.65 0 0 1 34-16.06c.46-.16 1.19-.8 1.45-.14.33.83-.65.94-1.21 1.14-14.94 5.37-29.03 12.44-42.17 21.33C111 67.4 89.94 90.44 74.59 118.66c-9.69 17.81-16.28 36.73-19.98 56.66-1.37 7.39-2.26 14.84-2.77 22.34-.4 6.03-.47 12.06-.42 18.1.01.71-.04 1.34 1.02 1.34 8.69-.09 17.37-.07 25.88-.07zm10.37 107.96c27.28 38.57 85.87 84.99 170.58 79.44 28.54-1.87 55.38-9.85 80.39-23.77 24.99-13.91 45.82-32.53 62.92-55.66-104.8-.01-209.32-.01-313.89-.01zm155.72-232.4c-.15 1.74.19 2.56 1.4 3.43 3.08 2.22 7.29.41 7.77-3.48.72-5.75-1.19-10.64-5.42-14.56-3.04-2.82-6.73-4.59-10.58-5.99-8.52-3.11-17.16-5.89-25.36-9.86-5.23-2.54-9.96-5.58-13.39-10.39-.72-1.01-.84-.96-1.34.18-2.2 5.04-2.16 9.99.5 14.88 1.24 2.28 2.56 4.52 3.48 6.97 1.52 4.03.43 6.97-3.36 9.06-1.19.65-2.44 1.14-3.69 1.67 2.84.03 5.34-1.05 7.75-2.46-1.5 1.89-3.5 2.99-5.65 3.88 1.9-.26 3.56-1.17 5.32-1.85-1.7 1.71-3.88 2.58-6.01 3.54 2.5-.02 4.62-1.09 6.65-2.49.16 1.56-.41 4.33-1.08 5.79-1.41 3.07-3.56 5.58-5.95 7.91-1.28 1.26-2.6 2.49-3.47 4.11-1 1.87-.87 3.62.53 5.22.73.84 1.57 1.59 2.34 2.41 2.73 2.9 2.91 5.27.66 8.51-.87 1.26-.8 2.35.25 3.46 1.14 1.2 2.63 1.78 4.13 2.35.51.19 1.4.11 1.47.6.1.64-.81.71-1.27 1.04-2.11 1.49-2.25 3.35-.3 5.05.51.44 1.09.81 1.67 1.15 1.37.82 1.99 2 1.9 3.6-.08 1.42-.6 2.73-.85 4.1-.53 2.89-.16 5.54 2.37 7.44 1.63 1.23 3.52 1.85 5.57 1.98 3.35.21 6.37-.9 9.32-2.32 3.28-1.57 6.36-3.54 9.74-4.91 1.1-.45 1.36-.3 1.42.89.26 4.73-.11 9.45-2.11 13.74-2.46 5.28-3 10.83-3.1 16.47-.11 6.19-.07 12.39.09 18.59.2 7.87.58 15.73 1.26 23.57.08.87.35 1.17 1.23 1.16 3.16-.04 6.32-.04 9.48 0 1.07.01 1.3-.33 1.06-1.36-.79-3.3-1.61-6.6-2.13-9.96-.43-2.78-.73-5.56.2-8.3.23-.68.62-1.23 1.43-1.25.77-.03 1.27.38 1.58 1.06 1.39 3 1.85 6.19 1.73 9.46-.11 2.99-.39 5.98-.4 8.98 0 1.02.29 1.39 1.37 1.38 5-.05 10-.02 15-.03.34 0 .8.19.99-.18.19-.36-.21-.65-.39-.94-4.07-6.92-9.19-12.95-15.28-18.19-4.51-3.89-8.89-7.93-12.85-12.41-1.59-1.8-3.02-3.73-4.06-5.91-.33-.69-.3-1.33.27-1.86.57-.53 1.24-.51 1.89-.14.35.2.67.43 1 .66 3.37 2.42 6.29 5.32 8.9 8.52 4.35 5.32 8.32 10.95 12.94 16.07 4.02 4.45 8.18 8.78 11.46 13.84.34.52.82.56 1.36.56 8.44 0 16.88-.01 25.32.01.86 0 1.06-.25 1.01-1.1-.37-5.93-2.13-11.46-4.77-16.72-4.36-8.68-8.75-17.35-12.93-26.12-.42-.88-.84-1.76-1.26-2.63-.18.83-.17 1.58-.08 2.32.54 4.87 1.94 9.54 3.37 14.21 1.53 5 3.19 9.97 3.87 15.2.71 5.54-1.6 10.41-6.32 12.92-4.73 2.51-9.49.86-11.38-3.93-.8-2.02-1-4.12-.75-6.25.21-1.69.76-3.29 2.06-4.49 1.47-1.36 3.2-1.83 5.1-1.18 1.79.61 2.78 1.96 3.06 3.81.27 1.79-1.03 3.2-2.81 3.11-.04-.33.23-.49.41-.69.71-.79.51-1.54-.12-2.25-1.06-1.18-2.88-1.02-3.62.44-1.13 2.23-.99 4.51.29 6.64 1.15 1.91 3.01 2.37 5.1 2.15 2.14-.23 3.89-1.85 4.57-4.21.65-2.28.58-4.58.17-6.89-.77-4.3-2.77-8.07-5.15-11.66-2.32-3.5-4.74-6.94-7.04-10.44-3.48-5.3-6.51-10.83-8.38-16.93-2.51-8.2-4.16-16.59-4.91-25.13-.42-4.83-.33-9.66 1.75-14.24 1.67-3.68 4.08-6.86 6.44-10.09.26-.36.86-.72.57-1.19-.22-.35-.83-.15-1.25-.09-2.73.4-5.43.17-8.11-.31-4.17-.76-8.03-2.19-10.89-5.54-.68-.8-1.35-1.64-1.6-3.02 1.45.97 2.66 1.87 3.95 2.62 5 2.94 10.29 4.33 16.07 2.7 5.42-1.53 9.48-5.7 10.52-10.82-.03.02-.07.04-.09.06-.29.38-.59.76-.88 1.14-4.25 5.6-9.67 8.65-16.91 8.12-5.4-.39-9.72-3.83-11.04-9.1-1.1-4.4.68-8.41 4.5-10.14 2.9-1.31 6.08-.56 7.73 1.83 1.16 1.68.7 4.07-.98 5.04-1.54.9-3.13.27-4.03-1.6zm-16.57 182.29c0 12.16.01 24.32-.02 36.47 0 1.14.32 1.55 1.49 1.52 2.88-.07 5.76-.07 8.64 0 1.21.03 1.58-.36 1.57-1.57-.05-7.96-.02-15.92-.02-23.88 0-1.48.02-2.96 0-4.44-.02-.82.33-1.16 1.15-1.14 1.72.05 3.43-.06 5.15.2 2.73.41 4.54 1.85 5.36 4.49.48 1.54.67 3.12.68 4.73.02 5.24.01 10.48.03 15.72.01 1.6.24 3.18.62 4.74.19.78.56 1.14 1.4 1.14 3.24-.03 6.48-.03 9.72 0 .82.01.92-.26.69-1.01-.62-2-.79-4.06-.83-6.15-.1-5.83.3-11.68-.23-17.5-.46-5-2.06-9.39-6.93-11.83-.75-.37-.63-.67.03-1.03 3.65-2.02 5.75-5.21 6.41-9.23.95-5.79.97-11.64.01-17.42-.93-5.55-4.23-9.18-9.73-10.7-2.29-.64-4.63-.88-6.99-.89-5.44-.03-10.88-.01-16.32-.01-1.85 0-1.85 0-1.85 1.8-.03 11.99-.03 23.99-.03 35.99zm-114.83.07c0-6.76.01-13.52 0-20.28 0-1.29.14-2.56.5-3.79.81-2.77 2.87-4.13 6.14-4.09 2.96.04 4.96 1.5 5.7 4.2.33 1.2.48 2.43.48 3.67v6.6c0 .6.02 1.14.85 1.14 3.08-.01 6.16 0 9.24 0 .53 0 .84-.21.83-.78-.07-4.66.4-9.36-.95-13.94-1.65-5.59-5.18-9.31-10.87-10.75-3.73-.94-7.53-.94-11.29-.08-5.37 1.23-8.99 4.48-10.86 9.67-1 2.78-1.36 5.67-1.37 8.6-.03 12.96-.01 25.92-.02 38.87 0 2.04.14 4.08.5 6.08 1.21 6.69 4.77 11.34 11.59 13.04 2.89.72 5.84.78 8.81.43 7.57-.89 12.6-5.55 13.97-13.04.9-4.92.38-9.89.51-14.84.02-.73-.43-.84-1.02-.83-2.96.01-5.92.03-8.88-.01-.92-.01-1.04.46-1.03 1.2.02 2.92-.01 5.84.01 8.76.01 1.08-.08 2.16-.25 3.22-.43 2.75-2.06 4.49-4.64 4.98-3.96.75-6.91-1.04-7.64-4.68-.19-.98-.3-1.97-.3-2.98-.01-6.77-.01-13.57-.01-20.37zm270.04-17.54c1.36 0 2.72-.05 4.08.02 1.02.05 1.42-.27 1.4-1.35-.03-2.12-.13-4.24-.52-6.32-1.13-6-4.15-10.49-10.19-12.53-3.14-1.06-6.38-1.08-9.61-.82-6.68.52-11.46 4.32-13.47 10.69-1.47 4.63-1.54 9.36-.49 14.09 1.17 5.29 4.14 9.55 7.87 13.35 3.19 3.25 6.74 6.14 9.83 9.5 3.43 3.72 5.4 7.96 4.94 13.16-.3 3.42-2.28 5.68-5.35 5.89-4.16.28-6.33-1.22-7.07-4.97-.44-2.21-.16-4.47-.21-6.7-.02-.74-.23-1.11-1.02-1.1-2.96.02-5.92.01-8.88 0-.67 0-1.06.23-1.06.97.02 3.23-.18 6.48.55 9.67 1.36 6.01 4.69 10.28 10.78 12 4.12 1.17 8.31 1.17 12.44.04 5.08-1.39 8.5-4.64 10.19-9.62 1.63-4.81 1.71-9.73.61-14.66-1.31-5.9-4.88-10.41-9.1-14.52-3.06-2.98-6.42-5.66-9.21-8.93-3.4-3.99-5.07-8.47-4.09-13.74.56-3.01 2.5-4.65 5.47-4.73 3.47-.09 5.43 1.3 6.2 4.41.41 1.64.44 3.32.39 5-.03.87.31 1.23 1.19 1.21 1.45-.04 2.89-.01 4.33-.01zm-89.71 17.46c0 12.16 0 24.32-.01 36.47 0 .89.03 1.53 1.23 1.52 9.96-.03 19.92-.03 29.87 0 .99 0 1.21-.42 1.2-1.3-.04-2.6-.06-5.2.01-7.8.03-1.13-.36-1.42-1.44-1.41-5.84.04-11.68.02-17.52.02-1.69 0-1.7-.01-1.7-1.63V281.3c0-1.58.03-1.6 1.62-1.61 4.48-.01 8.96-.02 13.44.01 1 .01 1.32-.34 1.3-1.32-.05-2.56-.07-5.12.01-7.68.03-1.14-.32-1.53-1.49-1.51-4.44.06-8.88-.01-13.32.05-1.2.02-1.59-.35-1.58-1.57.05-6.12.02-12.24.03-18.36 0-1.58.01-1.58 1.61-1.58 5.88 0 11.76-.03 17.64.02 1.13.01 1.44-.36 1.41-1.44-.07-2.52-.02-5.04-.02-7.56 0-1.67 0-1.67-1.62-1.67h-29.03c-1.63 0-1.63 0-1.63 1.67-.01 12.04-.01 24.08-.01 36.12zm-127.2.08c0 12.12.01 24.24-.01 36.35 0 .94.04 1.58 1.31 1.57 9.92-.04 19.84-.03 29.75-.01.94 0 1.26-.32 1.25-1.26-.05-2.6-.07-5.2.01-7.8.04-1.2-.4-1.47-1.52-1.46-5.88.05-11.76-.01-17.64.05-1.23.01-1.56-.38-1.55-1.58.05-6.48.02-12.96.03-19.44 0-1.67.01-1.68 1.65-1.68 4.4 0 8.8-.03 13.2.02 1.11.01 1.57-.26 1.54-1.46a131.1 131.1 0 0 1 0-7.68c.03-1.06-.34-1.38-1.38-1.37-4.48.05-8.96-.01-13.44.04-1.18.01-1.6-.32-1.58-1.56.06-6.12.02-12.24.03-18.36 0-1.59.01-1.6 1.58-1.6h17.4c1.67 0 1.67 0 1.67-1.61v-7.44c0-1.59 0-1.6-1.57-1.6h-28.91c-1.79 0-1.79 0-1.79 1.75-.03 12.05-.03 24.09-.03 36.13zm-61.52-79.29l.28.06c.86-3.32 1.7-6.64 2.57-9.96 1.89-7.28 4.47-14.18 9.01-20.36 11.65-15.82 24.71-30.4 38.38-44.45 5.74-5.9 11.6-11.7 17.4-17.55.99-1 1.82-2.11 2.62-3.27 3.63-5.27 6.2-11.08 8.65-16.95 1.64-3.94 3.33-7.86 5-11.79-.51.43-.83.96-1.15 1.49-6.57 11.04-13.61 21.76-21.58 31.85-5.23 6.62-11.06 12.49-18.42 16.77-5.56 3.23-10.5 7.3-14.96 11.93-4.73 4.91-8.89 10.27-12.78 15.86-3.3 4.73-6.44 9.55-8.68 14.89-2.56 6.09-3.87 12.51-4.78 19.01-.59 4.14-1.04 8.31-1.56 12.47zm117.9-25.28c-.28.34-.53.63-.76.94-1.75 2.29-3.18 4.79-4.65 7.27-1.77 2.98-4.12 5.38-7.11 7.15-1.42.85-2.64 1.93-3.68 3.22-1.91 2.36-3.82 4.72-5.76 7.06-5.17 6.27-9.92 12.84-13.96 19.9-.51.9-.39 1.13.65 1.12 5.24-.03 10.47-.04 15.71.01.98.01 1.49-.3 1.92-1.19 2.99-6.32 5.97-12.65 8.63-19.12 3.39-8.24 6.81-16.47 8.95-25.15.1-.37.33-.73.06-1.21zM91.96 214.86c4.14-3.23 6.5-7.35 7.81-12.15 1.17-4.27 1.46-8.66 1.68-13.05.15-2.83.29-5.66.63-8.48.63-5.31 2.2-10.39 4-15.4 3.75-10.43 9.4-19.65 17.32-27.46 5.16-5.09 10.77-9.66 16.27-14.37 7.62-6.53 15.28-13.03 22.35-20.17 1.81-1.82 3.62-3.65 5.16-5.73-.38.17-.71.38-1.03.61-6.8 4.79-13.61 9.57-20.39 14.38-9.45 6.69-18.51 13.85-26.06 22.72-7.71 9.06-13.74 19.06-16.79 30.67-2.07 7.87-2.81 15.96-4.21 23.95-1.47 8.3-2.86 16.62-6.74 24.48zm60.13-76.45c-.44.17-.63.22-.8.31-8.33 4.25-15.52 9.92-20.91 17.6-9.07 12.94-16.03 26.89-19.69 42.38-1.37 5.8-3.2 11.48-6.23 16.68-.28.48-1.06 1.28-.65 1.46.81.36.95-.73 1.24-1.25 2.96-5.18 5.71-10.47 8.11-15.92 6.74-15.25 15.71-29.1 26.01-42.15 3.99-5.05 8.07-10.04 11.26-15.67.59-1.03 1.19-2.06 1.66-3.44zm110.44 8.09c2.23-5.99 4.37-12.01 6.7-17.96 2.16-5.54 4.2-11.14 7.51-16.16 2.31-3.5 4.49-7.09 6.57-10.73 2-3.49 4.2-6.9 5.42-10.8 1.32-4.23 2.46-8.52 3.46-12.84.19-.81.33-1.66.34-2.49.01-2.66-1.59-3.82-4.05-3.02-.61.2-1.28.48-1.87.23-1.3-.57-1.54.11-1.6 1.15-.01.2-.04.4-.06.6-.57 5.38-1.6 10.63-3.74 15.66-3.45 8.09-7.58 15.86-11.2 23.87-1.83 4.04-3.99 7.94-4.77 12.37-1.18 6.68-1.44 13.49-2.71 20.12zm-77.34-22.83c-.06-.04-.12-.08-.19-.13-.23.26-.46.51-.68.79-4.65 5.86-8.98 11.96-13.27 18.08-8.02 11.44-16.42 22.56-25.82 32.92-7.95 8.76-15.15 18.08-20.61 28.65-2.06 3.98-4.07 7.98-6.01 12.01-.35.74-.33 1.1.63 1.04.84-.05 1.69-.08 2.52.01 1.04.1 1.57-.35 2.02-1.26 3.12-6.36 6.54-12.55 10.5-18.44 6.23-9.27 13.27-17.93 20.06-26.79 10.47-13.67 20.12-27.88 28.65-42.85.75-1.32 1.47-2.68 2.2-4.03zm1.96 16.55c-1.79 3.75-3.58 7.5-5.38 11.24-4.19 8.7-8.83 17.14-15.06 24.59-6.63 7.93-12.71 16.23-17.98 25.13-2.89 4.88-5.91 9.69-8.51 14.74-.4.77-.42 1.15.63 1.12 1.64-.05 3.28-.05 4.92 0 .83.03 1.21-.34 1.5-1.06.66-1.63 1.35-3.25 2.1-4.84 4.43-9.41 10.32-17.93 16.13-26.51 5.38-7.95 10.73-15.91 14.73-24.69 2.89-6.36 4.9-13.05 6.92-19.72zm-75.74 72.43l1.11-2.37c3.72-8.06 7.55-16.07 12.46-23.5 3.71-5.61 7.47-11.22 12.49-15.75 6.91-6.23 13.29-12.94 18.95-20.32 5.46-7.11 10.86-14.25 14.78-22.37 1.58-3.26 3.04-6.57 4.32-9.96-.37.48-.68.99-.97 1.5-2.01 3.5-4.12 6.95-6.6 10.15-5.05 6.51-10.48 12.71-15.74 19.04-10.18 12.24-20.07 24.69-29.02 37.88-5.39 7.94-8.78 16.71-11.78 25.7zm110.91-31.52c-.17.4-.35.79-.51 1.19-1.87 4.62-2.69 9.52-3.67 14.36-1.29 6.38-2.24 12.81-3.19 19.25-.12.78.1 1.11.92 1.1 2.6-.03 5.19-.02 7.79 0 .77.01.95-.33.87-1.04-.44-3.89-.44-7.81-.58-11.71-.19-5.35.11-10.71-.32-16.05-.2-2.38-.48-4.75-1.31-7.1zm122.46 12.7c.63-1.76.51-3.29.3-4.84-.38-2.84-.21-5.79-1.44-8.46-3.19-6.93-7.34-13.18-13.11-18.28-3.57-3.16-7.49-5.86-11.22-8.81-4.32-3.41-8.07-7.39-11.57-11.61-2.63-3.17-4.49-6.75-5.27-10.91-.83.56-.74 1.19-.55 1.88 1.07 3.82 2.84 7.29 5.14 10.49 4.05 5.63 9.26 10.14 14.37 14.73 8.63 7.76 15.44 16.81 19.93 27.55 1.12 2.7 2.22 5.38 3.42 8.26zm-161.19-10.45c-6.79 6.8-13.87 13.28-20.23 20.47-3.25 3.67-5.93 7.73-8.2 12.07-.49.94-.28 1.15.71 1.12 1.8-.05 3.6-.04 5.4-.01.68.01 1.11-.2 1.41-.85 3.68-7.96 8.72-15.06 13.82-22.14 2.49-3.45 4.94-6.95 7.09-10.66zm159.44 33.57c-.12-.11-.19-.2-.28-.26-4.25-2.29-7.34-5.72-9.75-9.84-2.16-3.7-4.01-7.55-5.92-11.38-2.02-4.05-4.09-8.06-6.69-11.77-4.08-5.85-9.38-10.45-15.13-14.57-2.2-1.58-4.44-3.1-7.09-4.64.32.64.48.99.67 1.32 1.08 1.93 2.47 3.63 4.02 5.21 2.94 3 6.32 5.52 9.35 8.43 7.24 6.97 12.64 15.24 16.87 24.29 1.65 3.52 3.89 6.49 6.93 8.89 1.54 1.21 3.07 2.44 4.55 3.71.73.64 1.5.81 2.47.61zm-55.36-23.72c.01.11.01.23.05.33 2.81 7.51 6.22 14.81 7.73 22.75.1.53.4.72.92.72 2.6-.01 5.19-.01 7.79 0 .73 0 .8-.34.58-.91-.33-.81-.62-1.64-.99-2.44-1.34-2.87-3.08-5.5-5.01-8-3.39-4.4-7.24-8.39-11.07-12.45zm-17.9-104.97c.21-.59.44-1.18.62-1.78.71-2.34 1.15-4.72 1.33-7.17.38-5-.93-9.21-5.22-12.23-4.85-3.41-10.19-5.62-15.95-6.88-.42-.09-.86-.35-1.46-.08.48.33.83.58 1.19.82 4.62 3.07 9.36 5.98 13.53 9.7 2.99 2.66 5.21 5.68 5.83 9.75.4 2.63.45 5.22.13 7.87zm67.15 65.42c-2.47-2.56-4.96-5.09-7.39-7.68-4.06-4.31-8.14-8.61-11.12-13.79-3.11-5.42-4.64-11.15-3.65-17.47.6-3.79 1.72-7.38 3.19-10.9.53-1.26 1.11-2.51 1.35-3.87-1.8 3.75-3.61 7.49-4.74 11.51-2.09 7.45-1.99 14.69 1.93 21.6 1.89 3.33 4.23 6.31 6.82 9.1 4.07 4.38 8.28 8.59 13.61 11.5zm-42.21 71.77c-.76-.18-.84.23-.92.71-.12.71.22.88.85.96 9.97 1.29 19.94 2.58 29.9 3.91.73.1 1.15.05 1.26-.76.12-.9-.52-.81-1.07-.88-5.81-.77-11.62-1.56-17.44-2.32-4.24-.56-8.47-1.09-12.58-1.62zm-127.68 5.64c.16-.03.31-.07.47-.09l21.12-2.73c2.93-.38 5.85-.79 8.78-1.16.65-.08.91-.28.83-.98-.09-.74-.44-.78-1.06-.68-1.22.2-2.45.32-3.68.48-5.77.75-11.55 1.51-17.32 2.27-3.09.4-6.17.81-9.26 1.21-.55.07-.81.33-.68.87.11.42.15.93.8.81zm140.71-28.75c.16 1.24.54 2.11.94 2.97 1.64 3.56 3.97 6.75 5.57 10.32.51 1.14 1.2 1.5 2.4 1.43.88-.05 1.01-.31.74-1.08-1.2-3.46-2.81-6.69-5.17-9.52-1.24-1.51-2.6-2.89-4.48-4.12zm-91.79-3.7c-.09-.04-.18-.07-.27-.11-1.27 2.66-2.61 5.29-3.8 7.98-1.39 3.14-2.64 6.34-3.99 9.5-.34.8-.19 1.05.69 1.03 3.37-.08 2.64.41 3.4-2.62.01-.04.02-.08.03-.11 1.31-5.23 2.63-10.45 3.94-15.67z"/><path d="M291.33 8.73c.36-.17.63.07.89.21 10.23 5.22 19.68 11.47 27.12 20.41 2.23 2.68 4.08 5.64 6.38 8.25.5.57.99 1.3.38 2.05-.61.75-1.33 1.27-2.48.91-2.21-.69-4.49-1.11-6.8-1.4-1.06-.13-2.03-.07-2.99.5-2.05 1.2-4.23 2.04-6.61 2.4-1.67.25-3.29.07-4.86-.4-5.17-1.58-10.33-1.41-15.5-.11-.87.22-1.66.08-2.47-.14-3.89-1.09-7.77-2.17-11.79-2.67-3.45-.43-6.92-.7-10.4-.59-.87.03-1.62-.16-2.37-.63-2.95-1.86-6.29-2.55-9.67-2.96-3.8-.46-7.25-1.55-10.45-3.78-4.87-3.39-10.51-5.21-16.01-7.28-2.24-.84-4.47-1.73-6.83-2.25-2.37-.52-4.75-.54-7.15-.24-5.31.67-5.91.6-10.26-1.59.54.94.1 1.54-.42 2.08-.64.66-1.31 1.29-1.99 1.91-.64.6-.57.93.29 1.21 2.09.69 4.11 1.57 6.07 2.56.29.14.57.3.84.46.46.28.93.6.65 1.23-.26.6-.78.58-1.33.42-2.03-.6-4.06-1.2-6.15-1.6-1.48-.29-2.97-.58-4.47-.79 3.17 1.09 6.35 2.16 9.45 3.42 1.11.45 2.21.93 3.31 1.4.48.21.82.53.7 1.11-.11.52-.53.69-.99.71-6.1.32-12.06-.14-17.59-3.06-.66-.35-1.48-.73-.91-1.72.52-.9 1.24-1.01 2.12-.42.49.33 1.07.54 1.62.78.21.09.43.14.73.08-.6-.5-1.21-.98-1.79-1.49-.41-.36-.61-1.03-.13-1.22.95-.37.96-1.21 1.33-1.89 1-1.82 2.33-3.45 4.25-4.26 1.69-.71 2.98-1.9 4.42-2.92 10.9-7.74 22.71-13.36 36.05-15.43 4.22-.66 8.43-1.39 12.68-1.83 3.07-.32 6.15-.09 9.22.18 5.97.53 11.92 1.23 17.77 2.57 1 .23 1.86.64 2.65 1.3 2.85 2.39 5.66 4.83 8.62 7.08 6.63 5.05 10.95 11.78 14.22 19.28.78 1.79 1.57 3.59 2.29 5.41.34.86.86 1.26 1.78 1.3 1.62.06 3.18-.16 4.73-.6.78-.23 1.02-.57.66-1.38-3.59-7.91-7.88-15.37-14.02-21.63-1.37-1.4-2.8-2.74-4.2-4.11-.22-.25-.61-.39-.59-.83zm-35.6-3.79c.34.26.67.53 1.02.79 6.22 4.52 12.13 9.42 17.22 15.21 4.09 4.65 8.05 9.43 10.85 15.02.28.55.66.61 1.17.54 1.93-.3 3.86-.63 5.8-.86.82-.1.84-.35.43-.94-1.27-1.84-2.47-3.74-3.8-5.53-5.38-7.28-11.53-13.8-19.18-18.77-4.12-2.68-8.53-4.69-13.51-5.46zm3.89 27.12c-2.7-2.94-5.05-6.04-6.82-9.58-2.3-4.62-3.47-9.6-4.7-14.57-.44-1.77-.88-3.53-1.33-5.32-.5.19-.55.54-.67.82-1.1 2.36-2.08 4.78-2.57 7.34-1.27 6.74-.84 13.08 4.55 18.16.29.27.48.62.94.68 3.61.46 7.13 1.32 10.6 2.47zM240.45 7.17c-.03-.04-.06-.09-.09-.13-1.99 1.06-4 2.1-5.98 3.18-3.8 2.07-7.31 4.58-10.75 7.19-.89.67-.7.93.24 1.23 1.1.34 2.2.73 3.26 1.19.8.35 1.3.2 1.84-.47 1.89-2.33 3.91-4.54 6.01-6.68 1.81-1.86 3.64-3.68 5.47-5.51zm-32.87 9.15c2.06-.24 4.1-.21 6.13-.17.82.02 1.45-.23 2.08-.71 3.62-2.77 7.27-5.5 10.9-8.25.52-.39 1.02-.81 1.53-1.22-7.19 2.85-14.04 6.34-20.64 10.35zm29.27.15c-.22.7-.49 1.58-.78 2.45-.36 1.1-.73 2.2-1.11 3.3-.11.33-.15.65.21.84.46.23.92.63 1.43.51.43-.1.24-.62.24-.95.01-2.12.01-4.24.01-6.15z"/><path class="st0" d="M245.65 452.07c-8.87-.08-17.72-.54-26.56-1.38-12.34-1.18-24.6-2.93-36.76-5.32-2.21-.43-2.21-.43-1.75-2.56.36-1.7.38-1.71 2.05-1.38 10.16 2.03 20.38 3.62 30.67 4.79 6.15.7 12.32 1.22 18.5 1.56 6.35.36 12.7.57 19.05.39 6.14-.17 12.28-.54 18.41-1.08 10.63-.94 21.2-2.34 31.72-4.16 2.6-.45 5.19-.94 7.77-1.49.97-.21 1.45-.06 1.67 1.02.49 2.4.54 2.38-1.83 2.85-9.45 1.87-18.97 3.36-28.53 4.5-6.9.83-13.82 1.47-20.76 1.79-4.55.23-9.09.5-13.65.47zM244.96 423.28c-7.73-.07-15.98-.55-24.21-1.4-9.91-1.02-19.75-2.44-29.52-4.35-1.86-.36-1.86-.36-1.43-2.26.06-.27.16-.54.19-.82.09-.88.52-1.1 1.39-.92 5.92 1.21 11.87 2.21 17.84 3.05 6.61.93 13.24 1.65 19.89 2.16 7.14.55 14.29.84 21.44.63 5.75-.16 11.48-.55 17.21-1.09 9.48-.89 18.89-2.21 28.25-3.9 1.34-.24 2.67-.5 4-.79.6-.13.92.06 1.03.65.01.08.05.15.06.23.55 2.98 1.07 2.53-1.92 3.1-9.54 1.81-19.13 3.31-28.8 4.28-5.8.58-11.61 1.03-17.44 1.24-2.48.09-4.96.11-7.98.19zM244.72 438.13c-7.51-.17-15.8-.63-24.07-1.59-7.59-.88-15.13-2.02-22.63-3.45-1.82-.35-1.82-.36-1.41-2.16.06-.27.14-.54.18-.82.12-1.02.67-1.15 1.6-.98 3.93.74 7.86 1.46 11.81 2.08 6.75 1.06 13.53 1.89 20.35 2.39 5.98.44 11.97.82 17.96.65 7.27-.2 14.52-.7 21.74-1.54 7.59-.87 15.13-2.01 22.62-3.5.88-.18 1.22.1 1.42.93.63 2.51.65 2.51-1.88 3-8.72 1.66-17.48 3-26.33 3.83-5.09.48-10.19.87-15.3.99-1.74.04-3.5.14-6.06.17zM344.6 4.31c1.08.23 2.08.44 3.08.67 6.41 1.53 12.82 3.08 19.24 4.6.73.17 1.32.5 1.81 1.07 4.74 5.62 9.49 11.23 14.23 16.84.15.18.28.37.43.57-.34.42-.7.16-1.01.09-7.08-1.67-14.15-3.37-21.23-5.04-.82-.19-1.41-.59-1.96-1.24-4.65-5.53-9.35-11.03-14.03-16.54-.22-.25-.54-.47-.56-1.02zM107.63 28.07c1.54-1.81 3.06-3.59 4.57-5.37 3.41-4.02 6.83-8.03 10.23-12.06.4-.48.83-.82 1.45-.97 7.04-1.66 14.08-3.33 21.12-4.99.35-.08.85-.44 1.08.01.22.4-.29.68-.54.97-4.62 5.45-9.26 10.9-13.87 16.36-.44.52-.89.86-1.55 1.02-7.12 1.69-14.23 3.39-21.35 5.08-.31.09-.66.25-1.14-.05zM13.19 194.08c-.44-.27-.53-.68-.71-1.03-3.09-6.14-6.16-12.29-9.26-18.43-.42-.83-.56-1.59-.37-2.52 1.27-6.06 2.48-12.13 3.73-18.2.08-.4-.01-.9.46-1.18.45.15.54.58.71.92 3.1 6.18 6.19 12.36 9.31 18.54.4.79.51 1.53.32 2.41-1.28 6.1-2.51 12.21-3.77 18.32-.07.38-.02.81-.42 1.17zM14.78 203.08c-.29 6.34-.57 12.69-.87 19.03-.02.41.13 1.02-.38 1.14-.4.09-.58-.48-.8-.79-4.04-5.66-8.05-11.35-12.11-17-.71-.99-.62-2.02-.57-3.09.22-4.23.45-8.46.66-12.68.09-1.8.17-3.59.26-5.39.02-.3-.1-.72.33-.79.31-.06.43.31.59.53 4.17 5.86 8.34 11.73 12.51 17.6.32.43.51.89.38 1.44zM16.69 252.18c-.67-.2-.93-.69-1.26-1.06-4.59-5.21-9.16-10.44-13.75-15.66-.64-.73-.64-1.63-.68-2.48-.28-5.54-.53-11.08-.79-16.62-.03-.56-.13-1.11-.16-1.67-.02-.31-.16-.71.17-.88.38-.2.54.25.73.46 1.44 1.6 2.88 3.21 4.3 4.84 3.13 3.58 6.2 7.2 9.4 10.71.91.99 1.13 2.07 1.19 3.26.27 5.5.53 11 .77 16.5.01.82.31 1.64.08 2.6zM17.57 165.76c-.51-1.3-.91-2.28-1.29-3.28-2.27-5.94-4.53-11.88-6.81-17.81-.19-.5-.31-.96-.14-1.51 1.97-6.29 3.93-12.59 5.9-18.89.06-.18.16-.36.24-.54.57.09.57.57.7.9 2.53 6.57 5.04 13.14 7.56 19.71.2.53.31 1.05.13 1.63-1.97 6.29-3.93 12.59-5.89 18.89-.07.2-.17.37-.4.9zM333.85 402.07c-1.6 2.6-3.08 5-4.56 7.4-2.36 3.81-4.73 7.6-7.07 11.41-.39.63-.8 1.16-1.54 1.42-6.21 2.23-12.4 4.48-18.6 6.72-.15.05-.31.07-.52.12-.14-.48.2-.77.39-1.08 3.72-6.01 7.46-12.02 11.19-18.03.3-.49.66-.87 1.22-1.08 6.2-2.24 12.4-4.49 18.6-6.73.2-.06.44-.07.89-.15zM2.49 244.77c1.75 1.47 3.47 2.89 5.17 4.32 3.85 3.24 7.69 6.51 11.56 9.73.68.57 1.1 1.19 1.27 2.07 1.21 6.03 2.47 12.06 3.71 18.09.09.46.15.92.25 1.54-1.15-.49-1.87-1.32-2.67-1.99-4.88-4.07-9.72-8.19-14.59-12.27-.45-.37-.8-.77-.91-1.35l-3.93-19.27c-.05-.23-.17-.47.14-.87zM302.3 431.18c1.87-.69 3.62-1.33 5.38-1.97 4.32-1.57 8.65-3.11 12.95-4.72 1.07-.4 2.03-.41 3.12-.04 6.4 2.16 12.82 4.26 19.23 6.38.41.13.8.29 1.4.51-.81.62-1.59.79-2.31 1.05-5.44 1.99-10.89 3.95-16.33 5.95-.91.34-1.73.36-2.66.04-6.48-2.17-12.97-4.29-19.46-6.44-.41-.14-.88-.16-1.32-.76zM35.63 307.72c-2.49-1.51-4.67-2.82-6.84-4.16-4.02-2.47-8.03-4.96-12.06-7.4-.76-.46-1.23-1.04-1.54-1.88-2.11-5.83-4.27-11.64-6.41-17.45-.13-.36-.5-.83-.2-1.11.41-.37.8.16 1.13.37 5.94 3.63 11.86 7.28 17.78 10.92.57.35.98.79 1.21 1.43 2.23 6.12 4.48 12.24 6.71 18.36.07.17.09.37.22.92zM37.77 306.66c-.54-.75-.7-1.54-.98-2.28-2.04-5.51-4.06-11.02-6.1-16.53-.23-.62-.29-1.23-.09-1.87l6.69-20.52c.07-.21.2-.4.45-.87.34.88.61 1.52.85 2.17 2.02 5.47 4.01 10.96 6.05 16.42.37.99.37 1.88.04 2.89-2.1 6.33-4.15 12.69-6.22 19.03-.14.49-.21 1.02-.69 1.56zM32.13 185.02c0 2.52.05 4.99-.02 7.45-.06 2.27-.27 4.54-.39 6.82-.11 2.03-.19 4.07-.26 6.11-.02.51-.19.92-.52 1.3-4.78 5.48-9.56 10.96-14.34 16.45-.15.17-.27.41-.66.33-.19-.62-.08-1.3-.05-1.96.21-3.91.44-7.81.65-11.72.11-2.15.19-4.31.27-6.47.02-.63.23-1.15.65-1.63 4.79-5.47 9.57-10.95 14.36-16.43.09-.13.24-.2.31-.25zM31.41 212.13c.17 2.65.37 5.23.5 7.82.2 4.07.35 8.14.55 12.21.04.8-.18 1.45-.65 2.11-4.01 5.64-7.98 11.29-11.98 16.94-.21.29-.34.86-.84.67-.37-.14-.24-.63-.26-.98-.32-5.86-.61-11.72-.95-17.58-.09-1.48.14-2.75 1.07-4.02 3.97-5.46 7.82-11.01 11.73-16.53.18-.26.28-.6.83-.64zM15.42 194.67c.5-2.55.96-4.89 1.43-7.22.85-4.19 1.72-8.37 2.56-12.56.14-.69.38-1.27.94-1.74 5.5-4.62 10.99-9.26 16.49-13.89.15-.12.32-.22.54-.37.29.47.1.9.02 1.29-1.25 6.19-2.51 12.37-3.76 18.55-.11.53-.29.98-.71 1.34-5.64 4.77-11.26 9.56-16.9 14.33-.08.07-.21.09-.61.27zM19.73 166.39c.34-1.15.6-2.05.88-2.95 1.71-5.49 3.42-10.98 5.12-16.48.22-.72.6-1.26 1.23-1.69 5.71-3.89 11.4-7.81 17.1-11.72.1-.07.19-.15.3-.2.27-.12.51-.52.83-.24.25.21.03.53-.05.79-.49 1.64-1 3.29-1.51 4.93-1.38 4.42-2.77 8.84-4.14 13.27-.21.67-.53 1.21-1.13 1.62-5.87 4.02-11.72 8.06-17.58 12.08-.24.17-.53.3-1.05.59zM24.61 137c-.33-1.48-.64-2.87-.94-4.26-1.27-5.73-2.53-11.47-3.82-17.19-.17-.74-.15-1.39.19-2.08 2.78-5.71 5.54-11.43 8.32-17.14.15-.3.2-.7.62-.83.38.32.35.8.44 1.21 1.51 6.78 3 13.57 4.51 20.35.15.66.13 1.24-.17 1.85-2.8 5.74-5.58 11.5-8.38 17.25-.13.27-.19.61-.77.84zM66.98 356.49c-2.28-.7-4.26-1.29-6.22-1.92-5.07-1.6-10.13-3.22-15.2-4.83-.55-.17-1.01-.42-1.34-.92-3.76-5.57-7.53-11.12-11.29-16.69-.04-.06-.03-.15-.05-.25.34-.33.67-.05.97.05 6.71 2.12 13.41 4.26 20.12 6.38.66.21 1.22.5 1.63 1.12 3.66 5.44 7.34 10.87 11.01 16.3.07.13.12.28.37.76zM329.27 421.03c1.14-2.64 2.24-5.21 3.34-7.77 1.73-4 3.47-7.99 5.17-12.01.44-1.04 1.07-1.76 2.1-2.3 5.45-2.87 10.85-5.82 16.27-8.74.3-.16.56-.48 1.11-.27-.51 1.21-1 2.41-1.51 3.6-2.31 5.36-4.66 10.71-6.93 16.08-.48 1.14-1.22 1.87-2.3 2.44-5.4 2.87-10.77 5.81-16.15 8.72-.26.15-.52.37-1.1.25zM38.34 111.88c.22-.95.75-1.57 1.15-2.23 3.02-4.99 6.07-9.96 9.1-14.94.39-.64.83-1.14 1.55-1.41 6.67-2.46 13.34-4.93 20-7.39.25-.09.52-.14 1.14-.3-.95 1.59-1.74 2.94-2.56 4.27-2.58 4.23-5.17 8.45-7.74 12.68-.47.77-.98 1.39-1.88 1.72-6.56 2.41-13.11 4.86-19.66 7.29-.3.13-.64.19-1.1.31zM19.16 303.75c1.25.59 2.4 1.11 3.54 1.67 5.42 2.64 10.84 5.29 16.26 7.93.67.33 1.19.73 1.53 1.43 2.79 5.8 5.6 11.58 8.4 17.37.12.24.17.51.25.75-.41.25-.68-.02-.94-.15-6.32-3.07-12.64-6.15-18.97-9.22-.72-.35-1.23-.83-1.57-1.55-2.71-5.65-5.45-11.3-8.17-16.94-.17-.33-.39-.63-.33-1.29zM47.2 290.34c.68.83.97 1.88 1.44 2.83 2.43 5 4.83 10.01 7.27 15 .37.76.49 1.46.3 2.3-1.56 6.94-3.08 13.9-4.61 20.84-.03.15-.11.29-.17.42-.44.08-.49-.26-.6-.49-2.85-5.86-5.69-11.72-8.54-17.59-.24-.49-.29-.97-.17-1.51 1.57-7.1 3.14-14.21 4.7-21.31.04-.19.08-.39.38-.49zM27.04 138.07c-.18-.39.1-.68.25-.98 2.75-5.69 5.51-11.37 8.26-17.06.31-.63.69-1.12 1.35-1.45 6.41-3.1 12.8-6.22 19.2-9.34.24-.12.47-.32.79-.18.19.35-.06.61-.19.88-2.78 5.76-5.58 11.51-8.36 17.28-.29.61-.69 1.04-1.3 1.33-6.4 3.11-12.8 6.23-19.2 9.35-.24.12-.47.33-.8.17zM371.98 417.18c-1.02.89-2.07 1.29-3.03 1.82-4.84 2.65-9.7 5.26-14.55 7.89-.54.29-1.07.51-1.71.4l-21.37-3.75c-.19-.03-.37-.11-.61-.18.12-.56.59-.68.94-.87 5.52-2.99 11.05-5.96 16.57-8.94.59-.32 1.18-.45 1.85-.33 6.93 1.21 13.86 2.42 20.79 3.64.28.05.58.17 1.12.32zM36.18 110.52c-.21-1.58-.44-3.1-.62-4.63-.71-5.87-1.4-11.74-2.12-17.6-.06-.51.02-.94.29-1.37 3.5-5.73 7-11.47 10.49-17.2.04-.06.12-.09.26-.19.54 1.07.46 2.25.6 3.35.76 5.98 1.45 11.97 2.19 17.96.15 1.21-.08 2.21-.74 3.27-3.18 5.09-6.26 10.23-9.39 15.34-.22.36-.34.83-.96 1.07zM50.03 356.33c3.22.68 6.19 1.29 9.14 1.93 4.22.91 8.43 1.86 12.65 2.75.71.15 1.26.44 1.72.99 4.14 5.02 8.29 10.04 12.44 15.05.12.15.3.28.21.55-.56.21-1.08-.09-1.61-.2-6.72-1.42-13.44-2.87-20.16-4.3-.48-.1-.91-.26-1.24-.66-4.25-5.14-8.51-10.27-12.76-15.41-.09-.11-.15-.27-.39-.7zM52.18 86.63c2.46-2.97 4.77-5.77 7.08-8.57 1.81-2.19 3.64-4.35 5.42-6.56.71-.88 1.52-1.41 2.66-1.65 6.61-1.37 13.21-2.81 19.82-4.21.37-.08.89-.4 1.12-.04.31.47-.3.74-.56 1.05-3.98 4.85-7.98 9.68-11.97 14.52-.31.38-.64.7-1.15.81-7.27 1.56-14.54 3.12-21.8 4.68-.11.02-.23-.01-.62-.03zM380.1 374.74c-.82 2.57-1.52 4.81-2.24 7.04-1.51 4.72-3.04 9.43-4.54 14.15-.23.72-.58 1.26-1.22 1.69-5.24 3.52-10.46 7.06-15.7 10.59-.29.19-.62.61-.93.4-.42-.28-.04-.73.07-1.08 2.09-6.54 4.21-13.08 6.29-19.63.28-.89.74-1.52 1.52-2.04 5.29-3.52 10.56-7.07 15.83-10.6.18-.12.4-.22.92-.52zM87.5 24.66c-.3 1.88-.6 3.79-.92 5.7-.86 5.12-1.75 10.23-2.58 15.36-.19 1.21-.69 2.12-1.61 2.94-4 3.55-7.95 7.16-11.92 10.74-.79.71-1.59 1.39-2.62 2.29.06-2.16.54-3.92.84-5.71.91-5.52 1.87-11.02 2.8-16.53.09-.53.24-.98.66-1.36 4.89-4.41 9.78-8.83 14.66-13.25.15-.13.28-.3.69-.18zM32.83 238.74c.31.15.28.46.34.73 1.29 6.3 2.58 12.6 3.89 18.89.13.62.09 1.16-.2 1.73-3.23 6.43-6.44 12.86-9.66 19.29-.1.21-.17.46-.44.54-.35-.1-.32-.41-.38-.67-1.28-6.22-2.55-12.44-3.85-18.66-.18-.87-.08-1.62.32-2.41 3.15-6.24 6.27-12.5 9.4-18.75.14-.26.2-.62.58-.69zM68.72 355.04c-1.26-1.83-2.38-3.44-3.48-5.05-2.58-3.8-5.13-7.62-7.72-11.41-.47-.69-.71-1.4-.64-2.24.38-5.01.76-10.02 1.12-15.04.14-1.91.23-3.82.37-5.73.02-.34-.01-.84.36-.95.42-.12.54.39.73.67 3.52 5.19 7.03 10.38 10.56 15.57.4.59.61 1.2.56 1.91-.37 4.85-.74 9.7-1.1 14.56-.13 1.71-.24 3.42-.33 5.14-.05.77-.1 1.55-.43 2.57zM379.99 393.87c.41-2.51.82-5.01 1.25-7.52.76-4.53 1.56-9.06 2.28-13.6.2-1.25.7-2.15 1.68-3.01 3.7-3.23 7.31-6.57 10.95-9.87 1.09-.98 2.18-1.96 3.44-3.09.09 1.53-.29 2.79-.5 4.05-1 6.03-2.04 12.06-3.05 18.09-.09.53-.23 1-.64 1.37-3.79 3.43-7.58 6.87-11.37 10.3-1.26 1.14-2.54 2.26-3.8 3.4l-.24-.12zM64.51 45.74c0 3.18.1 6.36-.04 9.53-.08 1.96-.07 3.91-.13 5.87-.08 2.31-.17 4.63-.22 6.94-.01.65-.27 1.16-.66 1.63-4.16 5.01-8.32 10.02-12.48 15.02-.1.11-.22.2-.53.48 0-1.85-.07-3.5.03-5.15.05-.96.13-1.91.14-2.87.09-4.71.18-9.42.26-14.13.01-.74.15-1.4.65-1.99 4.13-4.93 8.23-9.88 12.35-14.81.17-.21.25-.53.63-.52zM88.04 376c-1.26-1.11-2.2-2.5-3.26-3.76-2.83-3.36-5.48-6.87-8.43-10.12-1.49-1.64-1.88-3.42-1.92-5.43-.1-5.83-.19-11.66-.29-17.49 0-.12-.02-.24 0-.36.13-.66-.48-1.71.05-1.88.73-.23 1.09.86 1.54 1.4 3.85 4.59 7.65 9.22 11.48 13.82.47.56.62 1.17.63 1.88.08 5.63.18 11.26.28 16.89.02 1.28.14 2.55.19 3.82.02.37.15.79-.27 1.23zM108.41 47.36c-.73 1.22-1.63 1.72-2.36 2.38-4.09 3.75-8.22 7.46-12.3 11.21-.76.7-1.62 1-2.59 1.06-4.1.27-8.2.51-12.3.78-2.75.18-5.49.38-8.24.58-.31.02-.71.25-.89-.07-.2-.35.23-.55.45-.75 3.07-2.8 6.14-5.59 9.21-8.38 1.42-1.29 2.87-2.54 4.24-3.88 1-.98 2.12-1.39 3.53-1.47 5.58-.31 11.14-.74 16.72-1.11 1.41-.09 2.84-.06 4.53-.35zM401.62 42.24c-1.56.6-2.99.41-4.36.54-4.65.43-9.31.71-13.96 1.06-.99.07-2 .08-2.98.26-1.42.26-2.51-.26-3.65-1.04-4.82-3.29-9.69-6.5-14.53-9.75-.41-.27-.95-.44-1.13-1.13 1.17-.11 2.3-.24 3.43-.32 5.81-.42 11.63-.74 17.42-1.31 1.72-.17 2.96.33 4.29 1.24 4.74 3.25 9.54 6.43 14.31 9.65.34.2.65.44 1.16.8zM397.12 400.72c-.08.48-.47.58-.75.77-5.24 3.53-10.49 7.05-15.72 10.59-.67.46-1.32.56-2.13.49-3.62-.32-7.25-.56-10.87-.82-3.34-.24-6.69-.49-10.03-.73-.27-.02-.65.04-.72-.28-.08-.38.33-.5.58-.67 4.14-2.8 8.29-5.58 12.44-8.37.66-.45 1.39-.82 1.98-1.34 1.42-1.27 3.04-1.51 4.87-1.34 5.77.52 11.54.93 17.31 1.41 1 .07 2.06-.18 3.04.29zM378.3 6.61c.7.02 1.03.4 1.42.66 5.08 3.4 10.15 6.82 15.23 10.22.58.39 1.03.82 1.26 1.52 2.12 6.62 4.28 13.23 6.41 19.85.13.4.35.81.21 1.27-.48.08-.74-.27-1.05-.48-5.18-3.47-10.35-6.95-15.53-10.42-.58-.39-1.03-.83-1.25-1.53-2.16-6.78-4.35-13.54-6.52-20.32-.08-.2-.11-.43-.18-.77zM70.65 379.89c1.34.07 2.68.12 4.01.21 4.46.3 8.91.61 13.37.92 1.39.1 2.79.18 4.18.28.98.07 1.84.38 2.59 1.07 4.57 4.17 9.16 8.32 13.73 12.49.25.23.61.4.6.98-1.46-.08-2.91-.15-4.36-.25-2.86-.2-5.73-.44-8.59-.64-2.91-.2-5.81-.39-8.72-.51-1.35-.06-2.18-.91-3.06-1.7-4.4-3.95-8.77-7.92-13.14-11.89-.25-.23-.6-.41-.61-.96zM112.77 6.71c-.54 1.73-1.06 3.47-1.61 5.19-1.66 5.17-3.34 10.34-5 15.51-.21.66-.46 1.24-1.08 1.65-5.45 3.64-10.88 7.3-16.32 10.95-.16.11-.34.19-.51.28-.32-.36-.07-.65.02-.92 2.19-6.81 4.39-13.61 6.58-20.42.17-.52.45-.91.9-1.22 5.38-3.6 10.75-7.22 16.12-10.82.22-.14.43-.36.9-.2zM89.46 42.21c1.84-1.26 3.51-2.43 5.19-3.56 3.75-2.52 7.52-5.01 11.26-7.54.77-.52 1.51-.68 2.46-.59 3.45.34 6.92.55 10.38.81 3.46.25 6.93.49 10.39.75.27.02.65-.04.69.3.05.37-.36.49-.61.66-4.24 2.86-8.49 5.72-12.73 8.57-.6.4-1.25.74-1.78 1.21-1.29 1.15-2.76 1.4-4.43 1.25-5.76-.51-11.53-.93-17.3-1.4-1.11-.09-2.25.11-3.52-.46zM93.82 400.72c1.78-.37 3.45-.35 5.1-.49 4.89-.41 9.79-.73 14.68-1.16 2.07-.18 3.88 0 5.71 1.32 4.6 3.32 9.39 6.39 14.09 9.57.3.2.88.31.7.81-.13.37-.64.21-.98.24-6.05.47-12.1.94-18.15 1.4-1.03.08-2.07.15-3.11.23-.42.03-.78-.13-1.12-.35-5.54-3.73-11.08-7.45-16.62-11.18-.05-.05-.09-.13-.3-.39zM382.73 47.64c.77-.37 1.35-.08 1.93-.04 3.83.26 7.65.52 11.48.77 2.87.19 5.74.36 8.61.52 1 .05 1.73.59 2.41 1.21 3.76 3.41 7.52 6.81 11.26 10.25 1.01.93 2.2 1.7 3.03 2.9-1.08 0-2.09.06-3.1-.01-5.26-.36-10.52-1.13-15.77-1-4.03.1-6.26-2.26-8.79-4.5-3.41-3.02-6.77-6.09-10.15-9.15-.29-.26-.55-.57-.91-.95zM402.86 375.89c-.25-.96-.17-1.96-.06-2.92.15-1.32.14-2.63.16-3.95.09-4.99.19-9.99.26-14.98.01-.82.32-1.45.82-2.06 4.03-4.86 8.06-9.72 12.08-14.58.19-.23.34-.66.7-.54.41.14.17.54.15.84-.02.48-.06.96-.07 1.44-.1 5.83-.19 11.67-.28 17.5-.03 2.17-.62 3.98-2.15 5.71-3.74 4.21-7.21 8.65-10.8 13-.18.24-.34.55-.81.54zM381.82 395.67c1.02-1.35 2.33-2.29 3.5-3.35 3.67-3.33 7.38-6.62 11.03-9.97.77-.7 1.63-.98 2.6-1.05 4.1-.27 8.21-.51 12.32-.78 2.79-.18 5.58-.4 8.36-.61.26-.02.55-.17.86.21-1.09 1.02-2.17 2.05-3.28 3.06-3.77 3.4-7.55 6.78-11.3 10.2-.66.6-1.35.97-2.22 1.03-3.95.26-7.89.51-11.84.78-2.95.2-5.89.43-8.84.64-.36.03-.72.15-1.19-.16zM422.33 354.91c-.61-1.71-.42-3.33-.56-4.91-.43-5.01-.53-10.06-1.13-15.05-.3-2.48.49-4.26 1.82-6.15 3.13-4.45 6.13-8.99 9.18-13.48.17-.26.38-.49.58-.75.48.26.44.7.47 1.07.34 4.94.67 9.88 1.01 14.82.14 1.99.31 3.98.46 5.97.05.65-.05 1.26-.44 1.82-3.66 5.39-7.31 10.79-10.97 16.19-.08.13-.2.23-.42.47zM91.6 356.91c1.02.9 2.03 1.78 3.03 2.68 3.99 3.62 7.98 7.25 11.98 10.87.34.3.62.61.7 1.07 1.22 7.29 2.45 14.58 3.67 21.87.02.11-.04.23-.08.45-1-.54-1.71-1.35-2.49-2.05-4.2-3.75-8.36-7.54-12.54-11.32-.43-.39-.72-.81-.82-1.41-1.17-7.01-2.36-14.02-3.54-21.04-.07-.33-.21-.69.09-1.12zM135.64 408.59c-.53.02-.87-.38-1.25-.63-4.98-3.34-9.95-6.7-14.95-10.01-.92-.61-1.46-1.33-1.79-2.4-1.94-6.18-3.97-12.33-5.95-18.5-.2-.63-.36-1.28-.54-1.94.6-.07.87.27 1.19.48 5.18 3.47 10.36 6.96 15.54 10.43.51.34.91.71 1.11 1.34 2.18 6.78 4.38 13.54 6.57 20.32.09.27.3.57.07.91zM423.17 61.64c-1.96-1.75-3.68-3.28-5.4-4.83l-9.6-8.67c-.42-.38-.8-.76-.9-1.37-1.2-7.17-2.41-14.33-3.62-21.5-.04-.22-.11-.46.13-.78.97.85 1.92 1.67 2.85 2.52 4.12 3.72 8.22 7.45 12.34 11.17.32.29.47.62.54 1.03 1.19 7.09 2.39 14.18 3.59 21.27.06.27.05.55.07 1.16zM438.45 86.63c-1.83-.38-3.66-.74-5.48-1.13-5.28-1.13-10.55-2.28-15.83-3.39-.83-.17-1.42-.52-1.97-1.19-3.98-4.85-8-9.67-12.01-14.5-.2-.24-.56-.48-.36-.81.2-.33.59-.09.88-.02 6.84 1.46 13.68 2.94 20.52 4.41.55.12 1.09.26 1.48.73 4.3 5.2 8.61 10.39 12.91 15.59-.05.11-.09.21-.14.31zM404.75 377.49c2.01-2.44 3.9-4.74 5.8-7.05 2.18-2.65 4.38-5.29 6.55-7.96.68-.84 1.48-1.34 2.57-1.57 6.61-1.37 13.21-2.8 19.82-4.21.34-.07.8-.34 1.01-.02.27.4-.21.71-.45 1-3.81 4.62-7.63 9.24-11.45 13.86-.67.82-1.4 1.44-2.52 1.67-6.65 1.38-13.29 2.83-19.93 4.25-.36.09-.74.26-1.4.03zM440.37 84.87c-1.02-.9-1.78-2.03-2.63-3.05-3.33-3.98-6.64-7.97-9.96-11.96-.46-.56-.81-1.13-.83-1.92-.22-7.18-.44-14.36-.48-21.55v-.93c1.41 1.68 2.63 3.12 3.84 4.57 2.96 3.56 5.9 7.14 8.88 10.68.65.77.98 1.57.99 2.6.05 5.15.12 10.3.27 15.45.05 1.63.22 3.26.18 4.9 0 .36.15.78-.26 1.21zM452.72 111.93c-3.68-1.36-7.16-2.65-10.64-3.94-3.37-1.25-6.74-2.51-10.12-3.74-.66-.24-1.2-.56-1.58-1.19-3.4-5.61-6.82-11.2-10.23-16.8-.08-.12-.1-.28-.24-.68 1.94.71 3.69 1.35 5.43 1.99 5.13 1.91 10.26 3.84 15.39 5.74.67.25 1.18.6 1.56 1.22 3.4 5.61 6.81 11.2 10.22 16.8.07.1.09.22.21.6zM444.11 290.55c.66 2.95 1.31 5.83 1.95 8.71.94 4.25 1.86 8.51 2.8 12.77.14.61.14 1.16-.15 1.74-2.82 5.78-5.62 11.58-8.44 17.37-.1.21-.24.4-.39.65-.5-.3-.45-.78-.54-1.17-1.51-6.79-3-13.58-4.51-20.37-.13-.57-.12-1.08.14-1.62 2.82-5.79 5.62-11.58 8.44-17.37.12-.26.19-.56.7-.71zM119 417.14c2.5-.46 4.68-.88 6.86-1.26 5-.87 10-1.71 15-2.58.65-.11 1.26-.12 1.86.2 5.79 3.15 11.59 6.29 17.38 9.44.06.03.09.12.14.19-.02.35-.3.32-.52.36-7.04 1.24-14.09 2.47-21.13 3.72-.53.09-1 .11-1.5-.16-5.8-3.13-11.61-6.25-17.41-9.38-.14-.08-.25-.19-.68-.53zM424.09 356.36c2.39-3.52 4.63-6.83 6.87-10.13 1.46-2.15 2.94-4.29 4.37-6.46.47-.71 1.03-1.16 1.85-1.41 6.6-2.07 13.19-4.17 19.79-6.25.31-.1.71-.44.96-.02.18.3-.18.58-.35.84-3.47 5.14-6.95 10.27-10.41 15.41-.41.61-.87 1.1-1.61 1.34-6.9 2.18-13.8 4.38-20.69 6.57-.16.04-.32.04-.78.11zM464.1 138.19c-2.47-1.18-4.62-2.2-6.77-3.24-4.46-2.16-8.91-4.33-13.37-6.48-.45-.22-.82-.48-1.04-.94-2.84-5.9-5.69-11.8-8.54-17.7-.1-.21-.16-.44-.24-.66.39-.29.64.01.9.13 6.29 3.05 12.57 6.12 18.85 9.18.62.3 1.16.64 1.48 1.31 2.77 5.8 5.56 11.59 8.34 17.39.1.22.17.44.39 1.01zM147.08 431.51c.31-.48.69-.5 1.02-.61 6.56-2.17 13.13-4.33 19.69-6.5.62-.21 1.21-.32 1.86-.08 6.08 2.21 12.17 4.41 18.25 6.62.22.08.42.2.65.32-.32.47-.8.48-1.19.61-6.49 2.15-12.98 4.28-19.46 6.43-.7.23-1.36.37-2.1.11-5.97-2.17-11.94-4.33-17.92-6.5-.24-.09-.48-.24-.8-.4zM454.55 110.34c-1.11-1.78-2.19-3.49-3.24-5.21-2.25-3.68-4.47-7.39-6.76-11.06-.65-1.05-.85-2.08-.7-3.3.81-6.38 1.56-12.77 2.33-19.15.07-.61.2-1.22.33-1.99.8.65 1.1 1.41 1.5 2.07 3.1 5.04 6.16 10.11 9.25 15.16.27.44.33.85.27 1.36-.85 7.02-1.68 14.04-2.51 21.06-.04.34-.07.7-.47 1.06zM161.7 421.21c-1.96-1.04-3.72-1.96-5.46-2.9-4.08-2.19-8.15-4.41-12.24-6.58-.72-.38-1.15-.9-1.47-1.64-2.71-6.31-5.46-12.61-8.19-18.92-.14-.32-.49-.7-.21-.99.36-.38.74.05 1.06.23 5.49 2.94 10.98 5.9 16.47 8.85.54.29.97.66 1.22 1.26 2.81 6.53 5.63 13.06 8.45 19.59.11.28.19.58.37 1.1zM442.01 332.8c.3-.7.55-1.36.86-1.99 2.53-5.25 5.09-10.49 7.61-15.75.38-.8.92-1.34 1.72-1.73 6.04-2.91 12.07-5.86 18.11-8.79.11-.05.21-.11.33-.15.33-.1.69-.44 1-.15.33.31-.02.67-.17.97-1.53 3.17-3.07 6.32-4.6 9.49-1.13 2.34-2.29 4.66-3.37 7.02-.41.9-1.06 1.45-1.91 1.87-5.96 2.9-11.91 5.82-17.87 8.73-.51.23-.97.59-1.71.48zM445.89 133.12c.4-.14.62.15.87.32 5.8 3.99 11.59 7.98 17.39 11.97.47.33.84.68 1.02 1.27 1.85 5.96 3.72 11.91 5.58 17.86.14.44.22.9.33 1.36-.6.13-.87-.23-1.18-.44-5.65-3.86-11.28-7.73-16.93-11.58-.7-.48-1.15-1.03-1.4-1.85-1.77-5.77-3.58-11.53-5.36-17.3-.17-.53-.44-1.04-.32-1.61zM453.28 306.63c-.15-.3-.26-.46-.32-.63l-6.69-20.52c-.16-.5-.27-.98-.07-1.51 2.23-6.03 4.45-12.08 6.67-18.11.09-.26.24-.49.36-.74.52.11.5.53.6.84 2.17 6.65 4.33 13.3 6.51 19.95.21.64.21 1.24-.03 1.87-2.24 6.07-4.48 12.15-6.72 18.23-.05.17-.15.33-.31.62zM473.56 165.2c-.46-.22-.45-.62-.55-.94-1.87-5.99-3.74-11.98-5.61-17.96-.18-.59-.28-1.14-.05-1.75 2.59-6.71 5.16-13.42 7.75-20.14.06-.14.16-.27.24-.41.52.07.49.51.59.81 1.87 5.99 3.73 11.98 5.6 17.97.21.67.22 1.32-.04 1.99-2.51 6.53-5 13.06-7.51 19.59-.12.29-.28.56-.42.84zM189.61 429.17c-3.76-1.35-7.21-2.6-10.66-3.84-2.74-.99-5.48-1.99-8.23-2.97-.66-.23-1.2-.54-1.59-1.17-3.61-5.85-7.26-11.68-10.87-17.52-.24-.39-.6-.75-.59-1.4 1.72.35 3.28 1.08 4.87 1.64 4.48 1.58 8.94 3.24 13.42 4.84.82.29 1.51.67 1.98 1.44 3.73 6.06 7.48 12.1 11.23 18.15.1.16.18.34.44.83zM482.61 275.67c-.74 2.04-1.43 3.98-2.14 5.91-1.57 4.27-3.16 8.54-4.73 12.82-.24.67-.61 1.19-1.22 1.56-6.1 3.73-12.19 7.48-18.29 11.22-.13.08-.29.11-.42.16-.33-.36-.05-.64.05-.91 2.17-5.93 4.35-11.86 6.51-17.79.21-.58.48-1.09 1.02-1.43 6.23-3.83 12.46-7.65 18.7-11.48.08-.03.21-.02.52-.06zM466.68 280.31c.69-3.4 1.38-6.8 2.08-10.2.63-3.05 1.28-6.1 1.89-9.16.17-.86.57-1.5 1.26-2.08 5.27-4.41 10.5-8.85 15.75-13.29.23-.2.47-.54.81-.3.26.18.12.52.06.79-1.28 6.23-2.56 12.45-3.84 18.67-.11.52-.34.98-.76 1.33l-17.01 14.37c-.07-.04-.15-.09-.24-.13zM475.36 194.56c-1.59-1.33-2.94-2.44-4.27-3.57-4.09-3.45-8.17-6.91-12.26-10.35-.73-.62-1.22-1.32-1.41-2.28-1.22-6.03-2.48-12.05-3.71-18.08-.07-.34-.24-.77.13-.99.35-.2.56.2.79.39 5.33 4.51 10.66 9.03 16 13.54.46.38.74.81.85 1.38l3.87 18.9c.05.22.01.46.01 1.06zM466.06 136.87l-1.38-2.88c-2.41-5-4.81-10.01-7.23-15.01-.27-.56-.4-1.09-.26-1.72 1.58-7.1 3.14-14.2 4.71-21.29.03-.14.13-.28.26-.55 1.17 2.36 2.29 4.6 3.38 6.85 1.77 3.67 3.51 7.35 5.3 11.01.39.8.49 1.53.29 2.41-1.54 6.78-3.03 13.56-4.54 20.35-.06.26-.15.52-.23.78-.1.01-.2.03-.3.05zM464.32 279.65c-.41-.16-.47-.55-.63-.86-3.09-6.1-6.16-12.2-9.26-18.29-.43-.83-.51-1.6-.32-2.52 1.28-6.02 2.51-12.05 3.76-18.08.08-.38.06-.8.37-1.11.45.2.52.63.69.97 3.09 6.15 6.16 12.3 9.24 18.44.33.66.52 1.28.35 2.06-1.32 6.26-2.6 12.52-3.9 18.78-.04.23-.08.46-.3.61zM477.73 193.88c-.16-.76-.31-1.44-.45-2.12-1.15-5.64-2.28-11.28-3.46-16.91-.22-1.04-.09-1.91.39-2.86 3.06-6.02 6.07-12.07 9.1-18.11.17-.34.25-.76.63-.98.36.11.33.43.38.68l3.81 18.55c.15.72.14 1.38-.21 2.08-3.15 6.24-6.28 12.5-9.41 18.75-.16.31-.25.68-.78.92zM458.89 185.09c1.76 1.64 3.12 3.47 4.63 5.16 3.03 3.4 5.92 6.92 9 10.28 1.08 1.18 1.63 2.41 1.7 3.94.26 5.78.51 11.57.76 17.35.02.38.2.95-.16 1.12-.49.23-.73-.37-.99-.67-4.48-5.1-8.94-10.22-13.41-15.33-.43-.49-.76-1.01-.78-1.7-.15-3.91-.32-7.82-.5-11.73-.11-2.27-.28-4.54-.41-6.81-.05-.48-.17-.96.16-1.61zM459.91 212.13c.97 1.35 1.94 2.69 2.9 4.04 3.3 4.66 6.6 9.33 9.9 13.99.36.5.56 1.01.51 1.66-.17 2.43-.27 4.86-.41 7.29-.23 4.06-.47 8.12-.7 12.19-.01.15-.06.29-.16.71-1.07-1.48-2.03-2.78-2.96-4.1-3-4.24-5.91-8.55-9.03-12.69-1.23-1.64-1.37-3.3-1.26-5.16.25-4.1.47-8.2.68-12.31.09-1.85.35-3.69.26-5.56.08-.02.18-.04.27-.06zM474.76 251.91c-.39-.46-.28-.88-.26-1.26.29-5.58.77-11.16.82-16.74.02-2.43 1.09-4.01 2.54-5.65 4.01-4.5 7.95-9.06 11.93-13.59.22-.25.42-.71.82-.56.34.13.2.57.18.87-.29 5.7-.7 11.4-.83 17.1-.05 2.15-.86 3.64-2.23 5.16-4.2 4.66-8.27 9.42-12.4 14.14-.14.18-.33.32-.57.53zM477.54 223.44c-.5-2.9-.38-5.53-.58-8.15-.29-3.74-.35-7.49-.56-11.24-.07-1.3.27-2.36 1.04-3.43 3.94-5.43 7.8-10.92 11.69-16.39.11-.16.25-.3.44-.52.45.54.45 1.14.48 1.7.19 4.07.3 8.13.54 12.2.12 2.03.19 4.07.27 6.1.02.45.07.86-.21 1.26-4.32 6.08-8.64 12.17-13.11 18.47z"/><path d="M241.28 38.46c2.19 2.91 4.82 5.45 7.68 7.76.25.2.49.4.74.61.36.31.57.69.35 1.16-.2.42-.61.45-1.03.45-8.41.07-15.96-4.92-19.08-12.7-.63-1.58-.57-3.29-.52-4.97.03-.85.64-1.1 1.35-.9 4.44 1.24 8.62 2.96 11.8 6.49 1.28 1.42 2.55 2.86 3.82 4.3.4.45.94.93.36 1.54-.61.64-1.17.15-1.66-.29-1.27-1.14-2.54-2.3-3.81-3.45zM312.99 65.97c-3.25 0-6.31-.89-9.33-1.98-1.09-.39-2.15-.84-3.34-.28-.33.15-.79.07-1.18.01-1.32-.2-2.31-1.03-2.44-1.99-.13-.96.64-1.85 2-2.38 1.86-.73 3.7-.42 5.52.13 1.41.43 2.8.94 4.22 1.37 3.48 1.05 6.92 1.05 10.29-.47.74-.33 1.5-.59 2.32-.31.97.32 1.72.89 1.82 1.99.1 1.04-.57 1.61-1.42 2-2.68 1.22-5.5 1.89-8.46 1.91zM271.37 41.58c.85-.08 1.84.01 2.38 1.19.18.38.68.38 1.05.49 6.43 1.93 12.77 4.12 18.98 6.67.33.14.67.26.99.41.84.41 1.17 1.1.9 1.98-.27.85-.96 1.14-1.81 1a72.14 72.14 0 0 1-9.08-2.14 80.083 80.083 0 0 1-14.57-6.08c-.95-.51-2.1-.96-1.68-2.37.39-1.32 1.57-1.13 2.84-1.15zM250.85 36.99c2.82.17 5.44 1.2 7.35 3.36 3.58 4.05 8.05 6.74 12.78 9.13.85.43 1.74.81 2.61 1.21.58.27 1.32.48 1.05 1.32-.27.85-1.04.57-1.64.48-6.4-.95-12.08-3.49-17.03-7.66-2.14-1.8-4.43-3.42-6.31-5.51-.44-.49-1.29-.95-.87-1.8.39-.81 1.27-.38 2.06-.53zM219.25 28.13c-.26 1.73-.4 3.42-.16 5.12.08.6.21 1.27-.53 1.54-.76.28-1.07-.35-1.35-.87a22.47 22.47 0 0 1-2.73-9.35c-.08-1.11.37-1.52 1.44-1.16 2.68.89 5.35 1.84 7.89 3.09.94.46 1.05 1.27.88 2.14-.51 2.52-.81 5.04-.48 7.6.07.52.05 1.09-.57 1.3-.54.18-.9-.2-1.22-.56-1.1-1.26-1.79-2.72-2.14-4.36-.33-1.51-.69-3-1.03-4.49zM242.14 50.84c-2.49-.14-5.24-.3-7.98-.65-.4-.05-.85-.17-1.11.22-.57.84-1.27.6-2.02.35-3.11-1.04-6.13-2.29-9.04-3.81-.58-.3-1.42-.51-1.18-1.41.22-.86 1.08-.74 1.71-.76 4.67-.12 9.23.48 13.69 1.92 2.7.87 5.41 1.71 8.18 2.32.57.13 1.16.3 1.09 1.03-.07.73-.69.78-1.27.78-.61.01-1.21.01-2.07.01zM296.67 43.78c1.6-.03 2.73.07 3.02 1.62.08.44.6.49.96.64 2.97 1.18 5.98 2.27 9.02 3.26.38.12.76.25 1.13.39.79.29 1.35.8 1.19 1.7-.17.98-.9 1.46-1.84 1.35-1.38-.17-2.76-.45-4.11-.78-4.26-1.04-8.26-2.73-12.13-4.76-.73-.38-1.26-.9-1.1-1.79.16-.87.8-1.25 1.62-1.36.86-.14 1.74-.22 2.24-.27zM208.41 41.57c2.64.32 5.29.65 7.93.97.24.03.48.03.71.09.5.12.93.35.88.95-.05.6-.5.75-1.03.78-1.53.09-3.03-.18-4.54-.28-5.29-.37-9.83-2.59-13.95-5.8-.22-.17-.45-.34-.62-.56-.49-.64-.25-1.3.56-1.39 2.75-.28 5.5-.38 8.21.36.85.24 1.6.73 2.4 1.06 1.41.58 1.29 1.86 1.5 2.96.1.5-.37.75-.87.77-.4.01-.8 0-1.2 0 .02.04.02.06.02.09zM287.35 55.02c2.12-.06 4.58.08 7.04.45.93.14 1.6.5 1.64 1.55.04 1.07-.66 1.46-1.55 1.65-.78.16-1.57.29-2.36.42-.94.15-1.84.26-2.28 1.38-.23.59-.93.67-1.57.55-2.73-.51-5.3-1.48-7.75-2.76-.65-.34-1.04-.9-.89-1.67.16-.8.71-1.19 1.51-1.31 1.95-.31 3.9-.26 6.21-.26zM258.34 58.07c-1.12.11-2.13-.24-3.11-.73-.64-.32-.97-.82-.95-1.53.02-.67.39-1.18 1-1.36 2.37-.71 4.74-1.42 7.14-2 .94-.23 1.87.32 2.8.51 1.33.28 2.64.6 3.96.93.82.21 1.35.75 1.31 1.63-.04.87-.6 1.41-1.45 1.5-3.56.37-7.14.7-10.7 1.05zM309.01 58.38c-1.3-.07-2.49-.54-3.7-.93-.62-.2-.95-.73-.98-1.38-.04-.72.35-1.21.98-1.51 1.78-.85 3.67-1.35 5.6-1.65 1.26-.2 2.53-.29 3.8-.41.87-.08 1.62.16 1.9 1.08.27.9-.11 1.57-.93 1.97-1.79.88-3.59 1.74-5.39 2.59-.4.2-.83.29-1.28.24zM322.71 48.2c-3.72-.42-7.56-1.31-11.29-2.63-1.08-.38-1.17-1.13-.26-1.86 1.23-.99 2.69-1.35 4.24-1.37.46-.01.99.13 1.01.64.03.76.52.9 1.07 1.05 1.96.54 3.91 1.09 5.88 1.61.75.2 1.79.18 1.67 1.28-.14 1.15-1.11 1.34-2.32 1.28zM327.81 54.26c.54.26 1.3.33 1.2 1.14-.1.8-.84.76-1.41.84-1.19.18-2.39.17-3.58-.08-1.02-.22-1.28-.72-.85-1.62.63-1.32 3.68-2.59 5.02-2.09.33.12.54.35.57.7.06.64-.56.77-.95 1.11zM207.83 26.27c.58.08 1.09.13 1.6.22.68.12 1.01.6 1.11 1.23.08.48.08.97-.38 1.3-.54.38-1.05.2-1.55-.11-.44-.27-.89-.52-1.33-.78-.46-.27-.93-.57-.75-1.2.2-.67.8-.67 1.3-.66zM233.4 363.57c-.8 0-1.61.09-2.4-.02-1.38-.19-2.09.39-2.36 1.7-.09.43-.26.84-.41 1.25-.35.95-.92 1.86.93 1.85.97-.01.52 1.06.6 1.66.07.53.03 1.12-.71 1.13-2 .03-4 .06-6-.01-1.03-.03-.78-.94-.8-1.57-.02-.6-.06-1.35.83-1.28 1.1.09 1.42-.53 1.72-1.4 1.93-5.59 3.92-11.16 5.82-16.77.4-1.18.97-1.62 2.24-1.58 2.84.09 2.86.02 3.81 2.69 1.86 5.24 3.7 10.48 5.51 15.73.3.86.64 1.4 1.66 1.31 1.22-.12 1.02.79 1.06 1.54.05.83-.1 1.41-1.13 1.38-1.76-.04-3.52-.02-5.28-.01-.73 0-1.18-.29-1.11-1.06.07-.71-.44-1.74.85-1.86.69-.07.81-.39.57-.96-.02-.04-.03-.08-.04-.11-1.05-3.61-1.05-3.61-5.36-3.61zm.09-11.52c-.1 0-.2.01-.31.01-.9 2.63-1.8 5.26-2.71 7.88-.22.64-.01.88.64.87 1.51-.02 3.03-.02 4.54 0 .58.01.84-.19.63-.78-.91-2.66-1.85-5.32-2.79-7.98zM276.17 359.88c0-2.36-.03-4.72.01-7.08.02-.88-.19-1.35-1.18-1.32-1.32.03-.9-1.02-.97-1.75-.08-.8.26-1.17 1.09-1.17 4.68.02 9.35.02 14.03 0 .85 0 1.11.4 1.09 1.18-.03 1.44-.04 2.88 0 4.32.02.83-.31 1.18-1.13 1.11-.32-.03-.64-.03-.96 0-.86.08-1.19-.25-1.21-1.15-.04-2.52-.07-2.52-2.57-2.52-1.2 0-2.4.05-3.6-.01-1.01-.05-1.47.27-1.42 1.36.07 1.36.06 2.72 0 4.08-.04 1.02.4 1.33 1.36 1.3 1.36-.05 2.72.03 4.08-.02 1.14-.04 1.14.66 1.15 1.49 0 .85-.05 1.5-1.18 1.46-1.44-.06-2.88.01-4.32-.02-.76-.01-1.09.29-1.08 1.06.02 1.64.03 3.28 0 4.92-.02.8.27 1.16 1.12 1.15 1.8-.04 3.6-.04 5.4 0 .85.02 1.16-.34 1.08-1.15-.03-.28 0-.56 0-.84.01-1.66.01-1.66 1.64-1.66s1.63 0 1.64 1.68c0 1.24-.03 2.48.01 3.72.02.81-.28 1.18-1.1 1.17-4.68-.01-9.35-.02-14.03 0-.95 0-1.16-.51-1.09-1.3.06-.71-.25-1.68.99-1.61 1.02.06 1.19-.45 1.17-1.31-.05-2.37-.02-4.73-.02-7.09zM207.07 371.53c-3.78.3-8.18-2.79-9.67-7.17-1.97-5.79-.06-11.89 4.71-14.77 3.92-2.36 9.01-1.8 12.32 1.37.49.47.9.99 1.7.96 1.01-.04.83.78.84 1.38 0 .64.19 1.48-.84 1.54-1.3.08-2.45.15-3.5-1.15-2.9-3.57-8.29-3.21-10.96.56-2.81 3.96-2.19 9.9 1.31 12.64 3.58 2.8 8.15 1.97 10.56-1.89.27-.43.32-1.27 1.06-1.09.8.19 1.64.48 2.22 1.11.35.38-.03.84-.24 1.21-2.04 3.49-5.06 5.31-9.51 5.3zM253.4 359.84c0-2.36-.02-4.72.01-7.08.01-.81-.17-1.29-1.11-1.28-1.28.01-.96-1-1.02-1.75-.05-.78.25-1.18 1.1-1.17 4.72.02 9.44.02 14.15 0 .77 0 1.08.35 1.07 1.09-.01 1.48-.02 2.96 0 4.44.01.83-.37 1.17-1.17 1.09-.24-.02-.48-.03-.72 0-1.25.19-1.58-.41-1.54-1.58.06-2.21.23-2.1-2.16-2.1-1.44 0-2.88.02-4.32 0-.76-.01-1.09.27-1.07 1.06.03 1.52.04 3.04 0 4.56-.02.86.37 1.11 1.16 1.1 1.76-.03 3.52.04 5.28-.02 1.18-.04 1.23.64 1.25 1.54.02.94-.26 1.41-1.28 1.38-1.76-.05-3.52.01-5.28-.02-.82-.01-1.14.3-1.12 1.13.04 1.64.03 3.28 0 4.92-.01.73.18 1.17 1 1.1 1.47-.12 1.12.96 1.19 1.79.08.94-.43 1.16-1.24 1.15-1.68-.02-3.36-.03-5.04 0-.93.02-1.31-.39-1.26-1.3.04-.78-.18-1.72 1.11-1.64.81.05 1.03-.36 1.02-1.1-.02-2.43-.01-4.87-.01-7.31zM314.76 367.16c-4.03-.01-7.37-3.34-7.35-7.33.02-4.01 3.44-7.43 7.35-7.36 4.04.07 7.39 3.42 7.37 7.36-.03 4-3.39 7.34-7.37 7.33zm-2.94-7.38c-.03 1.72 1.17 2.95 2.89 2.98 1.69.02 2.97-1.21 3-2.89a2.954 2.954 0 0 0-2.91-3.01c-1.63-.03-2.95 1.26-2.98 2.92zM183.65 359.86c0 4-3.35 7.31-7.38 7.3-3.98-.01-7.35-3.4-7.33-7.37.02-3.96 3.38-7.3 7.4-7.32 3.93-.03 7.32 3.39 7.31 7.39zm-4.41.01c.01-1.67-1.26-2.99-2.89-3.02a2.96 2.96 0 0 0-3 2.92c-.02 1.68 1.23 2.96 2.91 2.98 1.74.02 2.97-1.18 2.98-2.88zM283.72 342.11c.55.15 1.43-.32 1.69.36.21.56-.62.92-1.03 1.33-.69.71-1.5 1.32-2.13 2.09-.78.95-1.77.93-2.82.88-.68-.03-.59-.36-.31-.76.78-1.1 1.57-2.2 2.35-3.3.58-.81 1.44-.51 2.25-.6zM239.49 259.47c0-3.43.03-6.87-.02-10.3-.01-1.07.31-1.52 1.43-1.45 1.47.08 2.95.02 4.43.02 3.87 0 6.03 1.85 6.21 5.73.17 3.91.18 7.83 0 11.74-.18 3.85-2.67 6.03-6.6 6.17-1.36.05-2.72-.03-4.07.03-1.03.05-1.51-.34-1.38-1.38v-.12-10.44z"/></svg>