<svg aria-hidden="true" style="position:absolute;width:0;height:0" xmlns="http://www.w3.org/2000/svg" overflow="hidden"><defs><symbol id="icon-twitter" viewBox="0 0 32 32"><path d="M32 7.075a12.941 12.941 0 0 1-3.769 1.031 6.601 6.601 0 0 0 2.887-3.631 13.21 13.21 0 0 1-4.169 1.594A6.565 6.565 0 0 0 22.155 4a6.563 6.563 0 0 0-6.563 6.563c0 .512.056 1.012.169 1.494A18.635 18.635 0 0 1 2.23 5.195a6.56 6.56 0 0 0-.887 3.3 6.557 6.557 0 0 0 2.919 5.463 6.565 6.565 0 0 1-2.975-.819v.081a6.565 6.565 0 0 0 5.269 6.437 6.574 6.574 0 0 1-2.968.112 6.588 6.588 0 0 0 6.131 4.563 13.17 13.17 0 0 1-9.725 2.719 18.568 18.568 0 0 0 10.069 2.95c12.075 0 18.681-10.006 18.681-18.681 0-.287-.006-.569-.019-.85A13.216 13.216 0 0 0 32 7.076z"/></symbol><symbol id="icon-heart" viewBox="0 0 36 32"><path stroke-miterlimit="10" d="M17.992 31.481h-.012a2.072 2.072 0 0 1-1.492-.632l-.001-.001L5.001 19.486c-.073-.062-.27-.249-.519-.508s-.591-.674-1.09-1.339a19.427 19.427 0 0 1-1.269-1.833l-.049-.086a13.156 13.156 0 0 1-1.012-2.384l-.026-.096a9.2 9.2 0 0 1-.519-2.852v-.012a9.721 9.721 0 0 1 2.599-7.269l-.005.006A9.634 9.634 0 0 1 10.318.52l-.027-.001c.95.008 1.858.175 2.704.474l-.058-.018c.93.322 1.736.733 2.474 1.237l-.035-.023c.706.477 1.318.923 1.826 1.349.27.218.529.446.789.685.249-.239.519-.467.789-.685a22.76 22.76 0 0 1 1.826-1.349A10.133 10.133 0 0 1 22.972.997l.072-.022a8.14 8.14 0 0 1 2.642-.457h.004a9.664 9.664 0 0 1 7.154 2.6l-.006-.005a9.715 9.715 0 0 1 2.624 7.291l.001-.028c0 3.03-1.515 6.122-4.493 9.172L19.484 30.962a2.064 2.064 0 0 1-1.499.518h.006z"/></symbol><symbol id="icon-arrow-down" viewBox="0 0 22 32"><path d="M13.222 27.018H9.18V0h4.042v27.018z"/><path d="M11.201 32L0 20.618l3.165-3.113 8.036 8.162 8.036-8.162 3.165 3.113z"/></symbol><symbol id="icon-arrow-right" viewBox="0 0 32 32"><path d="M27.018 13.979v4.042H0v-4.042h27.018z"/><path d="M32 16L20.618 27.201l-3.113-3.165L25.667 16l-8.162-8.036 3.113-3.165z"/></symbol><symbol id="icon-custom-arrow" viewBox="0 0 33 32"><path d="M15.662 15.684V32L0 16.313V0l15.662 15.684zM16.919 15.684V32l15.665-15.687V0L16.919 15.684z"/></symbol><symbol id="icon-location" viewBox="0 0 24 32"><path fill="none" stroke-miterlimit="10" stroke-width="3" d="M12.058.928c-6.14 0-11.13 4.99-11.13 11.13s11.13 18.551 11.13 18.551 11.13-12.41 11.13-18.551c0-6.14-4.99-11.13-11.13-11.13z"/><path d="M12.058 10.203c1.02 0 1.855.835 1.855 1.855s-.835 1.855-1.855 1.855-1.855-.835-1.855-1.855a1.86 1.86 0 0 1 1.855-1.855z"/></symbol><symbol id="icon-plus" viewBox="0 0 34 32"><path d="M0 12h12V0h10v12h12v8H22v12H12V20H0z"/></symbol><symbol id="icon-dropdown-arrow" viewBox="0 0 53 32"><path d="M0 0l21.333 32H32L53.333 0z"/></symbol><symbol id="icon-play" viewBox="0 0 27 32"><path d="M27.151 16L0 0v32l27.151-16z"/></symbol><symbol id="icon-facebook" viewBox="0 0 19 32"><path d="M17.125.214v4.714h-2.804c-2.196 0-2.607 1.054-2.607 2.571v3.375h5.232l-.696 5.286h-4.536v13.554H6.25V16.16H1.696v-5.286H6.25V6.981c0-4.518 2.768-6.982 6.804-6.982 1.929 0 3.589.143 4.071.214z"/></symbol><symbol id="icon-instagram" viewBox="0 0 27 32"><path d="M18.286 16c0-2.518-2.054-4.571-4.571-4.571S9.144 13.483 9.144 16s2.054 4.571 4.571 4.571 4.571-2.054 4.571-4.571zm2.464 0c0 3.893-3.143 7.036-7.036 7.036S6.678 19.893 6.678 16s3.143-7.036 7.036-7.036S20.75 12.107 20.75 16zm1.929-7.321c0 .911-.732 1.643-1.643 1.643s-1.643-.732-1.643-1.643.732-1.643 1.643-1.643 1.643.732 1.643 1.643zM13.714 4.75c-2 0-6.286-.161-8.089.554-.625.25-1.089.554-1.571 1.036s-.786.946-1.036 1.571C2.304 9.715 2.464 14 2.464 16s-.161 6.286.554 8.089c.25.625.554 1.089 1.036 1.571s.946.786 1.571 1.036c1.804.714 6.089.554 8.089.554s6.286.161 8.089-.554c.625-.25 1.089-.554 1.571-1.036s.786-.946 1.036-1.571c.714-1.804.554-6.089.554-8.089s.161-6.286-.554-8.089c-.25-.625-.554-1.089-1.036-1.571s-.946-.786-1.571-1.036c-1.804-.714-6.089-.554-8.089-.554zM27.429 16c0 1.893.018 3.768-.089 5.661-.107 2.196-.607 4.143-2.214 5.75s-3.554 2.107-5.75 2.214c-1.893.107-3.768.089-5.661.089s-3.768.018-5.661-.089c-2.196-.107-4.143-.607-5.75-2.214S.197 23.857.09 21.661C-.017 19.768.001 17.893.001 16s-.018-3.768.089-5.661c.107-2.196.607-4.143 2.214-5.75s3.554-2.107 5.75-2.214c1.893-.107 3.768-.089 5.661-.089s3.768-.018 5.661.089c2.196.107 4.143.607 5.75 2.214s2.107 3.554 2.214 5.75c.107 1.893.089 3.768.089 5.661z"/></symbol></defs></svg>