<?xml version="1.0" standalone="no"?>
<!DOCTYPE svg PUBLIC "-//W3C//DTD SVG 20010904//EN"
 "http://www.w3.org/TR/2001/REC-SVG-20010904/DTD/svg10.dtd">
<svg version="1.0" xmlns="http://www.w3.org/2000/svg"
 width="260.000000pt" height="260.000000pt" viewBox="0 0 260.000000 260.000000"
 preserveAspectRatio="xMidYMid meet">
<metadata>
Created by potrace 1.11, written by Peter Selinger 2001-2013
</metadata>
<g transform="translate(0.000000,260.000000) scale(0.100000,-0.100000)"
fill="#000000" stroke="none">
<path d="M1241 2485 c-84 -19 -158 -55 -212 -105 -37 -33 -41 -41 -29 -50 8
-5 25 -10 36 -10 14 0 21 -6 20 -17 -1 -21 40 -43 79 -42 21 1 24 3 10 6 -11
3 -24 11 -28 19 -4 8 -14 14 -21 14 -7 0 -12 10 -11 23 1 15 7 21 20 19 10 -2
14 1 10 8 -3 6 -12 10 -18 9 -29 -4 -48 2 -45 13 8 23 108 9 188 -27 106 -48
233 -73 350 -68 41 1 90 2 108 2 17 0 32 3 32 7 0 28 -154 164 -185 164 -4 0
9 -18 28 -39 32 -36 67 -91 67 -106 0 -3 -7 -5 -15 -5 -8 0 -26 22 -39 49 -25
48 -92 116 -131 131 -43 17 -150 19 -214 5z m109 -129 c17 -17 11 -24 -12 -19
-32 8 -48 31 -48 69 0 66 12 71 32 14 10 -30 23 -59 28 -64z m155 9 c32 -38
37 -48 25 -56 -11 -6 -18 -4 -25 8 -5 10 -37 47 -70 82 l-60 65 45 -26 c25
-14 63 -47 85 -73z m-344 65 c-22 -19 -41 -26 -41 -15 0 5 51 34 60 34 3 0 -6
-9 -19 -19z m69 -15 c-24 -26 -40 -32 -40 -15 0 8 45 38 59 40 3 0 -6 -11 -19
-25z"/>
<path d="M1139 2343 c5 -16 13 -27 20 -25 6 1 11 -2 11 -8 0 -5 5 -10 10 -10
17 0 12 57 -6 64 -33 13 -43 7 -35 -21z"/>
<path d="M861 2315 c-108 -52 -176 -100 -274 -195 -95 -90 -178 -206 -227
-313 -30 -67 -71 -199 -69 -227 0 -8 11 25 25 73 83 304 330 578 614 683 19 7
28 13 20 13 -9 1 -48 -15 -89 -34z"/>
<path d="M1215 2329 c-7 -11 21 -66 37 -73 7 -3 -7 -2 -31 1 -27 4 -46 2 -50
-6 -13 -20 -100 -1 -136 31 -18 15 -39 28 -48 28 -8 0 -42 -30 -75 -67 -45
-51 -92 -88 -184 -145 -110 -68 -208 -148 -182 -148 15 0 264 138 313 175 30
21 61 58 86 101 43 73 59 73 24 0 -29 -63 -108 -131 -220 -191 -239 -128 -309
-232 -296 -440 6 -102 14 -134 29 -113 16 22 -2 -65 -18 -90 -17 -26 -37 -25
-42 2 -3 14 1 17 18 11 18 -6 21 -3 18 16 -4 33 -33 35 -54 4 -13 -21 -15 -31
-6 -50 l12 -25 -67 0 -66 0 5 108 c4 81 3 96 -4 62 -14 -69 -2 -293 21 -385
71 -287 277 -546 539 -679 61 -31 222 -86 248 -85 11 0 -19 11 -66 25 -179 53
-348 157 -468 290 -35 38 -64 72 -65 77 -2 8 1623 10 1631 2 3 -2 -40 -49 -94
-103 -107 -106 -219 -183 -336 -228 -37 -15 -66 -29 -64 -31 6 -6 107 36 175
73 187 103 369 303 449 496 71 172 98 380 73 559 -45 311 -250 608 -516 748
-65 35 -64 34 66 -52 108 -70 236 -204 303 -316 89 -148 146 -342 146 -497 l0
-64 -205 0 -205 0 15 24 c22 34 15 75 -16 99 -22 15 -30 17 -48 8 -20 -11 -21
-9 -21 24 l0 37 38 -23 c74 -44 91 -74 72 -124 -8 -20 -7 -26 2 -23 7 3 17 21
22 41 7 29 6 45 -7 73 -20 42 -4 35 24 -10 l19 -31 0 32 c0 38 -39 80 -99 107
l-41 19 30 18 c18 11 30 27 30 40 0 19 -1 19 -16 5 -21 -22 -27 -20 -14 3 17
32 12 46 -8 28 -18 -16 -18 -15 -15 16 3 26 2 29 -7 15 -6 -10 -19 -18 -28
-18 -32 0 -90 49 -112 95 -20 41 -22 56 -16 128 4 45 9 101 11 125 2 23 10 58
19 77 20 41 12 88 -13 83 -9 -2 -14 -8 -11 -13 3 -6 8 -9 13 -7 12 4 8 -33 -5
-46 -7 -7 -22 -12 -35 -12 -15 0 -23 -6 -23 -17 0 -27 -41 -110 -98 -197 -29
-43 -57 -97 -63 -120 -17 -62 -7 -143 26 -211 16 -33 31 -64 33 -70 12 -26
-42 34 -58 65 -46 91 -33 209 37 340 101 186 104 196 68 210 -14 5 -43 10 -63
10 -40 0 -170 25 -180 34 -3 3 9 6 26 6 18 0 32 4 32 10 0 15 -46 23 -68 11
-20 -11 -118 1 -131 15 -3 4 9 3 26 -1 25 -5 37 -2 50 11 13 13 14 19 5 22 -7
2 -10 7 -7 12 6 10 -41 57 -65 63 -11 3 -22 1 -25 -4z m-15 -195 c97 -34 140
-68 140 -112 0 -18 -6 -32 -15 -36 -12 -4 -13 -2 -5 13 13 25 -14 50 -38 35
-34 -22 -38 -42 -13 -74 22 -30 22 -31 2 -20 -15 7 -21 8 -21 0 0 -13 61 -40
90 -40 20 0 20 0 -2 -31 -46 -62 -18 -217 63 -346 50 -79 60 -121 34 -143 -18
-15 -35 -5 -35 22 0 14 5 18 15 14 9 -3 15 0 15 8 0 17 -23 27 -39 16 -7 -4
-14 -19 -14 -34 l-2 -27 -35 39 c-19 22 -59 66 -88 98 -58 64 -60 75 -32 172
7 23 10 46 6 49 -3 3 -24 -2 -47 -12 -68 -31 -112 -14 -102 38 3 13 -2 29 -11
36 -8 7 -12 19 -9 27 3 8 0 14 -7 14 -8 0 -11 9 -8 25 3 14 -1 33 -8 42 -20
26 -17 44 12 74 14 14 25 35 25 45 0 46 -9 101 -21 130 -7 17 -10 39 -7 49 6
15 11 14 41 -12 18 -17 70 -43 116 -59z m180 21 c34 -18 60 -52 60 -80 0 -15
-4 -12 -17 12 -10 18 -33 44 -52 58 -39 28 -35 33 9 10z m-466 -50 c-35 -46
-82 -82 -169 -130 -38 -21 -85 -51 -104 -66 -81 -66 -140 -193 -142 -308 l-2
-56 -7 49 c-9 69 5 151 38 216 33 66 102 124 237 201 52 29 112 70 132 91 46
47 52 48 17 3z m628 -30 c-3 -31 -31 -94 -80 -180 -15 -27 -35 -68 -45 -90
l-17 -40 5 41 c3 22 25 83 49 135 25 52 48 111 51 132 6 28 12 37 24 35 11 -3
15 -12 13 -33z m-588 -57 c-15 -30 -70 -97 -128 -157 -126 -131 -209 -234
-236 -292 l-21 -44 6 39 c14 88 108 219 197 279 62 40 105 86 162 170 22 31
41 57 43 57 2 0 -9 -23 -23 -52z m-119 -94 c-98 -85 -199 -180 -222 -210 -14
-19 -36 -62 -49 -97 -17 -43 -23 -51 -18 -27 17 103 105 218 238 311 75 53 98
63 51 23z m508 -1 c-7 -2 -21 -2 -30 0 -10 3 -4 5 12 5 17 0 24 -2 18 -5z
m-465 -155 c-18 -29 -64 -84 -102 -123 -38 -38 -62 -61 -54 -50 25 34 182 225
185 225 2 0 -12 -24 -29 -52z m66 10 c-25 -43 -99 -147 -167 -237 -43 -57 -88
-123 -100 -147 -11 -24 -27 -44 -35 -44 -23 0 46 114 137 223 46 56 102 127
124 159 37 52 60 78 41 46z m781 -38 l30 -35 -28 25 c-16 14 -33 34 -39 45
-11 21 -10 20 37 -35z m-25 -15 c19 -19 32 -35 29 -35 -3 0 -20 16 -39 35 -19
19 -32 35 -29 35 3 0 20 -16 39 -35z m-922 -7 c-13 -18 -44 -59 -68 -91 -23
-31 -60 -90 -81 -130 -21 -39 -39 -66 -39 -60 0 25 50 144 83 195 34 54 99
118 119 118 5 0 -1 -15 -14 -32z m857 -41 c68 -51 106 -90 126 -129 28 -55 23
-58 -10 -7 -15 25 -63 74 -105 109 -98 81 -105 97 -11 27z m161 -102 c13 -23
24 -50 24 -61 -1 -12 -10 -2 -25 27 -13 25 -45 69 -72 99 l-48 55 48 -39 c26
-22 59 -58 73 -81z m-881 8 c-27 -43 -69 -113 -94 -155 -25 -42 -52 -77 -58
-78 -22 0 -15 14 52 111 35 52 82 119 102 150 56 83 54 62 -2 -28z m737 -16
c39 -38 97 -127 84 -127 -3 0 -13 14 -22 32 -9 17 -41 55 -72 85 -31 29 -51
53 -45 53 6 0 31 -19 55 -43z m238 -13 c0 -2 -9 0 -20 6 -11 6 -20 13 -20 16
0 2 9 0 20 -6 11 -6 20 -13 20 -16z m-743 -56 c-14 -35 -34 -83 -46 -106 -20
-40 -24 -42 -67 -42 l-46 0 20 33 c21 33 155 185 160 182 1 -2 -8 -31 -21 -67z
m383 -125 c0 -21 -5 -23 -45 -23 l-46 0 22 29 21 28 -21 77 c-12 42 -21 80
-20 84 1 17 89 -174 89 -195z m-994 82 c-4 -23 -13 -51 -21 -61 -11 -16 -11
-10 1 36 8 30 15 66 15 80 1 19 3 20 6 6 3 -10 2 -37 -1 -61z m647 -17 l5 -88
-25 0 c-21 0 -24 3 -19 28 3 15 11 55 17 90 6 34 13 61 14 60 1 -2 5 -42 8
-90z m177 -78 c0 -5 -18 -10 -39 -10 l-40 0 -3 53 c-2 28 -7 51 -13 49 -5 -2
-9 -25 -8 -53 2 -49 2 -50 -25 -47 -27 3 -27 3 -29 93 l-3 90 80 -82 c44 -45
80 -87 80 -93z m-457 63 c-41 -62 -73 -90 -73 -64 0 16 102 131 116 131 1 0
-18 -30 -43 -67z m671 -12 c42 -57 44 -64 14 -59 -16 2 -26 16 -39 56 -10 28
-16 52 -14 52 2 0 19 -22 39 -49z m333 33 c3 -8 -1 -22 -9 -31 -14 -13 -15
-12 -11 10 4 19 0 26 -14 30 -14 4 -14 5 5 6 12 0 25 -6 29 -15z m-153 -30 c3
-8 2 -12 -4 -9 -6 3 -10 10 -10 16 0 14 7 11 14 -7z m-89 -36 l16 -33 -20 25
c-20 24 -26 40 -16 40 2 0 12 -15 20 -32z m-540 -7 c-3 -12 -10 -21 -15 -21
-5 0 -4 11 2 25 13 29 23 26 13 -4z m-98 -77 c-3 -3 -12 -4 -19 -1 -8 3 -5 6
6 6 11 1 17 -2 13 -5z m576 -1 c-7 -2 -19 -2 -25 0 -7 3 -2 5 12 5 14 0 19 -2
13 -5z m-650 -10 c-7 -2 -19 -2 -25 0 -7 3 -2 5 12 5 14 0 19 -2 13 -5z m-253
-65 c14 -15 20 -35 20 -65 0 -39 -2 -43 -24 -43 -21 0 -25 5 -28 38 -3 34 -6
37 -33 37 l-30 0 -3 -136 c-2 -115 0 -138 14 -149 25 -22 48 0 52 49 3 36 6
41 28 41 22 0 24 -3 24 -54 0 -47 -4 -57 -26 -75 -30 -24 -90 -27 -116 -7 -30
22 -38 64 -38 192 0 91 4 133 15 154 17 34 27 38 82 39 31 1 48 -5 63 -21z
m350 -3 c0 -24 -3 -25 -55 -25 l-55 0 0 -60 0 -60 45 0 c41 0 45 -2 45 -25 0
-23 -4 -25 -45 -25 l-46 0 3 -62 3 -63 53 -3 c48 -3 52 -5 52 -28 0 -25 0 -25
-82 -22 l-83 3 -3 198 -2 197 85 0 c84 0 85 0 85 -25z m314 4 c23 -18 26 -27
26 -81 0 -42 -5 -67 -16 -79 -14 -15 -14 -20 -1 -41 9 -13 17 -56 19 -100 l5
-78 -29 0 c-28 0 -28 1 -28 63 0 69 -18 107 -51 107 -17 0 -19 -7 -19 -85 l0
-85 -30 0 -30 0 0 200 0 200 64 0 c49 0 69 -5 90 -21z m356 -4 c0 -24 -3 -25
-55 -25 l-55 0 0 -60 0 -60 45 0 c41 0 45 -2 45 -25 0 -23 -4 -25 -45 -25
l-46 0 3 -62 3 -63 53 -3 c48 -3 52 -5 52 -28 0 -23 -2 -24 -80 -24 l-80 0 0
200 0 200 80 0 c79 0 80 0 80 -25z m309 -1 c30 -38 28 -74 -3 -74 -17 0 -26 7
-30 26 -5 20 -12 25 -34 22 -22 -2 -28 -9 -30 -35 -3 -28 5 -41 46 -85 61 -66
72 -86 72 -138 0 -70 -65 -110 -135 -84 -20 8 -45 56 -45 89 0 19 5 25 23 25
17 0 25 -8 32 -32 12 -40 48 -50 64 -19 16 29 -1 66 -58 126 -54 57 -68 98
-51 150 14 43 33 54 87 55 33 0 46 -5 62 -26z"/>
<path d="M1270 1125 c0 -63 1 -65 25 -65 31 0 46 32 38 81 -5 36 -17 49 -45
49 -15 0 -18 -10 -18 -65z"/>
<path d="M1320 2291 c0 -16 69 -61 102 -67 29 -4 31 -3 14 8 -10 7 -34 25 -53
41 -36 27 -63 35 -63 18z"/>
<path d="M1425 2270 c-7 -11 67 -49 100 -51 13 -1 10 -4 -9 -8 -38 -8 -44 -27
-11 -35 27 -7 81 14 57 22 -9 3 -10 7 -2 17 9 10 -1 17 -42 30 -29 10 -57 21
-62 26 -13 12 -23 11 -31 -1z"/>
<path d="M1562 2262 c-23 -7 -12 -21 28 -33 28 -9 37 -15 28 -21 -10 -6 -10
-10 1 -17 16 -10 66 8 54 20 -18 17 -100 55 -111 51z"/>
<path d="M1646 2262 c-6 -10 25 -22 59 -22 25 0 8 17 -26 25 -15 4 -30 2 -33
-3z"/>
<path d="M1579 2180 c-17 -11 -14 -14 38 -28 28 -9 49 -9 67 -2 38 14 33 32
-7 25 -18 -4 -44 -2 -58 3 -15 6 -32 7 -40 2z"/>
<path d="M1485 679 c-4 -6 -5 -13 -2 -16 7 -7 27 6 27 18 0 12 -17 12 -25 -2z"/>
<path d="M1072 648 c-51 -25 -34 -110 24 -116 19 -2 36 3 44 13 15 19 5 34
-12 17 -30 -30 -75 0 -64 42 7 27 34 42 50 26 12 -12 36 -13 36 -2 0 7 -46 34
-53 31 -1 0 -12 -5 -25 -11z"/>
<path d="M1207 608 c-8 -24 -18 -51 -22 -60 -6 -14 -2 -18 15 -18 17 0 20 4
15 20 -5 16 -2 20 19 20 19 0 26 -5 26 -20 0 -14 7 -20 21 -20 11 0 19 3 17 8
-8 15 -35 78 -41 95 -11 30 -35 18 -50 -25z m43 -9 c0 -5 -7 -9 -15 -9 -9 0
-12 6 -9 15 6 15 24 11 24 -6z"/>
<path d="M1335 590 c0 -51 3 -60 18 -60 14 0 16 5 11 25 -5 21 -3 25 15 25 12
0 21 5 21 10 0 6 -9 10 -20 10 -12 0 -20 7 -20 16 0 13 7 15 30 11 22 -5 30
-3 30 8 0 11 -12 15 -42 15 l-43 0 0 -60z"/>
<path d="M1455 590 l0 -60 43 0 c35 0 42 3 42 20 0 11 -4 20 -10 20 -5 0 -10
-4 -10 -10 0 -5 -9 -10 -20 -10 -27 0 -25 26 3 35 l22 8 -22 4 c-13 2 -23 11
-23 20 0 12 7 14 30 10 22 -5 30 -3 30 8 0 11 -12 15 -42 15 l-43 0 0 -60z"/>
<path d="M901 612 c-7 -14 -6 -25 5 -40 19 -27 36 -28 58 -3 14 15 15 24 6 40
-14 26 -56 28 -69 3z m49 -23 c0 -5 -7 -9 -15 -9 -15 0 -20 12 -9 23 8 8 24
-1 24 -14z"/>
<path d="M1631 612 c-7 -14 -6 -25 5 -40 19 -27 36 -28 58 -3 14 15 15 24 6
40 -14 26 -56 28 -69 3z m49 -23 c0 -5 -7 -9 -15 -9 -15 0 -20 12 -9 23 8 8
24 -1 24 -14z"/>
<path d="M1540 385 c-25 -7 -36 -13 -25 -13 11 0 38 5 60 13 52 17 24 17 -35
0z"/>
<path d="M1146 358 c21 -4 91 -7 154 -7 63 0 133 3 154 7 21 4 -48 7 -154 7
-106 0 -175 -3 -154 -7z"/>
</g>
</svg>
