<svg style="position: absolute; width: 0; height: 0; overflow: hidden;" version="1.1" xmlns="http://www.w3.org/2000/svg" xmlns:xlink="http://www.w3.org/1999/xlink">
<defs>
<symbol id="icon-emo-happy" viewBox="0 0 32 32">
<title>emo-happy</title>
<path d="M8.352 1.6c-1.92 0-3.488 2.080-3.488 4.608 0 2.56 1.568 4.64 3.488 4.64s3.52-2.080 3.52-4.64c0-2.528-1.568-4.608-3.52-4.608zM23.616 1.6c-1.952 0-3.52 2.080-3.52 4.608 0 2.56 1.568 4.64 3.52 4.64 1.92 0 3.52-2.080 3.52-4.64 0-2.528-1.6-4.608-3.52-4.608zM30.272 20.768c-0.416 0-0.864 0.16-1.184 0.512-0.128 0.128-0.256 0.256-0.384 0.384-3.552 3.488-8.096 5.248-12.672 5.28-4.544 0.064-9.12-1.6-12.672-4.96l-0.48-0.48c-0.672-0.672-1.728-0.64-2.4 0.032-0.64 0.672-0.64 1.76 0.032 2.432 0.096 0.128 0.256 0.256 0.448 0.448l0.096 0.096c4.224 3.968 9.632 5.952 15.008 5.888 5.408-0.032 10.784-2.144 14.976-6.24 0.16-0.16 0.288-0.32 0.448-0.448 0.64-0.704 0.64-1.792-0.032-2.464-0.32-0.32-0.736-0.48-1.184-0.48z"></path>
</symbol>
<symbol id="icon-emo-wink" viewBox="0 0 32 32">
<title>emo-wink</title>
<path d="M8.352 1.6c-1.92 0-3.488 2.080-3.488 4.608 0 2.56 1.568 4.64 3.488 4.64s3.52-2.080 3.52-4.64c0-2.528-1.568-4.608-3.52-4.608zM19.328 4.736c-0.928 0-1.728 0.768-1.728 1.728s0.8 1.728 1.728 1.728h8.544c0.96 0 1.728-0.768 1.728-1.728s-0.768-1.728-1.728-1.728h-8.544zM30.272 20.768c-0.416 0-0.864 0.16-1.184 0.512-0.128 0.128-0.256 0.256-0.384 0.384-3.552 3.488-8.096 5.248-12.672 5.28-4.544 0.064-9.12-1.6-12.672-4.96l-0.48-0.48c-0.672-0.672-1.728-0.64-2.4 0.032-0.64 0.672-0.64 1.76 0.032 2.432 0.096 0.128 0.256 0.256 0.448 0.448l0.096 0.096c4.224 3.968 9.632 5.952 15.008 5.888 5.408-0.032 10.784-2.144 14.976-6.24 0.16-0.16 0.288-0.32 0.448-0.448 0.64-0.704 0.64-1.792-0.032-2.464-0.32-0.32-0.736-0.48-1.184-0.48z"></path>
</symbol>
<symbol id="icon-emo-unhappy" viewBox="0 0 32 32">
<title>emo-unhappy</title>
<path d="M8.352 1.6c-1.92 0-3.488 2.080-3.488 4.608 0 2.56 1.568 4.64 3.488 4.64s3.52-2.080 3.52-4.64c0-2.528-1.568-4.608-3.52-4.608zM23.616 1.6c-1.952 0-3.52 2.080-3.52 4.608 0 2.56 1.568 4.64 3.52 4.64 1.92 0 3.52-2.080 3.52-4.64 0-2.528-1.6-4.608-3.52-4.608zM15.808 20.768c-5.28 0-10.592 1.984-14.752 5.888l-0.096 0.096c-0.192 0.16-0.352 0.32-0.448 0.448-0.672 0.672-0.672 1.76-0.032 2.432 0.672 0.672 1.728 0.672 2.4 0.032l0.48-0.48c3.552-3.36 8.128-5.024 12.672-4.96 4.576 0.032 9.12 1.792 12.672 5.28 0.128 0.128 0.256 0.256 0.384 0.384 0.64 0.672 1.728 0.672 2.368 0.032 0.672-0.672 0.672-1.76 0.032-2.464-0.16-0.16-0.288-0.32-0.448-0.448-4.192-4.128-9.568-6.208-14.976-6.24-0.096 0-0.192 0-0.256 0z"></path>
</symbol>
<symbol id="icon-emo-sleep" viewBox="0 0 28 32">
<title>emo-sleep</title>
<path d="M1.696 5.024c-0.352 0-0.672 0.128-0.96 0.32-0.768 0.544-0.96 1.6-0.416 2.4 1.44 2.016 3.808 3.264 6.272 3.264 2.272 0 4.416-1.024 5.856-2.72 0.64-0.704 0.576-1.76-0.128-2.4s-1.792-0.576-2.432 0.128v0l-0.032 0.032v0.032l-0.032 0.032c-0.096 0.096-0.224 0.224-0.32 0.32l-0.064 0.064c-0.096 0.096-0.224 0.192-0.352 0.288v0c-1.888 1.344-4.576 0.928-5.952-1.024-0.352-0.48-0.896-0.736-1.44-0.736zM17.216 5.024c-0.352 0-0.672 0.128-0.96 0.32-0.768 0.544-0.96 1.6-0.416 2.4 1.44 2.016 3.808 3.264 6.304 3.264 2.24 0 4.384-1.024 5.856-2.72 0.608-0.704 0.544-1.76-0.16-2.4s-1.792-0.576-2.4 0.128h-0.032l-0.032 0.032v0.032l-0.032 0.032c-0.096 0.096-0.224 0.224-0.32 0.32l-0.032 0.032v0.032c-0.128 0.096-0.256 0.192-0.384 0.288v0c-1.888 1.344-4.576 0.928-5.952-1.024-0.352-0.48-0.896-0.736-1.44-0.736zM3.296 23.552c-0.928 0-1.696 0.768-1.696 1.696 0 0.96 0.768 1.728 1.696 1.728h21.824c0.96 0 1.728-0.768 1.728-1.728s-0.768-1.696-1.728-1.696h-21.824z"></path>
</symbol>
<symbol id="icon-emo-thumbsup" viewBox="0 0 46 32">
<title>emo-thumbsup</title>
<path d="M23.808 0c-1.92 0-3.488 2.048-3.488 4.576s1.568 4.576 3.488 4.576c1.92 0 3.456-2.048 3.456-4.576s-1.536-4.576-3.456-4.576zM4.544 2.56c-0.928 0-1.696 0.768-1.696 1.728s0.768 1.696 1.696 1.696h9.28c0.96 0 1.728-0.768 1.728-1.696s-0.768-1.696-1.728-1.696l-9.28-0.032zM37.824 3.232c-0.512 0-1.088 0.064-1.728 0.224-3.584 1.632-3.488 5.568-2.976 8.512h-4.192c-2.176 0-3.968 1.696-3.968 3.936 0 1.088 0.256 2.272 0.96 3.136-0.32 0.352-0.576 0.768-0.736 1.216-0.576 1.536-0.32 3.392 0.736 4.608-0.16 0.192-0.576 0.864-0.576 0.864-0.928 1.824-0.32 4.608 1.472 5.728 0.544 0.352 1.216 0.544 2.048 0.544h12.096c2.912-0.096 5.344-2.432 5.344-5.408v-9.184c0-1.568-0.96-3.456-1.568-4.832-0.8-1.856-1.568-3.712-2.336-5.568-0.96-2.304-2.272-3.776-4.576-3.776zM37.92 6.912c0.96-0.032 1.344 1.536 1.632 2.144 0.672 1.664 1.344 4.128 2.048 5.792 0.672 1.504 1.216 2.816 1.216 3.328v8.16c0 1.312-1.152 2.304-2.432 2.368h-10.624c-0.544 0-0.832-0.288-0.96-0.768-0.16-0.48-0.224-1.088 0.128-1.504 0.192-0.256 0.512-0.416 0.832-0.416 0.672 0.032 1.248-0.544 1.248-1.216s-0.544-1.184-1.216-1.184c-0.288 0-0.576-0.128-0.768-0.352-0.48-0.512-0.512-1.6 0-2.080 0.096-0.128 0.224-0.192 0.384-0.256 0.128-0.032 0.256-0.064 0.384-0.064 0.64 0 1.216-0.544 1.216-1.216s-0.544-1.216-1.216-1.216c-0.896 0-1.088-0.896-1.088-1.6 0-0.384 0.224-0.736 0.544-0.928-0.032-0.064 6.048-0.128 6.72-0.128 0.864 0 1.504-0.96 1.056-1.76-0.864-1.632-1.44-6.624 0.704-7.072 0.064-0.032 0.128-0.032 0.192-0.032zM1.664 15.36c-0.224 0-0.448 0.032-0.64 0.128-0.864 0.384-1.248 1.408-0.864 2.272 2.112 4.736 6.208 8.128 11.008 9.504 0.928 0.256 1.888 0.448 2.88 0.544 0.96 0.096 1.952 0.128 2.912 0.064h0.16c0.96-0.096 1.664-0.896 1.6-1.856-0.064-0.928-0.896-1.632-1.856-1.568h-0.096c-0.8 0.064-1.6 0.032-2.368-0.032-0.768-0.096-1.536-0.256-2.304-0.448-3.84-1.088-7.104-3.84-8.832-7.616-0.288-0.64-0.928-1.024-1.6-0.992z"></path>
</symbol>
<symbol id="icon-emo-devil" viewBox="0 0 32 32">
<title>emo-devil</title>
<path d="M3.552 0c-0.032 0-0.096 0-0.16 0-0.032 0-0.064 0-0.096 0.032v0c-0.032 0-0.064 0-0.096 0s-0.032 0-0.032 0c-0.256 0.064-0.544 0.224-0.768 0.384-0.064 0.032-0.096 0.064-0.16 0.128-0.032 0.032-0.064 0.064-0.128 0.096v0 0 0 0c-0.352 0.352-0.64 0.704-0.896 1.088-0.064 0.064-0.096 0.16-0.16 0.224-0.032 0.064-0.096 0.128-0.128 0.224v0 0 0c-0.224 0.384-0.384 0.768-0.544 1.184-0.032 0.096-0.032 0.192-0.064 0.256s-0.032 0.16-0.064 0.256v0c-0.544 2.080-0.16 4.352 0.576 6.016 0.16 0.32 0.32 0.608 0.48 0.896 0.16 0.256 0.352 0.512 0.512 0.736h0.032c0.16 0.192 0.384 0.288 0.64 0.32 0.224 0.032 0.48-0.064 0.672-0.224v0c0.032-0.032 0.096-0.064 0.128-0.128v0c0 0 0 0 0 0 0-0.032 0.032-0.032 0.032-0.032 0.128-0.16 0.224-0.32 0.352-0.48l0.096-0.096 0.064-0.096c0.128-0.16 0.256-0.288 0.384-0.448l0.096-0.064 0.064-0.096c0.704-0.768 1.504-1.408 2.368-1.984 0.16-0.128 0.352-0.224 0.512-0.32s0.32-0.192 0.512-0.288c0-0.032 0-0.032 0.032-0.032 0.224-0.128 0.384-0.32 0.448-0.544 0.064-0.256 0.032-0.512-0.096-0.736v0c-0.064-0.16-0.192-0.256-0.352-0.352v0 0c0 0-0.032-0.032-0.032-0.032-0.032 0-0.032 0-0.032 0-0.032-0.032-0.064-0.032-0.096-0.064v0 0 0 0c-0.224-0.064-0.416-0.16-0.64-0.256-0.032 0-0.064-0.032-0.096-0.064l-0.096-0.032c0 0-0.032-0.032-0.032-0.032v0c-0.16-0.096-0.352-0.192-0.512-0.32 0 0-0.032-0.032-0.064-0.064l-0.064-0.064c-0.032 0-0.032 0-0.032 0v0 0 0c-0.736-0.608-1.152-1.344-1.28-2.144 0-0.128-0.032-0.288-0.032-0.448s0-0.32 0.032-0.448v0-0.032c0.064-0.32 0.064-0.576 0-0.8 0-0.064-0.032-0.096-0.032-0.16 0-0.032-0.032-0.096-0.032-0.128h-0.032c-0.096-0.256-0.256-0.448-0.448-0.608-0.032-0.032-0.096-0.032-0.128-0.064s-0.096-0.064-0.128-0.064v0 0c-0.16-0.064-0.32-0.096-0.48-0.096zM28.416 0c-0.16 0-0.32 0.032-0.448 0.096v0 0c-0.064 0-0.096 0.032-0.128 0.064-0.064 0.032-0.096 0.032-0.128 0.064-0.192 0.16-0.352 0.352-0.48 0.608v0 0 0c0 0.032-0.032 0.096-0.032 0.128-0.032 0.064-0.032 0.096-0.032 0.16-0.064 0.224-0.064 0.48 0 0.8v0.032c0 0.128 0.032 0.288 0.032 0.448s-0.032 0.32-0.032 0.448c-0.128 0.8-0.576 1.536-1.28 2.144v0 0 0c-0.032 0-0.032 0-0.032 0l-0.064 0.064c-0.032 0.032-0.064 0.064-0.096 0.064-0.16 0.128-0.32 0.224-0.48 0.32v0c-0.032 0-0.032 0.032-0.032 0.032l-0.096 0.032c-0.032 0.032-0.096 0.064-0.128 0.064-0.192 0.096-0.384 0.192-0.608 0.256v0 0 0 0c-0.032 0.032-0.064 0.032-0.096 0.064 0 0-0.032 0-0.032 0-0.032 0-0.032 0.032-0.064 0.032v0 0c-0.128 0.096-0.256 0.192-0.32 0.352h-0.032c-0.096 0.224-0.128 0.48-0.064 0.736 0.064 0.224 0.224 0.416 0.448 0.544 0.032 0 0.032 0 0.032 0.032 0.192 0.096 0.352 0.192 0.512 0.288s0.32 0.192 0.512 0.32c0.864 0.576 1.632 1.216 2.368 1.984v0 0 0 0l0.064 0.096 0.096 0.064c0.128 0.16 0.256 0.288 0.384 0.448v0l0.128 0.192c0.128 0.16 0.256 0.32 0.384 0.48 0 0 0 0 0.032 0.032 0 0 0 0 0 0v0c0.032 0.064 0.064 0.096 0.128 0.128v0c0.192 0.16 0.448 0.256 0.672 0.224s0.48-0.128 0.64-0.32v0 0 0 0c0.192-0.224 0.352-0.48 0.544-0.736 0.16-0.288 0.32-0.576 0.448-0.896 0.736-1.664 1.152-3.936 0.608-6.016v0c-0.032-0.096-0.064-0.192-0.064-0.256-0.032-0.064-0.064-0.16-0.096-0.256-0.128-0.416-0.288-0.8-0.512-1.184v0 0 0c-0.064-0.096-0.096-0.16-0.128-0.224-0.064-0.064-0.096-0.16-0.16-0.224-0.256-0.384-0.544-0.736-0.896-1.088v0 0h-0.032c-0.032-0.032-0.064-0.064-0.128-0.096-0.032-0.064-0.064-0.096-0.128-0.128-0.256-0.16-0.512-0.32-0.768-0.384 0 0-0.032 0-0.032 0-0.032 0-0.064 0-0.096 0v0c-0.032-0.032-0.064-0.032-0.128-0.032-0.032 0-0.096 0-0.16 0zM7.104 12.416l-0.032 0.064c-1.472 2.016-1.472 5.248 0 7.264 0.704 0.96 1.696 1.568 2.784 1.568v0h0.032c2.624 0 3.904-3.008 3.904-5.184v0-0.032c0-0.192 0-0.352-0.032-0.512-0.064-0.032-0.128-0.064-0.224-0.128l-6.432-3.040zM24.896 12.416l-6.464 3.040c-0.064 0.064-0.128 0.096-0.192 0.128-0.032 0.16-0.032 0.32-0.032 0.512v0 0.032c0 2.176 1.28 5.184 3.904 5.184v0 0 0c1.12 0 2.080-0.608 2.784-1.568 1.472-2.016 1.504-5.248 0-7.264h0.032l-0.032-0.064zM25.568 24.384c-0.416 0-0.864 0.16-1.184 0.48v0c-0.032 0.032-0.032 0.064-0.064 0.096-0.32 0.32-0.64 0.64-0.992 0.928-0.32 0.288-0.704 0.576-1.088 0.832-1.984 1.312-4.32 1.984-6.72 1.856v0 0.032c-1.504-0.064-2.976-0.448-4.32-1.056-0.224-0.128-0.448-0.224-0.64-0.32-1.056-0.608-2.048-1.376-2.912-2.304-0.64-0.704-1.696-0.736-2.4-0.096s-0.736 1.696-0.096 2.4c1.088 1.184 2.368 2.208 3.808 2.976 0.288 0.16 0.544 0.288 0.832 0.416 1.728 0.8 3.616 1.28 5.568 1.344v0.032c3.136 0.128 6.176-0.736 8.736-2.432 0.512-0.32 0.992-0.704 1.44-1.088s0.896-0.8 1.28-1.248c0.64-0.672 0.64-1.728-0.032-2.368-0.32-0.352-0.768-0.512-1.216-0.48z"></path>
</symbol>
<symbol id="icon-emo-surprised" viewBox="0 0 22 32">
<title>emo-surprised</title>
<path d="M3.52 0.032c-1.952 0-3.52 2.080-3.52 4.608 0 2.56 1.568 4.64 3.52 4.64s3.488-2.080 3.488-4.64c0-2.528-1.568-4.608-3.488-4.608zM18.752 0.032c-1.92 0-3.488 2.080-3.488 4.608 0 2.56 1.568 4.64 3.488 4.64 1.952 0 3.52-2.080 3.52-4.64 0-2.528-1.568-4.608-3.52-4.608zM10.592 13.856v0c-1.792 0-3.424 0.736-4.576 1.888-1.184 1.184-1.92 2.816-1.92 4.608v0 5.184c0 1.792 0.736 3.392 1.888 4.576 1.184 1.184 2.816 1.92 4.608 1.92v0h1.088c1.792 0 3.424-0.736 4.576-1.92 1.184-1.152 1.92-2.784 1.92-4.576v0-5.184c0-1.792-0.736-3.424-1.888-4.576-1.184-1.184-2.816-1.92-4.608-1.92v0h-1.088zM10.592 17.28v0h1.088c0.832 0 1.6 0.352 2.144 0.896 0.576 0.576 0.928 1.344 0.928 2.176v0 5.184c0 0.832-0.352 1.6-0.896 2.144-0.576 0.576-1.344 0.928-2.176 0.928v-0.032h-1.088v0.032c-0.832 0-1.6-0.352-2.176-0.928-0.544-0.544-0.896-1.312-0.896-2.144v0-5.184c0-0.832 0.352-1.6 0.896-2.144 0.576-0.576 1.344-0.928 2.176-0.928z"></path>
</symbol>
<symbol id="icon-emo-tongue" viewBox="0 0 26 32">
<title>emo-tongue</title>
<path d="M5.568 1.6c-1.952 0-3.52 2.080-3.52 4.608 0 2.56 1.568 4.64 3.52 4.64s3.52-2.080 3.52-4.64c0-2.528-1.568-4.608-3.52-4.608zM20.8 1.6c-1.92 0-3.488 2.080-3.488 4.608 0 2.56 1.568 4.64 3.488 4.64 1.952 0 3.52-2.080 3.52-4.64 0-2.528-1.568-4.608-3.52-4.608zM24.672 19.52l-22.976 0.032c-0.928 0-1.696 0.768-1.696 1.696 0 0.96 0.768 1.728 1.696 1.728h4.48v2.368c0 1.76 0.64 3.456 1.92 4.736 1.472 1.504 3.296 1.92 5.28 1.92 1.824 0 3.552-0.544 4.896-1.888 1.312-1.312 1.92-3.008 1.92-4.8v-2.368h4.48c0.928 0 1.696-0.768 1.696-1.696 0-0.96-0.768-1.728-1.696-1.728zM9.6 23.008h7.168v2.304c0 0.864-0.224 1.696-0.896 2.368-1.248 1.248-4.128 1.248-5.376 0-0.64-0.672-0.896-1.44-0.896-2.336v-2.336z"></path>
</symbol>
<symbol id="icon-emo-coffee" viewBox="0 0 54 32">
<title>emo-coffee</title>
<path d="M39.488 0c-0.544 0-1.088 0.256-1.408 0.736-1.728 2.56-0.768 4.608 0.128 6.528 0.416 0.928 0.832 1.792 0.16 2.304-0.736 0.544-0.896 1.632-0.32 2.368 0.544 0.736 1.632 0.896 2.368 0.32 2.848-2.144 1.92-4.192 0.864-6.432-0.48-1.056-1.024-2.24-0.384-3.168 0.512-0.8 0.32-1.824-0.448-2.368-0.288-0.192-0.64-0.288-0.96-0.288zM6.816 3.872c-2.592 0-5.024 1.248-6.496 3.36-0.576 0.8-0.384 1.888 0.448 2.464 0.768 0.544 1.888 0.352 2.432-0.448 1.44-2.016 4.224-2.432 6.176-1.024v0c0.096 0.064 0.224 0.16 0.352 0.288h0.032l0.032 0.064c0.096 0.096 0.224 0.224 0.32 0.32l0.032 0.032v0.032l0.032 0.032h0.032c0.64 0.736 1.76 0.8 2.496 0.128 0.704-0.64 0.768-1.76 0.128-2.464-1.472-1.76-3.712-2.784-6.016-2.784zM22.784 3.872c-2.56 0-4.992 1.248-6.464 3.36-0.576 0.8-0.384 1.888 0.416 2.464 0.8 0.544 1.888 0.352 2.464-0.448 1.408-2.016 4.192-2.432 6.144-1.024v0c0.128 0.064 0.256 0.16 0.384 0.288v0l0.032 0.064c0.128 0.096 0.224 0.224 0.352 0.32l0.032 0.032v0.032l0.032 0.032c0.64 0.736 1.76 0.8 2.496 0.128 0.736-0.64 0.8-1.76 0.128-2.464-1.472-1.76-3.712-2.784-6.016-2.784zM29.376 14.944c-0.768 0-1.408 0.608-1.408 1.376l0.032 0.128-0.032 8.8c0 1.856 0.768 3.552 1.984 4.768v0 0 0c1.216 1.216 2.912 1.984 4.736 1.984v0h7.232c0.032 0 0.096 0 0.16 0 0.416-0.032 0.864-0.064 1.248-0.16 0.48-0.128 0.928-0.256 1.344-0.448 1.76-0.832 3.104-2.368 3.648-4.256h0.992c1.184 0 2.24-0.48 3.008-1.248 0.736-0.736 1.216-1.792 1.216-2.944v0 0-3.808c0-1.152-0.48-2.208-1.248-2.976v0c-0.736-0.736-1.792-1.216-2.944-1.216v0 0h-19.968zM48.704 18.144c0.352 0 0.672 0.16 0.896 0.384h0.032c0.224 0.256 0.384 0.576 0.384 0.928v0 3.52c0 0.352-0.16 0.672-0.384 0.928-0.256 0.224-0.576 0.384-0.928 0.384v0h-1.984c-0.672 0-1.248 0.512-1.28 1.152-0.128 1.344-0.992 2.464-2.144 3.008-0.224 0.096-0.48 0.192-0.704 0.256-0.224 0.032-0.448 0.064-0.672 0.064h-6.784v0.032c-0.96-0.032-1.888-0.416-2.528-1.088h-0.032c-0.672-0.672-1.088-1.6-1.088-2.592v0 0 0l0.032-6.976h17.184zM46.080 19.904v3.072h1.024c0.704 0 1.248-0.544 1.248-1.216v-0.64c0-0.672-0.544-1.216-1.248-1.216h-1.024zM9.888 20.288c-0.96 0-1.76 0.8-1.76 1.76s0.8 1.76 1.76 1.76h9.504c0.96 0 1.728-0.8 1.728-1.76s-0.768-1.76-1.728-1.76h-9.504z"></path>
</symbol>
<symbol id="icon-emo-sunglasses" viewBox="0 0 32 32">
<title>emo-sunglasses</title>
<path d="M15.84 3.36c-4.928 0-9.888 0-14.816 0-0.576 0-1.024 0.48-1.024 1.056 0.096 4.864 4.128 9.792 8.896 9.888 2.688 0.032 5.248-1.152 6.976-3.040 1.76 1.888 4.32 3.072 7.008 3.040 4.768-0.096 8.704-5.024 8.8-9.888 0-0.576-0.448-1.056-1.024-1.056-4.96 0-9.888 0-14.816 0zM26.048 19.68c-0.576 0-1.12 0.288-1.44 0.8v0c0 0.032-0.032 0.064-0.032 0.096-0.224 0.384-0.48 0.736-0.768 1.088-0.32 0.384-0.608 0.736-0.928 1.024-1.728 1.632-4.032 2.56-6.496 2.56v0 0c-0.672 0-1.376-0.064-2.048-0.224-0.096-0.032-0.192-0.032-0.32-0.064-0.544-0.16-1.088-0.352-1.632-0.608-0.832-0.384-1.856-0.032-2.24 0.832-0.416 0.864-0.032 1.856 0.8 2.272 0.704 0.32 1.44 0.576 2.208 0.768 0.16 0.032 0.288 0.064 0.448 0.128 0.928 0.192 1.856 0.288 2.784 0.288v0 0c3.328 0 6.432-1.248 8.8-3.456 0.48-0.448 0.896-0.928 1.28-1.408 0.352-0.448 0.704-0.96 1.024-1.504 0 0 0.032-0.032 0.032-0.032 0.48-0.8 0.224-1.856-0.576-2.336-0.288-0.16-0.576-0.256-0.896-0.224z"></path>
</symbol>
<symbol id="icon-emo-displeased" viewBox="0 0 26 32">
<title>emo-displeased</title>
<path d="M5.472 1.6c-1.952 0-3.52 2.080-3.52 4.608 0 2.56 1.568 4.64 3.52 4.64s3.488-2.080 3.488-4.64c0-2.528-1.568-4.608-3.488-4.608zM20.704 1.6c-1.952 0-3.52 2.080-3.52 4.608 0 2.56 1.568 4.64 3.52 4.64s3.52-2.080 3.52-4.64c0-2.528-1.568-4.608-3.52-4.608zM1.696 15.904c-0.576 0-1.152 0.32-1.472 0.864-0.48 0.832-0.192 1.888 0.64 2.368l22.688 12.128c0.832 0.48 1.888 0.192 2.368-0.64s0.192-1.888-0.64-2.368l-22.688-12.128c-0.288-0.16-0.576-0.224-0.896-0.224z"></path>
</symbol>
<symbol id="icon-emo-beer" viewBox="0 0 57 32">
<title>emo-beer</title>
<path d="M43.648 0c-0.928 0-1.888 0.224-2.752 0.64-0.128 0.064-0.256 0.128-0.384 0.224-1.216 0.704-1.184 0.384-2.56 0.448-1.024 0.032-1.984 0.384-2.848 0.928-0.832 0.512-1.568 1.248-2.080 2.048-0.512 0.864-0.832 1.856-0.8 2.848 0.032 0.832 0.736 1.472 1.568 1.472v0.032h19.808c0.832 0 1.536-0.704 1.536-1.536 0.096-1.024-0.224-2.048-0.768-2.912-0.48-0.768-1.152-1.44-1.92-1.952-0.8-0.48-1.696-0.832-2.624-0.928-0.672-0.064-1.344 0-1.984 0.192-0.096-0.096-0.224-0.16-0.32-0.256-1.152-0.832-2.528-1.248-3.872-1.248zM21.408 1.504c-1.952 0-3.552 2.080-3.552 4.64s1.6 4.64 3.552 4.64c1.92 0 3.52-2.080 3.52-4.64s-1.6-4.64-3.52-4.64zM43.648 3.104c0.928-0.032 1.92 0.384 2.656 1.184 0.48 0.608 1.344 0.768 2.016 0.352 0.352-0.224 0.768-0.288 1.184-0.256 0.448 0.064 0.896 0.224 1.28 0.48 0.288 0.16 0.544 0.416 0.768 0.672h-15.584c0.224-0.256 0.48-0.512 0.768-0.704 0.416-0.256 0.896-0.416 1.344-0.448 0.32 0 0.672 0.064 0.992 0.256 0.608 0.416 1.472 0.288 1.984-0.288 0.672-0.8 1.632-1.248 2.592-1.248zM10.336 4.672h-8.608c-0.96 0-1.728 0.768-1.728 1.728s0.768 1.728 1.728 1.728h8.608c0.96 0 1.728-0.768 1.728-1.728s-0.768-1.728-1.728-1.728zM33.6 10.752c-0.736 0-1.344 0.608-1.344 1.344v0.128l-0.032 13.184c0 1.824 0.768 3.456 1.952 4.64v0 0.032c1.184 1.184 2.848 1.92 4.64 1.92v0h7.040c0.064 0 0.128 0 0.16 0 0.448-0.032 0.864-0.064 1.248-0.16 0.448-0.096 0.896-0.256 1.312-0.448 1.696-0.8 3.040-2.304 3.584-4.128h0.96v-0.032c1.12 0 2.176-0.448 2.912-1.216 0.736-0.736 1.216-1.76 1.216-2.88v0 0-8.256c0-1.152-0.48-2.176-1.216-2.912v-0.032c-0.736-0.736-1.76-1.184-2.912-1.184v0 0h-19.52zM52.512 13.888c0.352 0 0.672 0.16 0.896 0.384v0 0c0.224 0.224 0.384 0.544 0.384 0.896v0 0 8c0 0.352-0.16 0.672-0.384 0.896-0.224 0.256-0.544 0.384-0.896 0.384v0h-1.952c-0.64 0-1.184 0.512-1.248 1.152-0.128 1.312-0.96 2.4-2.080 2.944-0.224 0.096-0.48 0.16-0.704 0.224s-0.448 0.064-0.672 0.096h-6.592c-0.96 0-1.856-0.416-2.496-1.056h-0.032c-0.64-0.672-1.056-1.568-1.056-2.528v0 0 0l0.032-11.392h3.264v11.168c0 1.12 2.208 1.056 2.208 0v-11.168h3.264v11.296c0 1.152 2.208 1.088 2.208 0v-11.296h5.856zM49.952 15.808v6.656h1.024c0.64 0 1.184-0.544 1.184-1.184v-4.256c0-0.672-0.544-1.216-1.184-1.216h-1.024zM1.888 16.288c-0.192 0-0.384 0.032-0.576 0.128-0.896 0.32-1.376 1.28-1.024 2.176 1.472 4.064 4.384 7.328 8.032 9.312 0.704 0.384 1.44 0.704 2.208 0.992 1.856 0.672 3.872 1.056 5.952 1.056v0 0 0c1.824 0 3.616-0.288 5.344-0.864 0.32-0.096 0.64-0.224 0.96-0.352 0.352-0.128 0.704-0.256 0.992-0.416v0 0 0c0.864-0.416 1.216-1.44 0.8-2.272-0.384-0.864-1.408-1.216-2.24-0.832v0c-0.288 0.128-0.544 0.256-0.8 0.352s-0.512 0.192-0.8 0.288c-1.376 0.448-2.816 0.672-4.256 0.672v0 0 0c-1.664 0-3.264-0.288-4.768-0.864-0.608-0.224-1.216-0.48-1.76-0.8-2.944-1.568-5.28-4.192-6.464-7.424-0.256-0.704-0.896-1.152-1.6-1.152z"></path>
</symbol>
<symbol id="icon-emo-grin" viewBox="0 0 28 32">
<title>emo-grin</title>
<path d="M6.304 1.568c-1.952 0-3.52 2.048-3.52 4.608s1.568 4.608 3.52 4.608 3.488-2.048 3.488-4.608c0-2.56-1.568-4.608-3.488-4.608zM21.536 1.568c-1.92 0-3.488 2.048-3.488 4.608s1.568 4.608 3.488 4.608c1.952 0 3.52-2.048 3.52-4.608s-1.568-4.608-3.52-4.608zM26.144 16.928h-24.48c-0.928 0-1.664 0.768-1.664 1.728 0.096 6.4 7.616 11.232 13.504 11.328 5.952 0.096 14.144-4.992 14.336-11.36 0-0.928-0.768-1.696-1.696-1.696zM3.744 20.32h20.288c-1.984 3.872-6.080 6.432-10.592 6.304-4.16-0.128-7.872-2.656-9.696-6.304z"></path>
</symbol>
<symbol id="icon-emo-angry" viewBox="0 0 32 32">
<title>emo-angry</title>
<path d="M1.696 3.584c-0.64 0-1.248 0.352-1.536 0.96-0.416 0.832-0.032 1.856 0.8 2.272l4.864 2.56c-0.096 1.472 0.256 2.976 1.088 4.096 0.672 0.928 1.664 1.568 2.816 1.568 2.88 0 4.032-3.424 3.872-5.728-3.84-1.696-7.424-3.68-11.168-5.568-0.224-0.128-0.48-0.16-0.736-0.16zM30.304 3.584c-0.256 0-0.512 0.032-0.736 0.16-3.744 1.888-7.328 3.872-11.168 5.568-0.16 2.304 0.992 5.728 3.872 5.728 1.152 0 2.144-0.64 2.816-1.568 0.8-1.12 1.184-2.624 1.088-4.096l4.864-2.56c0.832-0.416 1.184-1.44 0.8-2.272-0.32-0.608-0.928-0.96-1.536-0.96zM15.808 20.768c-5.28 0-10.56 1.984-14.752 5.888l-0.064 0.096c-0.192 0.16-0.352 0.32-0.48 0.448-0.672 0.672-0.672 1.76-0.032 2.432 0.672 0.672 1.728 0.672 2.4 0.032l0.48-0.48c3.584-3.36 8.128-5.024 12.672-4.96 4.576 0.032 9.152 1.792 12.672 5.28 0.128 0.128 0.256 0.256 0.384 0.384 0.672 0.672 1.728 0.672 2.4 0.032 0.672-0.672 0.672-1.76 0-2.464-0.128-0.16-0.288-0.32-0.448-0.448-4.16-4.128-9.568-6.208-14.976-6.24-0.096 0-0.16 0-0.256 0z"></path>
</symbol>
<symbol id="icon-emo-saint" viewBox="0 0 32 32">
<title>emo-saint</title>
<path d="M15.648 0.288c-3.68 0-7.328 0.32-10.304 0.96-3.296 0.672-5.312 1.824-5.344 3.264v0 0 0c0.032 1.44 2.048 2.592 5.344 3.264v0c6.080 1.28 15.2 1.28 21.28 0 3.296-0.672 5.344-1.824 5.344-3.264v0c0-1.44-2.048-2.592-5.344-3.264v0c-3.136-0.672-7.072-0.992-10.976-0.96zM16 3.136c6.176 0 11.2 0.608 11.2 1.376s-5.024 1.376-11.2 1.376c-6.208 0-11.232-0.608-11.232-1.376s5.024-1.376 11.232-1.376zM5.312 14.624c-0.96 0-1.728 0.768-1.728 1.728s0.768 1.728 1.728 1.728h5.952c0.96 0 1.728-0.768 1.728-1.728s-0.768-1.728-1.728-1.728h-5.952zM20.736 14.624c-0.96 0-1.728 0.768-1.728 1.728s0.768 1.728 1.728 1.728h5.952c0.96 0 1.728-0.768 1.728-1.728s-0.768-1.728-1.728-1.728h-5.952zM25.568 24.256c-0.416 0.032-0.864 0.192-1.184 0.512-0.032 0.032-0.032 0.064-0.064 0.064-0.32 0.352-0.64 0.672-0.992 0.96-0.32 0.288-0.704 0.576-1.088 0.832-1.984 1.312-4.32 1.984-6.752 1.856v0.032c-1.472-0.064-2.944-0.448-4.288-1.056-0.224-0.128-0.448-0.224-0.64-0.32-1.056-0.608-2.048-1.376-2.912-2.304-0.64-0.704-1.728-0.736-2.4-0.096-0.704 0.64-0.736 1.696-0.096 2.4 1.088 1.184 2.368 2.176 3.808 2.976 0.256 0.16 0.544 0.288 0.832 0.416 1.728 0.8 3.616 1.28 5.568 1.344v0.032c3.136 0.128 6.176-0.736 8.736-2.432 0.512-0.352 0.992-0.704 1.44-1.088s0.896-0.8 1.28-1.248c0.64-0.672 0.64-1.728-0.032-2.368-0.32-0.352-0.768-0.512-1.216-0.512z"></path>
</symbol>
<symbol id="icon-emo-cry" viewBox="0 0 27 32">
<title>emo-cry</title>
<path d="M8.896 2.016c-0.224 0-0.48 0.064-0.736 0.16l-4.096 1.984-2.56 1.216c-0.064 0.032-0.128 0.064-0.192 0.096-0.032 0.16-0.032 0.352-0.032 0.512v0 0.032c0 2.208 1.28 5.184 3.904 5.184v0 0 0c1.088 0 2.080-0.576 2.784-1.568 0.832-1.12 1.184-2.624 1.088-4.096l0.576-0.288c0.864-0.384 1.216-1.408 0.8-2.272-0.288-0.608-0.896-0.96-1.536-0.96zM15.68 2.016c-0.64 0-1.248 0.352-1.536 0.96-0.416 0.864-0.032 1.888 0.8 2.272l0.576 0.288c-0.096 1.472 0.288 2.976 1.088 4.096 0.704 0.992 1.696 1.568 2.784 1.568v0h0.032c2.624 0 3.872-2.976 3.904-5.184v0-0.032c0-0.16-0.032-0.352-0.032-0.512-0.064-0.032-0.16-0.064-0.224-0.096l-2.56-1.216-4.096-1.984c-0.224-0.096-0.48-0.16-0.736-0.16zM24.608 11.68c-0.224 0-0.48 0.16-0.672 0.512-1.344 2.304-3.072 8.288 0.864 8.288 3.936-0.032 2.336-5.824 0.512-8.352-0.192-0.256-0.448-0.416-0.704-0.448zM8.224 16.096c-1.824 0-3.584 0.288-5.312 0.832-0.32 0.128-0.64 0.224-0.96 0.352-0.352 0.16-0.672 0.288-0.96 0.416v0l-0.032 0.032c-0.832 0.384-1.184 1.408-0.8 2.24 0.416 0.832 1.408 1.216 2.24 0.8v0.032c0.288-0.16 0.544-0.256 0.768-0.352 0.288-0.096 0.544-0.192 0.8-0.288 1.376-0.448 2.816-0.672 4.256-0.672 1.632 0 3.232 0.288 4.736 0.864 0.608 0.224 1.184 0.48 1.76 0.768 2.912 1.568 5.216 4.16 6.4 7.424 0.32 0.864 1.28 1.312 2.176 0.992 0.864-0.32 1.344-1.28 1.024-2.144-1.472-4.064-4.384-7.296-8-9.248-0.704-0.384-1.44-0.704-2.208-0.992-1.824-0.672-3.84-1.056-5.888-1.056z"></path>
</symbol>
<symbol id="icon-emo-shoot" viewBox="0 0 62 32">
<title>emo-shoot</title>
<path d="M1.696 0c-0.64 0-1.248 0.352-1.536 0.96-0.416 0.864-0.032 1.888 0.8 2.272l4.864 2.56c-0.096 1.472 0.256 2.976 1.088 4.128 0.672 0.896 1.664 1.568 2.816 1.568 2.88 0 4.032-3.456 3.872-5.76-3.84-1.696-7.424-3.648-11.168-5.568-0.224-0.096-0.48-0.16-0.736-0.16zM18.304 5.408c-0.96 0-1.728 0.768-1.728 1.728s0.768 1.728 1.728 1.728h5.952c0.96 0 1.728-0.768 1.728-1.728s-0.768-1.728-1.728-1.728h-5.952zM38.112 8.192c-1.28 0-2.464 0.544-3.36 1.376l-0.064 0.064c-0.16 0.16-0.32 0.352-0.448 0.544-0.352 0.48-0.64 1.024-0.768 1.632-0.576 0.224-1.152 0.448-1.696 0.736-0.864 0.416-1.76 0.928-2.624 1.536v0c-2.336 1.6-5.216 5.088-6.432 8.48-0.256 0.704-0.448 1.408-0.544 2.112-0.096 0.672-0.128 1.344-0.064 2.016l0.032 0.128v0.032c0.288 2.176 1.184 3.648 2.496 4.48 0.288 0.16 0.576 0.288 0.896 0.416 0.256 0.064 0.544 0.128 0.832 0.16 0.064 0.032 0.096 0.032 0.192 0.032h0.128c1.728 0.096 3.2 0.064 4.64 0.032 0.672-0.032 1.312-0.032 1.92-0.032 3.776-0.032 4.576-2.944 5.344-5.888 0.224-0.832 0.448-1.664 0.736-2.304h7.008c2.688 0 4.064-1.44 4.736-3.2 0.096-0.352 0.192-0.672 0.256-1.024l9.312 0.032c0.928 0 1.664-0.736 1.664-1.664v-4.928h0.032v-2.144h-0.032c0-0.672-0.256-1.28-0.704-1.696-0.384-0.384-0.864-0.64-1.408-0.704-0.096-0.032-0.224-0.032-0.32-0.032h-1.6c-0.608 0.032-1.152 0.256-1.568 0.608v0.032h-0.032l-0.096 0.096c-0.288 0.256-0.48 0.64-0.608 1.024h-5.184c-0.448-0.576-0.992-1.056-1.632-1.376v0c-0.16-0.096-0.32-0.16-0.48-0.224l-0.128-0.032c-0.448-0.192-0.928-0.288-1.44-0.288-0.064-0.032-0.128-0.032-0.192-0.032h-8.8zM47.008 11.552c0.128 0.032 0.256 0.064 0.384 0.096l0.032 0.032h0.032c0.064 0 0.096 0.032 0.128 0.032v0.032c0.288 0.16 0.544 0.416 0.672 0.736 0.288 0.672 0.992 1.088 1.696 1.024h7.584c0.608 0 1.12-0.32 1.44-0.768v3.456l-9.152-0.032c-0.928 0-1.664 0.736-1.664 1.664v0c0 0.096-0.032 0.256-0.032 0.416v0 0.032c-0.032 0.192-0.032 0.384-0.096 0.576-0.032 0.192-0.064 0.352-0.128 0.512-0.192 0.576-0.64 1.024-1.568 1.024h-7.968c-0.608 0-1.152 0.32-1.44 0.832-0.128 0.192-0.288 0.416-0.384 0.608v0.032c-0.192-0.128-1.12 3.104-1.184 3.328-0.448 1.696-0.896 3.392-2.144 3.392-0.704 0-1.344 0.032-1.984 0.032v0c-1.344 0.032-2.72 0.096-4.32 0v0l-0.096-0.032h-0.064c-0.064 0-0.128-0.032-0.16-0.032-0.096-0.032-0.16-0.064-0.224-0.096-0.416-0.256-0.768-0.96-0.896-2.048v-0.032l-0.032-0.032c-0.032-0.352 0-0.736 0.064-1.184 0.064-0.48 0.192-0.96 0.384-1.44 0.992-2.784 3.296-5.6 5.152-6.88v0 0c0.736-0.48 1.472-0.928 2.24-1.28 0.736-0.384 1.472-0.672 2.208-0.928 0.704-0.224 1.152-0.896 1.152-1.6v0 0 0-0.064c0.032-0.288 0.128-0.576 0.288-0.8 0.064-0.064 0.096-0.128 0.16-0.16 0.256-0.256 0.64-0.448 1.024-0.448h8.896zM14.144 17.184c-3.936 0-7.712 1.408-10.688 3.84-0.544 0.48-1.12 0.992-1.632 1.568-0.512 0.544-0.992 1.152-1.44 1.76-0.512 0.768-0.32 1.824 0.448 2.368s1.824 0.352 2.336-0.416c0.352-0.512 0.736-0.992 1.152-1.408 0.384-0.448 0.832-0.864 1.312-1.248 2.368-1.952 5.376-3.040 8.512-3.040v0-0.032c0.576 0 1.152 0.064 1.76 0.128 0.032 0 0.032 0 0.256 0.064 0.512 0.064 0.992 0.16 1.44 0.288 0.896 0.224 1.856-0.288 2.080-1.216 0.256-0.896-0.288-1.824-1.184-2.080-0.608-0.16-1.216-0.288-1.824-0.384-0.032 0-0.064 0-0.352-0.032-0.704-0.096-1.44-0.128-2.176-0.128v-0.032z"></path>
</symbol>
<symbol id="icon-emo-squint" viewBox="0 0 32 32">
<title>emo-squint</title>
<path d="M4.096 7.776c-0.96 0-1.728 0.768-1.728 1.728s0.768 1.728 1.728 1.728h8.544c0.96 0 1.728-0.768 1.728-1.728s-0.768-1.728-1.728-1.728h-8.544zM19.328 7.776c-0.928 0-1.728 0.768-1.728 1.728s0.8 1.728 1.728 1.728h8.544c0.96 0 1.728-0.768 1.728-1.728s-0.768-1.728-1.728-1.728h-8.544zM30.272 20.768c-0.416 0-0.864 0.16-1.184 0.512-0.128 0.128-0.256 0.256-0.384 0.384-3.552 3.488-8.096 5.248-12.672 5.28-4.544 0.064-9.12-1.6-12.672-4.96l-0.48-0.48c-0.672-0.672-1.728-0.64-2.4 0.032-0.64 0.672-0.64 1.76 0.032 2.432 0.096 0.128 0.256 0.256 0.448 0.448l0.096 0.096c4.224 3.968 9.632 5.952 15.008 5.888 5.408-0.032 10.784-2.144 14.976-6.24 0.16-0.16 0.288-0.32 0.448-0.448 0.64-0.704 0.64-1.792-0.032-2.464-0.32-0.32-0.736-0.48-1.184-0.48z"></path>
</symbol>
<symbol id="icon-emo-laugh" viewBox="0 0 29 32">
<title>emo-laugh</title>
<path d="M6.592 3.456c-2.464 0-4.832 1.248-6.272 3.296-0.544 0.768-0.352 1.824 0.416 2.368s1.856 0.384 2.4-0.416c1.376-1.952 4.064-2.368 5.952-0.992v0c0.128 0.064 0.256 0.16 0.352 0.288h0.032l0.032 0.032c0.096 0.096 0.224 0.224 0.32 0.352l0.064 0.064c0.64 0.704 1.728 0.768 2.432 0.128 0.704-0.608 0.768-1.696 0.128-2.4-1.44-1.696-3.584-2.72-5.856-2.72zM22.144 3.456c-2.496 0-4.864 1.248-6.304 3.296-0.544 0.768-0.352 1.824 0.416 2.368s1.856 0.384 2.4-0.416c1.376-1.952 4.064-2.368 5.952-0.992v0c0.128 0.064 0.256 0.16 0.384 0.288v0l0.032 0.032c0.128 0.096 0.224 0.224 0.32 0.352l0.064 0.064h0.032c0.608 0.704 1.696 0.768 2.4 0.128 0.704-0.608 0.768-1.696 0.16-2.4-1.472-1.696-3.616-2.72-5.856-2.72zM26.88 16.928h-24.48c-0.928 0-1.664 0.768-1.664 1.728 0.128 6.4 7.616 11.232 13.504 11.328 5.984 0.096 14.176-4.992 14.336-11.36 0-0.928-0.768-1.696-1.696-1.696zM4.48 20.32h20.288c-1.952 3.872-6.080 6.432-10.56 6.304-4.16-0.128-7.904-2.656-9.728-6.304z"></path>
</symbol>
<symbol id="icon-emo-wink2" viewBox="0 0 25 32">
<title>emo-wink2</title>
<path d="M21.248 1.6c-1.952 0-3.52 2.080-3.52 4.608 0 2.56 1.568 4.64 3.52 4.64 1.92 0 3.52-2.080 3.52-4.64 0-2.528-1.6-4.608-3.52-4.608zM10.272 4.736h-8.544c-0.96 0-1.728 0.768-1.728 1.728s0.768 1.728 1.728 1.728h8.544c0.96 0 1.728-0.768 1.728-1.728s-0.768-1.728-1.728-1.728zM1.888 16.288c-0.192 0-0.416 0.032-0.608 0.096-0.864 0.32-1.312 1.312-0.992 2.176 1.472 4.064 4.352 7.296 7.968 9.248 0.704 0.384 1.44 0.704 2.208 0.992 1.856 0.672 3.84 1.056 5.888 1.056 1.824 0 3.616-0.288 5.312-0.864 0.32-0.096 0.64-0.224 0.96-0.352 0.352-0.128 0.704-0.256 0.992-0.384v-0.032c0.832-0.384 1.216-1.408 0.8-2.272-0.416-0.832-1.408-1.184-2.24-0.8v0c-0.288 0.128-0.544 0.256-0.768 0.352-0.256 0.096-0.544 0.192-0.8 0.256-1.376 0.448-2.816 0.704-4.256 0.704-1.632 0-3.232-0.32-4.736-0.864-0.608-0.224-1.184-0.48-1.76-0.8-2.88-1.536-5.216-4.16-6.4-7.392-0.256-0.672-0.896-1.12-1.568-1.12z"></path>
</symbol>
</defs>
</svg>
